%TF.GenerationSoftware,KiCad,Pcbnew,10.0.3*%
%TF.CreationDate,2026-07-02T18:02:31+08:00*%
%TF.ProjectId,soup-soup-soup-sahur,736f7570-2d73-46f7-9570-2d736f75702d,rev?*%
%TF.SameCoordinates,Original*%
%TF.FileFunction,Legend,Top*%
%TF.FilePolarity,Positive*%
%FSLAX46Y46*%
G04 Gerber Fmt 4.6, Leading zero omitted, Abs format (unit mm)*
G04 Created by KiCad (PCBNEW 10.0.3) date 2026-07-02 18:02:31*
%MOMM*%
%LPD*%
G01*
G04 APERTURE LIST*
%ADD10C,0.100000*%
%ADD11C,0.150000*%
%ADD12C,0.120000*%
%ADD13C,0.000000*%
%ADD14C,0.250000*%
%ADD15C,0.060000*%
G04 APERTURE END LIST*
D10*
X94832455Y-82556032D02*
X94832455Y-83365556D01*
X94832455Y-83365556D02*
X94784836Y-83460794D01*
X94784836Y-83460794D02*
X94737217Y-83508413D01*
X94737217Y-83508413D02*
X94641979Y-83556032D01*
X94641979Y-83556032D02*
X94499122Y-83556032D01*
X94499122Y-83556032D02*
X94403884Y-83508413D01*
X94832455Y-83175080D02*
X94737217Y-83222699D01*
X94737217Y-83222699D02*
X94546741Y-83222699D01*
X94546741Y-83222699D02*
X94451503Y-83175080D01*
X94451503Y-83175080D02*
X94403884Y-83127460D01*
X94403884Y-83127460D02*
X94356265Y-83032222D01*
X94356265Y-83032222D02*
X94356265Y-82746508D01*
X94356265Y-82746508D02*
X94403884Y-82651270D01*
X94403884Y-82651270D02*
X94451503Y-82603651D01*
X94451503Y-82603651D02*
X94546741Y-82556032D01*
X94546741Y-82556032D02*
X94737217Y-82556032D01*
X94737217Y-82556032D02*
X94832455Y-82603651D01*
X95308646Y-83222699D02*
X95308646Y-82556032D01*
X95308646Y-82222699D02*
X95261027Y-82270318D01*
X95261027Y-82270318D02*
X95308646Y-82317937D01*
X95308646Y-82317937D02*
X95356265Y-82270318D01*
X95356265Y-82270318D02*
X95308646Y-82222699D01*
X95308646Y-82222699D02*
X95308646Y-82317937D01*
X95641979Y-82556032D02*
X96022931Y-82556032D01*
X95784836Y-82222699D02*
X95784836Y-83079841D01*
X95784836Y-83079841D02*
X95832455Y-83175080D01*
X95832455Y-83175080D02*
X95927693Y-83222699D01*
X95927693Y-83222699D02*
X96022931Y-83222699D01*
X96356265Y-83222699D02*
X96356265Y-82222699D01*
X96784836Y-83222699D02*
X96784836Y-82698889D01*
X96784836Y-82698889D02*
X96737217Y-82603651D01*
X96737217Y-82603651D02*
X96641979Y-82556032D01*
X96641979Y-82556032D02*
X96499122Y-82556032D01*
X96499122Y-82556032D02*
X96403884Y-82603651D01*
X96403884Y-82603651D02*
X96356265Y-82651270D01*
X97689598Y-82556032D02*
X97689598Y-83222699D01*
X97261027Y-82556032D02*
X97261027Y-83079841D01*
X97261027Y-83079841D02*
X97308646Y-83175080D01*
X97308646Y-83175080D02*
X97403884Y-83222699D01*
X97403884Y-83222699D02*
X97546741Y-83222699D01*
X97546741Y-83222699D02*
X97641979Y-83175080D01*
X97641979Y-83175080D02*
X97689598Y-83127460D01*
X98165789Y-83222699D02*
X98165789Y-82222699D01*
X98165789Y-82603651D02*
X98261027Y-82556032D01*
X98261027Y-82556032D02*
X98451503Y-82556032D01*
X98451503Y-82556032D02*
X98546741Y-82603651D01*
X98546741Y-82603651D02*
X98594360Y-82651270D01*
X98594360Y-82651270D02*
X98641979Y-82746508D01*
X98641979Y-82746508D02*
X98641979Y-83032222D01*
X98641979Y-83032222D02*
X98594360Y-83127460D01*
X98594360Y-83127460D02*
X98546741Y-83175080D01*
X98546741Y-83175080D02*
X98451503Y-83222699D01*
X98451503Y-83222699D02*
X98261027Y-83222699D01*
X98261027Y-83222699D02*
X98165789Y-83175080D01*
X99070551Y-83127460D02*
X99118170Y-83175080D01*
X99118170Y-83175080D02*
X99070551Y-83222699D01*
X99070551Y-83222699D02*
X99022932Y-83175080D01*
X99022932Y-83175080D02*
X99070551Y-83127460D01*
X99070551Y-83127460D02*
X99070551Y-83222699D01*
X99070551Y-82603651D02*
X99118170Y-82651270D01*
X99118170Y-82651270D02*
X99070551Y-82698889D01*
X99070551Y-82698889D02*
X99022932Y-82651270D01*
X99022932Y-82651270D02*
X99070551Y-82603651D01*
X99070551Y-82603651D02*
X99070551Y-82698889D01*
X100927693Y-82746508D02*
X100880074Y-82698889D01*
X100880074Y-82698889D02*
X100784836Y-82651270D01*
X100784836Y-82651270D02*
X100689598Y-82651270D01*
X100689598Y-82651270D02*
X100594360Y-82698889D01*
X100594360Y-82698889D02*
X100546741Y-82746508D01*
X100546741Y-82746508D02*
X100499122Y-82841746D01*
X100499122Y-82841746D02*
X100499122Y-82936984D01*
X100499122Y-82936984D02*
X100546741Y-83032222D01*
X100546741Y-83032222D02*
X100594360Y-83079841D01*
X100594360Y-83079841D02*
X100689598Y-83127460D01*
X100689598Y-83127460D02*
X100784836Y-83127460D01*
X100784836Y-83127460D02*
X100880074Y-83079841D01*
X100880074Y-83079841D02*
X100927693Y-83032222D01*
X100927693Y-82651270D02*
X100927693Y-83032222D01*
X100927693Y-83032222D02*
X100975312Y-83079841D01*
X100975312Y-83079841D02*
X101022931Y-83079841D01*
X101022931Y-83079841D02*
X101118170Y-83032222D01*
X101118170Y-83032222D02*
X101165789Y-82936984D01*
X101165789Y-82936984D02*
X101165789Y-82698889D01*
X101165789Y-82698889D02*
X101070551Y-82556032D01*
X101070551Y-82556032D02*
X100927693Y-82460794D01*
X100927693Y-82460794D02*
X100737217Y-82413175D01*
X100737217Y-82413175D02*
X100546741Y-82460794D01*
X100546741Y-82460794D02*
X100403884Y-82556032D01*
X100403884Y-82556032D02*
X100308646Y-82698889D01*
X100308646Y-82698889D02*
X100261027Y-82889365D01*
X100261027Y-82889365D02*
X100308646Y-83079841D01*
X100308646Y-83079841D02*
X100403884Y-83222699D01*
X100403884Y-83222699D02*
X100546741Y-83317937D01*
X100546741Y-83317937D02*
X100737217Y-83365556D01*
X100737217Y-83365556D02*
X100927693Y-83317937D01*
X100927693Y-83317937D02*
X101070551Y-83222699D01*
X101784836Y-82222699D02*
X101880074Y-82222699D01*
X101880074Y-82222699D02*
X101975312Y-82270318D01*
X101975312Y-82270318D02*
X102022931Y-82317937D01*
X102022931Y-82317937D02*
X102070550Y-82413175D01*
X102070550Y-82413175D02*
X102118169Y-82603651D01*
X102118169Y-82603651D02*
X102118169Y-82841746D01*
X102118169Y-82841746D02*
X102070550Y-83032222D01*
X102070550Y-83032222D02*
X102022931Y-83127460D01*
X102022931Y-83127460D02*
X101975312Y-83175080D01*
X101975312Y-83175080D02*
X101880074Y-83222699D01*
X101880074Y-83222699D02*
X101784836Y-83222699D01*
X101784836Y-83222699D02*
X101689598Y-83175080D01*
X101689598Y-83175080D02*
X101641979Y-83127460D01*
X101641979Y-83127460D02*
X101594360Y-83032222D01*
X101594360Y-83032222D02*
X101546741Y-82841746D01*
X101546741Y-82841746D02*
X101546741Y-82603651D01*
X101546741Y-82603651D02*
X101594360Y-82413175D01*
X101594360Y-82413175D02*
X101641979Y-82317937D01*
X101641979Y-82317937D02*
X101689598Y-82270318D01*
X101689598Y-82270318D02*
X101784836Y-82222699D01*
X102451503Y-83222699D02*
X102975312Y-82556032D01*
X102451503Y-82556032D02*
X102975312Y-83222699D01*
X103784836Y-82222699D02*
X103594360Y-82222699D01*
X103594360Y-82222699D02*
X103499122Y-82270318D01*
X103499122Y-82270318D02*
X103451503Y-82317937D01*
X103451503Y-82317937D02*
X103356265Y-82460794D01*
X103356265Y-82460794D02*
X103308646Y-82651270D01*
X103308646Y-82651270D02*
X103308646Y-83032222D01*
X103308646Y-83032222D02*
X103356265Y-83127460D01*
X103356265Y-83127460D02*
X103403884Y-83175080D01*
X103403884Y-83175080D02*
X103499122Y-83222699D01*
X103499122Y-83222699D02*
X103689598Y-83222699D01*
X103689598Y-83222699D02*
X103784836Y-83175080D01*
X103784836Y-83175080D02*
X103832455Y-83127460D01*
X103832455Y-83127460D02*
X103880074Y-83032222D01*
X103880074Y-83032222D02*
X103880074Y-82794127D01*
X103880074Y-82794127D02*
X103832455Y-82698889D01*
X103832455Y-82698889D02*
X103784836Y-82651270D01*
X103784836Y-82651270D02*
X103689598Y-82603651D01*
X103689598Y-82603651D02*
X103499122Y-82603651D01*
X103499122Y-82603651D02*
X103403884Y-82651270D01*
X103403884Y-82651270D02*
X103356265Y-82698889D01*
X103356265Y-82698889D02*
X103308646Y-82794127D01*
X104261027Y-82317937D02*
X104308646Y-82270318D01*
X104308646Y-82270318D02*
X104403884Y-82222699D01*
X104403884Y-82222699D02*
X104641979Y-82222699D01*
X104641979Y-82222699D02*
X104737217Y-82270318D01*
X104737217Y-82270318D02*
X104784836Y-82317937D01*
X104784836Y-82317937D02*
X104832455Y-82413175D01*
X104832455Y-82413175D02*
X104832455Y-82508413D01*
X104832455Y-82508413D02*
X104784836Y-82651270D01*
X104784836Y-82651270D02*
X104213408Y-83222699D01*
X104213408Y-83222699D02*
X104832455Y-83222699D01*
X105261027Y-83222699D02*
X105261027Y-82222699D01*
X105261027Y-82603651D02*
X105356265Y-82556032D01*
X105356265Y-82556032D02*
X105546741Y-82556032D01*
X105546741Y-82556032D02*
X105641979Y-82603651D01*
X105641979Y-82603651D02*
X105689598Y-82651270D01*
X105689598Y-82651270D02*
X105737217Y-82746508D01*
X105737217Y-82746508D02*
X105737217Y-83032222D01*
X105737217Y-83032222D02*
X105689598Y-83127460D01*
X105689598Y-83127460D02*
X105641979Y-83175080D01*
X105641979Y-83175080D02*
X105546741Y-83222699D01*
X105546741Y-83222699D02*
X105356265Y-83222699D01*
X105356265Y-83222699D02*
X105261027Y-83175080D01*
X94832455Y-84785024D02*
X94737217Y-84832643D01*
X94737217Y-84832643D02*
X94546741Y-84832643D01*
X94546741Y-84832643D02*
X94451503Y-84785024D01*
X94451503Y-84785024D02*
X94403884Y-84737404D01*
X94403884Y-84737404D02*
X94356265Y-84642166D01*
X94356265Y-84642166D02*
X94356265Y-84356452D01*
X94356265Y-84356452D02*
X94403884Y-84261214D01*
X94403884Y-84261214D02*
X94451503Y-84213595D01*
X94451503Y-84213595D02*
X94546741Y-84165976D01*
X94546741Y-84165976D02*
X94737217Y-84165976D01*
X94737217Y-84165976D02*
X94832455Y-84213595D01*
X95403884Y-84832643D02*
X95308646Y-84785024D01*
X95308646Y-84785024D02*
X95261027Y-84737404D01*
X95261027Y-84737404D02*
X95213408Y-84642166D01*
X95213408Y-84642166D02*
X95213408Y-84356452D01*
X95213408Y-84356452D02*
X95261027Y-84261214D01*
X95261027Y-84261214D02*
X95308646Y-84213595D01*
X95308646Y-84213595D02*
X95403884Y-84165976D01*
X95403884Y-84165976D02*
X95546741Y-84165976D01*
X95546741Y-84165976D02*
X95641979Y-84213595D01*
X95641979Y-84213595D02*
X95689598Y-84261214D01*
X95689598Y-84261214D02*
X95737217Y-84356452D01*
X95737217Y-84356452D02*
X95737217Y-84642166D01*
X95737217Y-84642166D02*
X95689598Y-84737404D01*
X95689598Y-84737404D02*
X95641979Y-84785024D01*
X95641979Y-84785024D02*
X95546741Y-84832643D01*
X95546741Y-84832643D02*
X95403884Y-84832643D01*
X96594360Y-84832643D02*
X96594360Y-83832643D01*
X96594360Y-84785024D02*
X96499122Y-84832643D01*
X96499122Y-84832643D02*
X96308646Y-84832643D01*
X96308646Y-84832643D02*
X96213408Y-84785024D01*
X96213408Y-84785024D02*
X96165789Y-84737404D01*
X96165789Y-84737404D02*
X96118170Y-84642166D01*
X96118170Y-84642166D02*
X96118170Y-84356452D01*
X96118170Y-84356452D02*
X96165789Y-84261214D01*
X96165789Y-84261214D02*
X96213408Y-84213595D01*
X96213408Y-84213595D02*
X96308646Y-84165976D01*
X96308646Y-84165976D02*
X96499122Y-84165976D01*
X96499122Y-84165976D02*
X96594360Y-84213595D01*
X97451503Y-84785024D02*
X97356265Y-84832643D01*
X97356265Y-84832643D02*
X97165789Y-84832643D01*
X97165789Y-84832643D02*
X97070551Y-84785024D01*
X97070551Y-84785024D02*
X97022932Y-84689785D01*
X97022932Y-84689785D02*
X97022932Y-84308833D01*
X97022932Y-84308833D02*
X97070551Y-84213595D01*
X97070551Y-84213595D02*
X97165789Y-84165976D01*
X97165789Y-84165976D02*
X97356265Y-84165976D01*
X97356265Y-84165976D02*
X97451503Y-84213595D01*
X97451503Y-84213595D02*
X97499122Y-84308833D01*
X97499122Y-84308833D02*
X97499122Y-84404071D01*
X97499122Y-84404071D02*
X97022932Y-84499309D01*
X97927694Y-84832643D02*
X97927694Y-83832643D01*
X97927694Y-84213595D02*
X98022932Y-84165976D01*
X98022932Y-84165976D02*
X98213408Y-84165976D01*
X98213408Y-84165976D02*
X98308646Y-84213595D01*
X98308646Y-84213595D02*
X98356265Y-84261214D01*
X98356265Y-84261214D02*
X98403884Y-84356452D01*
X98403884Y-84356452D02*
X98403884Y-84642166D01*
X98403884Y-84642166D02*
X98356265Y-84737404D01*
X98356265Y-84737404D02*
X98308646Y-84785024D01*
X98308646Y-84785024D02*
X98213408Y-84832643D01*
X98213408Y-84832643D02*
X98022932Y-84832643D01*
X98022932Y-84832643D02*
X97927694Y-84785024D01*
X99213408Y-84785024D02*
X99118170Y-84832643D01*
X99118170Y-84832643D02*
X98927694Y-84832643D01*
X98927694Y-84832643D02*
X98832456Y-84785024D01*
X98832456Y-84785024D02*
X98784837Y-84689785D01*
X98784837Y-84689785D02*
X98784837Y-84308833D01*
X98784837Y-84308833D02*
X98832456Y-84213595D01*
X98832456Y-84213595D02*
X98927694Y-84165976D01*
X98927694Y-84165976D02*
X99118170Y-84165976D01*
X99118170Y-84165976D02*
X99213408Y-84213595D01*
X99213408Y-84213595D02*
X99261027Y-84308833D01*
X99261027Y-84308833D02*
X99261027Y-84404071D01*
X99261027Y-84404071D02*
X98784837Y-84499309D01*
X99689599Y-84832643D02*
X99689599Y-84165976D01*
X99689599Y-84356452D02*
X99737218Y-84261214D01*
X99737218Y-84261214D02*
X99784837Y-84213595D01*
X99784837Y-84213595D02*
X99880075Y-84165976D01*
X99880075Y-84165976D02*
X99975313Y-84165976D01*
X100737218Y-84165976D02*
X100737218Y-84975500D01*
X100737218Y-84975500D02*
X100689599Y-85070738D01*
X100689599Y-85070738D02*
X100641980Y-85118357D01*
X100641980Y-85118357D02*
X100546742Y-85165976D01*
X100546742Y-85165976D02*
X100403885Y-85165976D01*
X100403885Y-85165976D02*
X100308647Y-85118357D01*
X100737218Y-84785024D02*
X100641980Y-84832643D01*
X100641980Y-84832643D02*
X100451504Y-84832643D01*
X100451504Y-84832643D02*
X100356266Y-84785024D01*
X100356266Y-84785024D02*
X100308647Y-84737404D01*
X100308647Y-84737404D02*
X100261028Y-84642166D01*
X100261028Y-84642166D02*
X100261028Y-84356452D01*
X100261028Y-84356452D02*
X100308647Y-84261214D01*
X100308647Y-84261214D02*
X100356266Y-84213595D01*
X100356266Y-84213595D02*
X100451504Y-84165976D01*
X100451504Y-84165976D02*
X100641980Y-84165976D01*
X100641980Y-84165976D02*
X100737218Y-84213595D01*
X101213409Y-84737404D02*
X101261028Y-84785024D01*
X101261028Y-84785024D02*
X101213409Y-84832643D01*
X101213409Y-84832643D02*
X101165790Y-84785024D01*
X101165790Y-84785024D02*
X101213409Y-84737404D01*
X101213409Y-84737404D02*
X101213409Y-84832643D01*
X101213409Y-84213595D02*
X101261028Y-84261214D01*
X101261028Y-84261214D02*
X101213409Y-84308833D01*
X101213409Y-84308833D02*
X101165790Y-84261214D01*
X101165790Y-84261214D02*
X101213409Y-84213595D01*
X101213409Y-84213595D02*
X101213409Y-84308833D01*
X103070551Y-84356452D02*
X103022932Y-84308833D01*
X103022932Y-84308833D02*
X102927694Y-84261214D01*
X102927694Y-84261214D02*
X102832456Y-84261214D01*
X102832456Y-84261214D02*
X102737218Y-84308833D01*
X102737218Y-84308833D02*
X102689599Y-84356452D01*
X102689599Y-84356452D02*
X102641980Y-84451690D01*
X102641980Y-84451690D02*
X102641980Y-84546928D01*
X102641980Y-84546928D02*
X102689599Y-84642166D01*
X102689599Y-84642166D02*
X102737218Y-84689785D01*
X102737218Y-84689785D02*
X102832456Y-84737404D01*
X102832456Y-84737404D02*
X102927694Y-84737404D01*
X102927694Y-84737404D02*
X103022932Y-84689785D01*
X103022932Y-84689785D02*
X103070551Y-84642166D01*
X103070551Y-84261214D02*
X103070551Y-84642166D01*
X103070551Y-84642166D02*
X103118170Y-84689785D01*
X103118170Y-84689785D02*
X103165789Y-84689785D01*
X103165789Y-84689785D02*
X103261028Y-84642166D01*
X103261028Y-84642166D02*
X103308647Y-84546928D01*
X103308647Y-84546928D02*
X103308647Y-84308833D01*
X103308647Y-84308833D02*
X103213409Y-84165976D01*
X103213409Y-84165976D02*
X103070551Y-84070738D01*
X103070551Y-84070738D02*
X102880075Y-84023119D01*
X102880075Y-84023119D02*
X102689599Y-84070738D01*
X102689599Y-84070738D02*
X102546742Y-84165976D01*
X102546742Y-84165976D02*
X102451504Y-84308833D01*
X102451504Y-84308833D02*
X102403885Y-84499309D01*
X102403885Y-84499309D02*
X102451504Y-84689785D01*
X102451504Y-84689785D02*
X102546742Y-84832643D01*
X102546742Y-84832643D02*
X102689599Y-84927881D01*
X102689599Y-84927881D02*
X102880075Y-84975500D01*
X102880075Y-84975500D02*
X103070551Y-84927881D01*
X103070551Y-84927881D02*
X103213409Y-84832643D01*
X103927694Y-83832643D02*
X104022932Y-83832643D01*
X104022932Y-83832643D02*
X104118170Y-83880262D01*
X104118170Y-83880262D02*
X104165789Y-83927881D01*
X104165789Y-83927881D02*
X104213408Y-84023119D01*
X104213408Y-84023119D02*
X104261027Y-84213595D01*
X104261027Y-84213595D02*
X104261027Y-84451690D01*
X104261027Y-84451690D02*
X104213408Y-84642166D01*
X104213408Y-84642166D02*
X104165789Y-84737404D01*
X104165789Y-84737404D02*
X104118170Y-84785024D01*
X104118170Y-84785024D02*
X104022932Y-84832643D01*
X104022932Y-84832643D02*
X103927694Y-84832643D01*
X103927694Y-84832643D02*
X103832456Y-84785024D01*
X103832456Y-84785024D02*
X103784837Y-84737404D01*
X103784837Y-84737404D02*
X103737218Y-84642166D01*
X103737218Y-84642166D02*
X103689599Y-84451690D01*
X103689599Y-84451690D02*
X103689599Y-84213595D01*
X103689599Y-84213595D02*
X103737218Y-84023119D01*
X103737218Y-84023119D02*
X103784837Y-83927881D01*
X103784837Y-83927881D02*
X103832456Y-83880262D01*
X103832456Y-83880262D02*
X103927694Y-83832643D01*
X104594361Y-84832643D02*
X105118170Y-84165976D01*
X104594361Y-84165976D02*
X105118170Y-84832643D01*
X105927694Y-83832643D02*
X105737218Y-83832643D01*
X105737218Y-83832643D02*
X105641980Y-83880262D01*
X105641980Y-83880262D02*
X105594361Y-83927881D01*
X105594361Y-83927881D02*
X105499123Y-84070738D01*
X105499123Y-84070738D02*
X105451504Y-84261214D01*
X105451504Y-84261214D02*
X105451504Y-84642166D01*
X105451504Y-84642166D02*
X105499123Y-84737404D01*
X105499123Y-84737404D02*
X105546742Y-84785024D01*
X105546742Y-84785024D02*
X105641980Y-84832643D01*
X105641980Y-84832643D02*
X105832456Y-84832643D01*
X105832456Y-84832643D02*
X105927694Y-84785024D01*
X105927694Y-84785024D02*
X105975313Y-84737404D01*
X105975313Y-84737404D02*
X106022932Y-84642166D01*
X106022932Y-84642166D02*
X106022932Y-84404071D01*
X106022932Y-84404071D02*
X105975313Y-84308833D01*
X105975313Y-84308833D02*
X105927694Y-84261214D01*
X105927694Y-84261214D02*
X105832456Y-84213595D01*
X105832456Y-84213595D02*
X105641980Y-84213595D01*
X105641980Y-84213595D02*
X105546742Y-84261214D01*
X105546742Y-84261214D02*
X105499123Y-84308833D01*
X105499123Y-84308833D02*
X105451504Y-84404071D01*
X106403885Y-83927881D02*
X106451504Y-83880262D01*
X106451504Y-83880262D02*
X106546742Y-83832643D01*
X106546742Y-83832643D02*
X106784837Y-83832643D01*
X106784837Y-83832643D02*
X106880075Y-83880262D01*
X106880075Y-83880262D02*
X106927694Y-83927881D01*
X106927694Y-83927881D02*
X106975313Y-84023119D01*
X106975313Y-84023119D02*
X106975313Y-84118357D01*
X106975313Y-84118357D02*
X106927694Y-84261214D01*
X106927694Y-84261214D02*
X106356266Y-84832643D01*
X106356266Y-84832643D02*
X106975313Y-84832643D01*
X107403885Y-84832643D02*
X107403885Y-83832643D01*
X107403885Y-84213595D02*
X107499123Y-84165976D01*
X107499123Y-84165976D02*
X107689599Y-84165976D01*
X107689599Y-84165976D02*
X107784837Y-84213595D01*
X107784837Y-84213595D02*
X107832456Y-84261214D01*
X107832456Y-84261214D02*
X107880075Y-84356452D01*
X107880075Y-84356452D02*
X107880075Y-84642166D01*
X107880075Y-84642166D02*
X107832456Y-84737404D01*
X107832456Y-84737404D02*
X107784837Y-84785024D01*
X107784837Y-84785024D02*
X107689599Y-84832643D01*
X107689599Y-84832643D02*
X107499123Y-84832643D01*
X107499123Y-84832643D02*
X107403885Y-84785024D01*
X94403884Y-86442587D02*
X94403884Y-85442587D01*
X94832455Y-86442587D02*
X94832455Y-85918777D01*
X94832455Y-85918777D02*
X94784836Y-85823539D01*
X94784836Y-85823539D02*
X94689598Y-85775920D01*
X94689598Y-85775920D02*
X94546741Y-85775920D01*
X94546741Y-85775920D02*
X94451503Y-85823539D01*
X94451503Y-85823539D02*
X94403884Y-85871158D01*
X95737217Y-86394968D02*
X95641979Y-86442587D01*
X95641979Y-86442587D02*
X95451503Y-86442587D01*
X95451503Y-86442587D02*
X95356265Y-86394968D01*
X95356265Y-86394968D02*
X95308646Y-86347348D01*
X95308646Y-86347348D02*
X95261027Y-86252110D01*
X95261027Y-86252110D02*
X95261027Y-85966396D01*
X95261027Y-85966396D02*
X95308646Y-85871158D01*
X95308646Y-85871158D02*
X95356265Y-85823539D01*
X95356265Y-85823539D02*
X95451503Y-85775920D01*
X95451503Y-85775920D02*
X95641979Y-85775920D01*
X95641979Y-85775920D02*
X95737217Y-85823539D01*
X96880075Y-86394968D02*
X96975313Y-86442587D01*
X96975313Y-86442587D02*
X97165789Y-86442587D01*
X97165789Y-86442587D02*
X97261027Y-86394968D01*
X97261027Y-86394968D02*
X97308646Y-86299729D01*
X97308646Y-86299729D02*
X97308646Y-86252110D01*
X97308646Y-86252110D02*
X97261027Y-86156872D01*
X97261027Y-86156872D02*
X97165789Y-86109253D01*
X97165789Y-86109253D02*
X97022932Y-86109253D01*
X97022932Y-86109253D02*
X96927694Y-86061634D01*
X96927694Y-86061634D02*
X96880075Y-85966396D01*
X96880075Y-85966396D02*
X96880075Y-85918777D01*
X96880075Y-85918777D02*
X96927694Y-85823539D01*
X96927694Y-85823539D02*
X97022932Y-85775920D01*
X97022932Y-85775920D02*
X97165789Y-85775920D01*
X97165789Y-85775920D02*
X97261027Y-85823539D01*
X97880075Y-86442587D02*
X97784837Y-86394968D01*
X97784837Y-86394968D02*
X97737218Y-86299729D01*
X97737218Y-86299729D02*
X97737218Y-85442587D01*
X98689599Y-86442587D02*
X98689599Y-85918777D01*
X98689599Y-85918777D02*
X98641980Y-85823539D01*
X98641980Y-85823539D02*
X98546742Y-85775920D01*
X98546742Y-85775920D02*
X98356266Y-85775920D01*
X98356266Y-85775920D02*
X98261028Y-85823539D01*
X98689599Y-86394968D02*
X98594361Y-86442587D01*
X98594361Y-86442587D02*
X98356266Y-86442587D01*
X98356266Y-86442587D02*
X98261028Y-86394968D01*
X98261028Y-86394968D02*
X98213409Y-86299729D01*
X98213409Y-86299729D02*
X98213409Y-86204491D01*
X98213409Y-86204491D02*
X98261028Y-86109253D01*
X98261028Y-86109253D02*
X98356266Y-86061634D01*
X98356266Y-86061634D02*
X98594361Y-86061634D01*
X98594361Y-86061634D02*
X98689599Y-86014015D01*
X99594361Y-86394968D02*
X99499123Y-86442587D01*
X99499123Y-86442587D02*
X99308647Y-86442587D01*
X99308647Y-86442587D02*
X99213409Y-86394968D01*
X99213409Y-86394968D02*
X99165790Y-86347348D01*
X99165790Y-86347348D02*
X99118171Y-86252110D01*
X99118171Y-86252110D02*
X99118171Y-85966396D01*
X99118171Y-85966396D02*
X99165790Y-85871158D01*
X99165790Y-85871158D02*
X99213409Y-85823539D01*
X99213409Y-85823539D02*
X99308647Y-85775920D01*
X99308647Y-85775920D02*
X99499123Y-85775920D01*
X99499123Y-85775920D02*
X99594361Y-85823539D01*
X100022933Y-86442587D02*
X100022933Y-85442587D01*
X100118171Y-86061634D02*
X100403885Y-86442587D01*
X100403885Y-85775920D02*
X100022933Y-86156872D01*
X100832457Y-86347348D02*
X100880076Y-86394968D01*
X100880076Y-86394968D02*
X100832457Y-86442587D01*
X100832457Y-86442587D02*
X100784838Y-86394968D01*
X100784838Y-86394968D02*
X100832457Y-86347348D01*
X100832457Y-86347348D02*
X100832457Y-86442587D01*
X100832457Y-85823539D02*
X100880076Y-85871158D01*
X100880076Y-85871158D02*
X100832457Y-85918777D01*
X100832457Y-85918777D02*
X100784838Y-85871158D01*
X100784838Y-85871158D02*
X100832457Y-85823539D01*
X100832457Y-85823539D02*
X100832457Y-85918777D01*
X102689599Y-85966396D02*
X102641980Y-85918777D01*
X102641980Y-85918777D02*
X102546742Y-85871158D01*
X102546742Y-85871158D02*
X102451504Y-85871158D01*
X102451504Y-85871158D02*
X102356266Y-85918777D01*
X102356266Y-85918777D02*
X102308647Y-85966396D01*
X102308647Y-85966396D02*
X102261028Y-86061634D01*
X102261028Y-86061634D02*
X102261028Y-86156872D01*
X102261028Y-86156872D02*
X102308647Y-86252110D01*
X102308647Y-86252110D02*
X102356266Y-86299729D01*
X102356266Y-86299729D02*
X102451504Y-86347348D01*
X102451504Y-86347348D02*
X102546742Y-86347348D01*
X102546742Y-86347348D02*
X102641980Y-86299729D01*
X102641980Y-86299729D02*
X102689599Y-86252110D01*
X102689599Y-85871158D02*
X102689599Y-86252110D01*
X102689599Y-86252110D02*
X102737218Y-86299729D01*
X102737218Y-86299729D02*
X102784837Y-86299729D01*
X102784837Y-86299729D02*
X102880076Y-86252110D01*
X102880076Y-86252110D02*
X102927695Y-86156872D01*
X102927695Y-86156872D02*
X102927695Y-85918777D01*
X102927695Y-85918777D02*
X102832457Y-85775920D01*
X102832457Y-85775920D02*
X102689599Y-85680682D01*
X102689599Y-85680682D02*
X102499123Y-85633063D01*
X102499123Y-85633063D02*
X102308647Y-85680682D01*
X102308647Y-85680682D02*
X102165790Y-85775920D01*
X102165790Y-85775920D02*
X102070552Y-85918777D01*
X102070552Y-85918777D02*
X102022933Y-86109253D01*
X102022933Y-86109253D02*
X102070552Y-86299729D01*
X102070552Y-86299729D02*
X102165790Y-86442587D01*
X102165790Y-86442587D02*
X102308647Y-86537825D01*
X102308647Y-86537825D02*
X102499123Y-86585444D01*
X102499123Y-86585444D02*
X102689599Y-86537825D01*
X102689599Y-86537825D02*
X102832457Y-86442587D01*
X103546742Y-85442587D02*
X103641980Y-85442587D01*
X103641980Y-85442587D02*
X103737218Y-85490206D01*
X103737218Y-85490206D02*
X103784837Y-85537825D01*
X103784837Y-85537825D02*
X103832456Y-85633063D01*
X103832456Y-85633063D02*
X103880075Y-85823539D01*
X103880075Y-85823539D02*
X103880075Y-86061634D01*
X103880075Y-86061634D02*
X103832456Y-86252110D01*
X103832456Y-86252110D02*
X103784837Y-86347348D01*
X103784837Y-86347348D02*
X103737218Y-86394968D01*
X103737218Y-86394968D02*
X103641980Y-86442587D01*
X103641980Y-86442587D02*
X103546742Y-86442587D01*
X103546742Y-86442587D02*
X103451504Y-86394968D01*
X103451504Y-86394968D02*
X103403885Y-86347348D01*
X103403885Y-86347348D02*
X103356266Y-86252110D01*
X103356266Y-86252110D02*
X103308647Y-86061634D01*
X103308647Y-86061634D02*
X103308647Y-85823539D01*
X103308647Y-85823539D02*
X103356266Y-85633063D01*
X103356266Y-85633063D02*
X103403885Y-85537825D01*
X103403885Y-85537825D02*
X103451504Y-85490206D01*
X103451504Y-85490206D02*
X103546742Y-85442587D01*
X104213409Y-86442587D02*
X104737218Y-85775920D01*
X104213409Y-85775920D02*
X104737218Y-86442587D01*
X105546742Y-85442587D02*
X105356266Y-85442587D01*
X105356266Y-85442587D02*
X105261028Y-85490206D01*
X105261028Y-85490206D02*
X105213409Y-85537825D01*
X105213409Y-85537825D02*
X105118171Y-85680682D01*
X105118171Y-85680682D02*
X105070552Y-85871158D01*
X105070552Y-85871158D02*
X105070552Y-86252110D01*
X105070552Y-86252110D02*
X105118171Y-86347348D01*
X105118171Y-86347348D02*
X105165790Y-86394968D01*
X105165790Y-86394968D02*
X105261028Y-86442587D01*
X105261028Y-86442587D02*
X105451504Y-86442587D01*
X105451504Y-86442587D02*
X105546742Y-86394968D01*
X105546742Y-86394968D02*
X105594361Y-86347348D01*
X105594361Y-86347348D02*
X105641980Y-86252110D01*
X105641980Y-86252110D02*
X105641980Y-86014015D01*
X105641980Y-86014015D02*
X105594361Y-85918777D01*
X105594361Y-85918777D02*
X105546742Y-85871158D01*
X105546742Y-85871158D02*
X105451504Y-85823539D01*
X105451504Y-85823539D02*
X105261028Y-85823539D01*
X105261028Y-85823539D02*
X105165790Y-85871158D01*
X105165790Y-85871158D02*
X105118171Y-85918777D01*
X105118171Y-85918777D02*
X105070552Y-86014015D01*
X106022933Y-85537825D02*
X106070552Y-85490206D01*
X106070552Y-85490206D02*
X106165790Y-85442587D01*
X106165790Y-85442587D02*
X106403885Y-85442587D01*
X106403885Y-85442587D02*
X106499123Y-85490206D01*
X106499123Y-85490206D02*
X106546742Y-85537825D01*
X106546742Y-85537825D02*
X106594361Y-85633063D01*
X106594361Y-85633063D02*
X106594361Y-85728301D01*
X106594361Y-85728301D02*
X106546742Y-85871158D01*
X106546742Y-85871158D02*
X105975314Y-86442587D01*
X105975314Y-86442587D02*
X106594361Y-86442587D01*
X94356265Y-88004912D02*
X94451503Y-88052531D01*
X94451503Y-88052531D02*
X94641979Y-88052531D01*
X94641979Y-88052531D02*
X94737217Y-88004912D01*
X94737217Y-88004912D02*
X94784836Y-87909673D01*
X94784836Y-87909673D02*
X94784836Y-87862054D01*
X94784836Y-87862054D02*
X94737217Y-87766816D01*
X94737217Y-87766816D02*
X94641979Y-87719197D01*
X94641979Y-87719197D02*
X94499122Y-87719197D01*
X94499122Y-87719197D02*
X94403884Y-87671578D01*
X94403884Y-87671578D02*
X94356265Y-87576340D01*
X94356265Y-87576340D02*
X94356265Y-87528721D01*
X94356265Y-87528721D02*
X94403884Y-87433483D01*
X94403884Y-87433483D02*
X94499122Y-87385864D01*
X94499122Y-87385864D02*
X94641979Y-87385864D01*
X94641979Y-87385864D02*
X94737217Y-87433483D01*
X95213408Y-88052531D02*
X95213408Y-87385864D01*
X95213408Y-87052531D02*
X95165789Y-87100150D01*
X95165789Y-87100150D02*
X95213408Y-87147769D01*
X95213408Y-87147769D02*
X95261027Y-87100150D01*
X95261027Y-87100150D02*
X95213408Y-87052531D01*
X95213408Y-87052531D02*
X95213408Y-87147769D01*
X96118169Y-87385864D02*
X96118169Y-88195388D01*
X96118169Y-88195388D02*
X96070550Y-88290626D01*
X96070550Y-88290626D02*
X96022931Y-88338245D01*
X96022931Y-88338245D02*
X95927693Y-88385864D01*
X95927693Y-88385864D02*
X95784836Y-88385864D01*
X95784836Y-88385864D02*
X95689598Y-88338245D01*
X96118169Y-88004912D02*
X96022931Y-88052531D01*
X96022931Y-88052531D02*
X95832455Y-88052531D01*
X95832455Y-88052531D02*
X95737217Y-88004912D01*
X95737217Y-88004912D02*
X95689598Y-87957292D01*
X95689598Y-87957292D02*
X95641979Y-87862054D01*
X95641979Y-87862054D02*
X95641979Y-87576340D01*
X95641979Y-87576340D02*
X95689598Y-87481102D01*
X95689598Y-87481102D02*
X95737217Y-87433483D01*
X95737217Y-87433483D02*
X95832455Y-87385864D01*
X95832455Y-87385864D02*
X96022931Y-87385864D01*
X96022931Y-87385864D02*
X96118169Y-87433483D01*
X96594360Y-87385864D02*
X96594360Y-88052531D01*
X96594360Y-87481102D02*
X96641979Y-87433483D01*
X96641979Y-87433483D02*
X96737217Y-87385864D01*
X96737217Y-87385864D02*
X96880074Y-87385864D01*
X96880074Y-87385864D02*
X96975312Y-87433483D01*
X96975312Y-87433483D02*
X97022931Y-87528721D01*
X97022931Y-87528721D02*
X97022931Y-88052531D01*
X97927693Y-88052531D02*
X97927693Y-87528721D01*
X97927693Y-87528721D02*
X97880074Y-87433483D01*
X97880074Y-87433483D02*
X97784836Y-87385864D01*
X97784836Y-87385864D02*
X97594360Y-87385864D01*
X97594360Y-87385864D02*
X97499122Y-87433483D01*
X97927693Y-88004912D02*
X97832455Y-88052531D01*
X97832455Y-88052531D02*
X97594360Y-88052531D01*
X97594360Y-88052531D02*
X97499122Y-88004912D01*
X97499122Y-88004912D02*
X97451503Y-87909673D01*
X97451503Y-87909673D02*
X97451503Y-87814435D01*
X97451503Y-87814435D02*
X97499122Y-87719197D01*
X97499122Y-87719197D02*
X97594360Y-87671578D01*
X97594360Y-87671578D02*
X97832455Y-87671578D01*
X97832455Y-87671578D02*
X97927693Y-87623959D01*
X98546741Y-88052531D02*
X98451503Y-88004912D01*
X98451503Y-88004912D02*
X98403884Y-87909673D01*
X98403884Y-87909673D02*
X98403884Y-87052531D01*
X98927694Y-87957292D02*
X98975313Y-88004912D01*
X98975313Y-88004912D02*
X98927694Y-88052531D01*
X98927694Y-88052531D02*
X98880075Y-88004912D01*
X98880075Y-88004912D02*
X98927694Y-87957292D01*
X98927694Y-87957292D02*
X98927694Y-88052531D01*
X98927694Y-87433483D02*
X98975313Y-87481102D01*
X98975313Y-87481102D02*
X98927694Y-87528721D01*
X98927694Y-87528721D02*
X98880075Y-87481102D01*
X98880075Y-87481102D02*
X98927694Y-87433483D01*
X98927694Y-87433483D02*
X98927694Y-87528721D01*
X100165789Y-88052531D02*
X100165789Y-87052531D01*
X100165789Y-87433483D02*
X100261027Y-87385864D01*
X100261027Y-87385864D02*
X100451503Y-87385864D01*
X100451503Y-87385864D02*
X100546741Y-87433483D01*
X100546741Y-87433483D02*
X100594360Y-87481102D01*
X100594360Y-87481102D02*
X100641979Y-87576340D01*
X100641979Y-87576340D02*
X100641979Y-87862054D01*
X100641979Y-87862054D02*
X100594360Y-87957292D01*
X100594360Y-87957292D02*
X100546741Y-88004912D01*
X100546741Y-88004912D02*
X100451503Y-88052531D01*
X100451503Y-88052531D02*
X100261027Y-88052531D01*
X100261027Y-88052531D02*
X100165789Y-88004912D01*
X101451503Y-88004912D02*
X101356265Y-88052531D01*
X101356265Y-88052531D02*
X101165789Y-88052531D01*
X101165789Y-88052531D02*
X101070551Y-88004912D01*
X101070551Y-88004912D02*
X101022932Y-87909673D01*
X101022932Y-87909673D02*
X101022932Y-87528721D01*
X101022932Y-87528721D02*
X101070551Y-87433483D01*
X101070551Y-87433483D02*
X101165789Y-87385864D01*
X101165789Y-87385864D02*
X101356265Y-87385864D01*
X101356265Y-87385864D02*
X101451503Y-87433483D01*
X101451503Y-87433483D02*
X101499122Y-87528721D01*
X101499122Y-87528721D02*
X101499122Y-87623959D01*
X101499122Y-87623959D02*
X101022932Y-87719197D01*
X101927694Y-87385864D02*
X101927694Y-88052531D01*
X101927694Y-87481102D02*
X101975313Y-87433483D01*
X101975313Y-87433483D02*
X102070551Y-87385864D01*
X102070551Y-87385864D02*
X102213408Y-87385864D01*
X102213408Y-87385864D02*
X102308646Y-87433483D01*
X102308646Y-87433483D02*
X102356265Y-87528721D01*
X102356265Y-87528721D02*
X102356265Y-88052531D01*
X102832456Y-87385864D02*
X102832456Y-88243007D01*
X102832456Y-88243007D02*
X102784837Y-88338245D01*
X102784837Y-88338245D02*
X102689599Y-88385864D01*
X102689599Y-88385864D02*
X102641980Y-88385864D01*
X102832456Y-87052531D02*
X102784837Y-87100150D01*
X102784837Y-87100150D02*
X102832456Y-87147769D01*
X102832456Y-87147769D02*
X102880075Y-87100150D01*
X102880075Y-87100150D02*
X102832456Y-87052531D01*
X102832456Y-87052531D02*
X102832456Y-87147769D01*
X103737217Y-88052531D02*
X103737217Y-87528721D01*
X103737217Y-87528721D02*
X103689598Y-87433483D01*
X103689598Y-87433483D02*
X103594360Y-87385864D01*
X103594360Y-87385864D02*
X103403884Y-87385864D01*
X103403884Y-87385864D02*
X103308646Y-87433483D01*
X103737217Y-88004912D02*
X103641979Y-88052531D01*
X103641979Y-88052531D02*
X103403884Y-88052531D01*
X103403884Y-88052531D02*
X103308646Y-88004912D01*
X103308646Y-88004912D02*
X103261027Y-87909673D01*
X103261027Y-87909673D02*
X103261027Y-87814435D01*
X103261027Y-87814435D02*
X103308646Y-87719197D01*
X103308646Y-87719197D02*
X103403884Y-87671578D01*
X103403884Y-87671578D02*
X103641979Y-87671578D01*
X103641979Y-87671578D02*
X103737217Y-87623959D01*
X104213408Y-88052531D02*
X104213408Y-87385864D01*
X104213408Y-87481102D02*
X104261027Y-87433483D01*
X104261027Y-87433483D02*
X104356265Y-87385864D01*
X104356265Y-87385864D02*
X104499122Y-87385864D01*
X104499122Y-87385864D02*
X104594360Y-87433483D01*
X104594360Y-87433483D02*
X104641979Y-87528721D01*
X104641979Y-87528721D02*
X104641979Y-88052531D01*
X104641979Y-87528721D02*
X104689598Y-87433483D01*
X104689598Y-87433483D02*
X104784836Y-87385864D01*
X104784836Y-87385864D02*
X104927693Y-87385864D01*
X104927693Y-87385864D02*
X105022932Y-87433483D01*
X105022932Y-87433483D02*
X105070551Y-87528721D01*
X105070551Y-87528721D02*
X105070551Y-88052531D01*
X105546741Y-88052531D02*
X105546741Y-87385864D01*
X105546741Y-87052531D02*
X105499122Y-87100150D01*
X105499122Y-87100150D02*
X105546741Y-87147769D01*
X105546741Y-87147769D02*
X105594360Y-87100150D01*
X105594360Y-87100150D02*
X105546741Y-87052531D01*
X105546741Y-87052531D02*
X105546741Y-87147769D01*
X106022931Y-87385864D02*
X106022931Y-88052531D01*
X106022931Y-87481102D02*
X106070550Y-87433483D01*
X106070550Y-87433483D02*
X106165788Y-87385864D01*
X106165788Y-87385864D02*
X106308645Y-87385864D01*
X106308645Y-87385864D02*
X106403883Y-87433483D01*
X106403883Y-87433483D02*
X106451502Y-87528721D01*
X106451502Y-87528721D02*
X106451502Y-88052531D01*
X106927693Y-87957292D02*
X106975312Y-88004912D01*
X106975312Y-88004912D02*
X106927693Y-88052531D01*
X106927693Y-88052531D02*
X106880074Y-88004912D01*
X106880074Y-88004912D02*
X106927693Y-87957292D01*
X106927693Y-87957292D02*
X106927693Y-88052531D01*
X107832454Y-87385864D02*
X107832454Y-88052531D01*
X107594359Y-87004912D02*
X107356264Y-87719197D01*
X107356264Y-87719197D02*
X107975311Y-87719197D01*
X108403883Y-88052531D02*
X108594359Y-88052531D01*
X108594359Y-88052531D02*
X108689597Y-88004912D01*
X108689597Y-88004912D02*
X108737216Y-87957292D01*
X108737216Y-87957292D02*
X108832454Y-87814435D01*
X108832454Y-87814435D02*
X108880073Y-87623959D01*
X108880073Y-87623959D02*
X108880073Y-87243007D01*
X108880073Y-87243007D02*
X108832454Y-87147769D01*
X108832454Y-87147769D02*
X108784835Y-87100150D01*
X108784835Y-87100150D02*
X108689597Y-87052531D01*
X108689597Y-87052531D02*
X108499121Y-87052531D01*
X108499121Y-87052531D02*
X108403883Y-87100150D01*
X108403883Y-87100150D02*
X108356264Y-87147769D01*
X108356264Y-87147769D02*
X108308645Y-87243007D01*
X108308645Y-87243007D02*
X108308645Y-87481102D01*
X108308645Y-87481102D02*
X108356264Y-87576340D01*
X108356264Y-87576340D02*
X108403883Y-87623959D01*
X108403883Y-87623959D02*
X108499121Y-87671578D01*
X108499121Y-87671578D02*
X108689597Y-87671578D01*
X108689597Y-87671578D02*
X108784835Y-87623959D01*
X108784835Y-87623959D02*
X108832454Y-87576340D01*
X108832454Y-87576340D02*
X108880073Y-87481102D01*
X109261026Y-87147769D02*
X109308645Y-87100150D01*
X109308645Y-87100150D02*
X109403883Y-87052531D01*
X109403883Y-87052531D02*
X109641978Y-87052531D01*
X109641978Y-87052531D02*
X109737216Y-87100150D01*
X109737216Y-87100150D02*
X109784835Y-87147769D01*
X109784835Y-87147769D02*
X109832454Y-87243007D01*
X109832454Y-87243007D02*
X109832454Y-87338245D01*
X109832454Y-87338245D02*
X109784835Y-87481102D01*
X109784835Y-87481102D02*
X109213407Y-88052531D01*
X109213407Y-88052531D02*
X109832454Y-88052531D01*
X94308646Y-88995808D02*
X94499122Y-89662475D01*
X94499122Y-89662475D02*
X94689598Y-89186284D01*
X94689598Y-89186284D02*
X94880074Y-89662475D01*
X94880074Y-89662475D02*
X95070550Y-88995808D01*
X95832455Y-89614856D02*
X95737217Y-89662475D01*
X95737217Y-89662475D02*
X95546741Y-89662475D01*
X95546741Y-89662475D02*
X95451503Y-89614856D01*
X95451503Y-89614856D02*
X95403884Y-89519617D01*
X95403884Y-89519617D02*
X95403884Y-89138665D01*
X95403884Y-89138665D02*
X95451503Y-89043427D01*
X95451503Y-89043427D02*
X95546741Y-88995808D01*
X95546741Y-88995808D02*
X95737217Y-88995808D01*
X95737217Y-88995808D02*
X95832455Y-89043427D01*
X95832455Y-89043427D02*
X95880074Y-89138665D01*
X95880074Y-89138665D02*
X95880074Y-89233903D01*
X95880074Y-89233903D02*
X95403884Y-89329141D01*
X96308646Y-89662475D02*
X96308646Y-88662475D01*
X96308646Y-89043427D02*
X96403884Y-88995808D01*
X96403884Y-88995808D02*
X96594360Y-88995808D01*
X96594360Y-88995808D02*
X96689598Y-89043427D01*
X96689598Y-89043427D02*
X96737217Y-89091046D01*
X96737217Y-89091046D02*
X96784836Y-89186284D01*
X96784836Y-89186284D02*
X96784836Y-89471998D01*
X96784836Y-89471998D02*
X96737217Y-89567236D01*
X96737217Y-89567236D02*
X96689598Y-89614856D01*
X96689598Y-89614856D02*
X96594360Y-89662475D01*
X96594360Y-89662475D02*
X96403884Y-89662475D01*
X96403884Y-89662475D02*
X96308646Y-89614856D01*
X97213408Y-89567236D02*
X97261027Y-89614856D01*
X97261027Y-89614856D02*
X97213408Y-89662475D01*
X97213408Y-89662475D02*
X97165789Y-89614856D01*
X97165789Y-89614856D02*
X97213408Y-89567236D01*
X97213408Y-89567236D02*
X97213408Y-89662475D01*
X97213408Y-89043427D02*
X97261027Y-89091046D01*
X97261027Y-89091046D02*
X97213408Y-89138665D01*
X97213408Y-89138665D02*
X97165789Y-89091046D01*
X97165789Y-89091046D02*
X97213408Y-89043427D01*
X97213408Y-89043427D02*
X97213408Y-89138665D01*
X98451503Y-89662475D02*
X98451503Y-88662475D01*
X98880074Y-89662475D02*
X98880074Y-89138665D01*
X98880074Y-89138665D02*
X98832455Y-89043427D01*
X98832455Y-89043427D02*
X98737217Y-88995808D01*
X98737217Y-88995808D02*
X98594360Y-88995808D01*
X98594360Y-88995808D02*
X98499122Y-89043427D01*
X98499122Y-89043427D02*
X98451503Y-89091046D01*
X99213408Y-88995808D02*
X99594360Y-88995808D01*
X99356265Y-88662475D02*
X99356265Y-89519617D01*
X99356265Y-89519617D02*
X99403884Y-89614856D01*
X99403884Y-89614856D02*
X99499122Y-89662475D01*
X99499122Y-89662475D02*
X99594360Y-89662475D01*
X99784837Y-88995808D02*
X100165789Y-88995808D01*
X99927694Y-88662475D02*
X99927694Y-89519617D01*
X99927694Y-89519617D02*
X99975313Y-89614856D01*
X99975313Y-89614856D02*
X100070551Y-89662475D01*
X100070551Y-89662475D02*
X100165789Y-89662475D01*
X100499123Y-88995808D02*
X100499123Y-89995808D01*
X100499123Y-89043427D02*
X100594361Y-88995808D01*
X100594361Y-88995808D02*
X100784837Y-88995808D01*
X100784837Y-88995808D02*
X100880075Y-89043427D01*
X100880075Y-89043427D02*
X100927694Y-89091046D01*
X100927694Y-89091046D02*
X100975313Y-89186284D01*
X100975313Y-89186284D02*
X100975313Y-89471998D01*
X100975313Y-89471998D02*
X100927694Y-89567236D01*
X100927694Y-89567236D02*
X100880075Y-89614856D01*
X100880075Y-89614856D02*
X100784837Y-89662475D01*
X100784837Y-89662475D02*
X100594361Y-89662475D01*
X100594361Y-89662475D02*
X100499123Y-89614856D01*
X101356266Y-89614856D02*
X101451504Y-89662475D01*
X101451504Y-89662475D02*
X101641980Y-89662475D01*
X101641980Y-89662475D02*
X101737218Y-89614856D01*
X101737218Y-89614856D02*
X101784837Y-89519617D01*
X101784837Y-89519617D02*
X101784837Y-89471998D01*
X101784837Y-89471998D02*
X101737218Y-89376760D01*
X101737218Y-89376760D02*
X101641980Y-89329141D01*
X101641980Y-89329141D02*
X101499123Y-89329141D01*
X101499123Y-89329141D02*
X101403885Y-89281522D01*
X101403885Y-89281522D02*
X101356266Y-89186284D01*
X101356266Y-89186284D02*
X101356266Y-89138665D01*
X101356266Y-89138665D02*
X101403885Y-89043427D01*
X101403885Y-89043427D02*
X101499123Y-88995808D01*
X101499123Y-88995808D02*
X101641980Y-88995808D01*
X101641980Y-88995808D02*
X101737218Y-89043427D01*
X102213409Y-89567236D02*
X102261028Y-89614856D01*
X102261028Y-89614856D02*
X102213409Y-89662475D01*
X102213409Y-89662475D02*
X102165790Y-89614856D01*
X102165790Y-89614856D02*
X102213409Y-89567236D01*
X102213409Y-89567236D02*
X102213409Y-89662475D01*
X102213409Y-89043427D02*
X102261028Y-89091046D01*
X102261028Y-89091046D02*
X102213409Y-89138665D01*
X102213409Y-89138665D02*
X102165790Y-89091046D01*
X102165790Y-89091046D02*
X102213409Y-89043427D01*
X102213409Y-89043427D02*
X102213409Y-89138665D01*
X103403884Y-88614856D02*
X102546742Y-89900570D01*
X104451503Y-88614856D02*
X103594361Y-89900570D01*
X104975313Y-88662475D02*
X105070551Y-88662475D01*
X105070551Y-88662475D02*
X105165789Y-88710094D01*
X105165789Y-88710094D02*
X105213408Y-88757713D01*
X105213408Y-88757713D02*
X105261027Y-88852951D01*
X105261027Y-88852951D02*
X105308646Y-89043427D01*
X105308646Y-89043427D02*
X105308646Y-89281522D01*
X105308646Y-89281522D02*
X105261027Y-89471998D01*
X105261027Y-89471998D02*
X105213408Y-89567236D01*
X105213408Y-89567236D02*
X105165789Y-89614856D01*
X105165789Y-89614856D02*
X105070551Y-89662475D01*
X105070551Y-89662475D02*
X104975313Y-89662475D01*
X104975313Y-89662475D02*
X104880075Y-89614856D01*
X104880075Y-89614856D02*
X104832456Y-89567236D01*
X104832456Y-89567236D02*
X104784837Y-89471998D01*
X104784837Y-89471998D02*
X104737218Y-89281522D01*
X104737218Y-89281522D02*
X104737218Y-89043427D01*
X104737218Y-89043427D02*
X104784837Y-88852951D01*
X104784837Y-88852951D02*
X104832456Y-88757713D01*
X104832456Y-88757713D02*
X104880075Y-88710094D01*
X104880075Y-88710094D02*
X104975313Y-88662475D01*
X105641980Y-89662475D02*
X106165789Y-88995808D01*
X105641980Y-88995808D02*
X106165789Y-89662475D01*
X106975313Y-88662475D02*
X106784837Y-88662475D01*
X106784837Y-88662475D02*
X106689599Y-88710094D01*
X106689599Y-88710094D02*
X106641980Y-88757713D01*
X106641980Y-88757713D02*
X106546742Y-88900570D01*
X106546742Y-88900570D02*
X106499123Y-89091046D01*
X106499123Y-89091046D02*
X106499123Y-89471998D01*
X106499123Y-89471998D02*
X106546742Y-89567236D01*
X106546742Y-89567236D02*
X106594361Y-89614856D01*
X106594361Y-89614856D02*
X106689599Y-89662475D01*
X106689599Y-89662475D02*
X106880075Y-89662475D01*
X106880075Y-89662475D02*
X106975313Y-89614856D01*
X106975313Y-89614856D02*
X107022932Y-89567236D01*
X107022932Y-89567236D02*
X107070551Y-89471998D01*
X107070551Y-89471998D02*
X107070551Y-89233903D01*
X107070551Y-89233903D02*
X107022932Y-89138665D01*
X107022932Y-89138665D02*
X106975313Y-89091046D01*
X106975313Y-89091046D02*
X106880075Y-89043427D01*
X106880075Y-89043427D02*
X106689599Y-89043427D01*
X106689599Y-89043427D02*
X106594361Y-89091046D01*
X106594361Y-89091046D02*
X106546742Y-89138665D01*
X106546742Y-89138665D02*
X106499123Y-89233903D01*
X107451504Y-88757713D02*
X107499123Y-88710094D01*
X107499123Y-88710094D02*
X107594361Y-88662475D01*
X107594361Y-88662475D02*
X107832456Y-88662475D01*
X107832456Y-88662475D02*
X107927694Y-88710094D01*
X107927694Y-88710094D02*
X107975313Y-88757713D01*
X107975313Y-88757713D02*
X108022932Y-88852951D01*
X108022932Y-88852951D02*
X108022932Y-88948189D01*
X108022932Y-88948189D02*
X107975313Y-89091046D01*
X107975313Y-89091046D02*
X107403885Y-89662475D01*
X107403885Y-89662475D02*
X108022932Y-89662475D01*
X108451504Y-89567236D02*
X108499123Y-89614856D01*
X108499123Y-89614856D02*
X108451504Y-89662475D01*
X108451504Y-89662475D02*
X108403885Y-89614856D01*
X108403885Y-89614856D02*
X108451504Y-89567236D01*
X108451504Y-89567236D02*
X108451504Y-89662475D01*
X109356265Y-89662475D02*
X109356265Y-88662475D01*
X109356265Y-89614856D02*
X109261027Y-89662475D01*
X109261027Y-89662475D02*
X109070551Y-89662475D01*
X109070551Y-89662475D02*
X108975313Y-89614856D01*
X108975313Y-89614856D02*
X108927694Y-89567236D01*
X108927694Y-89567236D02*
X108880075Y-89471998D01*
X108880075Y-89471998D02*
X108880075Y-89186284D01*
X108880075Y-89186284D02*
X108927694Y-89091046D01*
X108927694Y-89091046D02*
X108975313Y-89043427D01*
X108975313Y-89043427D02*
X109070551Y-88995808D01*
X109070551Y-88995808D02*
X109261027Y-88995808D01*
X109261027Y-88995808D02*
X109356265Y-89043427D01*
X110213408Y-89614856D02*
X110118170Y-89662475D01*
X110118170Y-89662475D02*
X109927694Y-89662475D01*
X109927694Y-89662475D02*
X109832456Y-89614856D01*
X109832456Y-89614856D02*
X109784837Y-89519617D01*
X109784837Y-89519617D02*
X109784837Y-89138665D01*
X109784837Y-89138665D02*
X109832456Y-89043427D01*
X109832456Y-89043427D02*
X109927694Y-88995808D01*
X109927694Y-88995808D02*
X110118170Y-88995808D01*
X110118170Y-88995808D02*
X110213408Y-89043427D01*
X110213408Y-89043427D02*
X110261027Y-89138665D01*
X110261027Y-89138665D02*
X110261027Y-89233903D01*
X110261027Y-89233903D02*
X109784837Y-89329141D01*
X110594361Y-88995808D02*
X110832456Y-89662475D01*
X110832456Y-89662475D02*
X111070551Y-88995808D01*
X94403884Y-91272419D02*
X94403884Y-90605752D01*
X94403884Y-90700990D02*
X94451503Y-90653371D01*
X94451503Y-90653371D02*
X94546741Y-90605752D01*
X94546741Y-90605752D02*
X94689598Y-90605752D01*
X94689598Y-90605752D02*
X94784836Y-90653371D01*
X94784836Y-90653371D02*
X94832455Y-90748609D01*
X94832455Y-90748609D02*
X94832455Y-91272419D01*
X94832455Y-90748609D02*
X94880074Y-90653371D01*
X94880074Y-90653371D02*
X94975312Y-90605752D01*
X94975312Y-90605752D02*
X95118169Y-90605752D01*
X95118169Y-90605752D02*
X95213408Y-90653371D01*
X95213408Y-90653371D02*
X95261027Y-90748609D01*
X95261027Y-90748609D02*
X95261027Y-91272419D01*
X96165788Y-91272419D02*
X96165788Y-90748609D01*
X96165788Y-90748609D02*
X96118169Y-90653371D01*
X96118169Y-90653371D02*
X96022931Y-90605752D01*
X96022931Y-90605752D02*
X95832455Y-90605752D01*
X95832455Y-90605752D02*
X95737217Y-90653371D01*
X96165788Y-91224800D02*
X96070550Y-91272419D01*
X96070550Y-91272419D02*
X95832455Y-91272419D01*
X95832455Y-91272419D02*
X95737217Y-91224800D01*
X95737217Y-91224800D02*
X95689598Y-91129561D01*
X95689598Y-91129561D02*
X95689598Y-91034323D01*
X95689598Y-91034323D02*
X95737217Y-90939085D01*
X95737217Y-90939085D02*
X95832455Y-90891466D01*
X95832455Y-90891466D02*
X96070550Y-90891466D01*
X96070550Y-90891466D02*
X96165788Y-90843847D01*
X96641979Y-91272419D02*
X96641979Y-90605752D01*
X96641979Y-90272419D02*
X96594360Y-90320038D01*
X96594360Y-90320038D02*
X96641979Y-90367657D01*
X96641979Y-90367657D02*
X96689598Y-90320038D01*
X96689598Y-90320038D02*
X96641979Y-90272419D01*
X96641979Y-90272419D02*
X96641979Y-90367657D01*
X97261026Y-91272419D02*
X97165788Y-91224800D01*
X97165788Y-91224800D02*
X97118169Y-91129561D01*
X97118169Y-91129561D02*
X97118169Y-90272419D01*
X97641979Y-91177180D02*
X97689598Y-91224800D01*
X97689598Y-91224800D02*
X97641979Y-91272419D01*
X97641979Y-91272419D02*
X97594360Y-91224800D01*
X97594360Y-91224800D02*
X97641979Y-91177180D01*
X97641979Y-91177180D02*
X97641979Y-91272419D01*
X97641979Y-90653371D02*
X97689598Y-90700990D01*
X97689598Y-90700990D02*
X97641979Y-90748609D01*
X97641979Y-90748609D02*
X97594360Y-90700990D01*
X97594360Y-90700990D02*
X97641979Y-90653371D01*
X97641979Y-90653371D02*
X97641979Y-90748609D01*
X98880074Y-91272419D02*
X98880074Y-90272419D01*
X98880074Y-90653371D02*
X98975312Y-90605752D01*
X98975312Y-90605752D02*
X99165788Y-90605752D01*
X99165788Y-90605752D02*
X99261026Y-90653371D01*
X99261026Y-90653371D02*
X99308645Y-90700990D01*
X99308645Y-90700990D02*
X99356264Y-90796228D01*
X99356264Y-90796228D02*
X99356264Y-91081942D01*
X99356264Y-91081942D02*
X99308645Y-91177180D01*
X99308645Y-91177180D02*
X99261026Y-91224800D01*
X99261026Y-91224800D02*
X99165788Y-91272419D01*
X99165788Y-91272419D02*
X98975312Y-91272419D01*
X98975312Y-91272419D02*
X98880074Y-91224800D01*
X100165788Y-91224800D02*
X100070550Y-91272419D01*
X100070550Y-91272419D02*
X99880074Y-91272419D01*
X99880074Y-91272419D02*
X99784836Y-91224800D01*
X99784836Y-91224800D02*
X99737217Y-91129561D01*
X99737217Y-91129561D02*
X99737217Y-90748609D01*
X99737217Y-90748609D02*
X99784836Y-90653371D01*
X99784836Y-90653371D02*
X99880074Y-90605752D01*
X99880074Y-90605752D02*
X100070550Y-90605752D01*
X100070550Y-90605752D02*
X100165788Y-90653371D01*
X100165788Y-90653371D02*
X100213407Y-90748609D01*
X100213407Y-90748609D02*
X100213407Y-90843847D01*
X100213407Y-90843847D02*
X99737217Y-90939085D01*
X100641979Y-90605752D02*
X100641979Y-91272419D01*
X100641979Y-90700990D02*
X100689598Y-90653371D01*
X100689598Y-90653371D02*
X100784836Y-90605752D01*
X100784836Y-90605752D02*
X100927693Y-90605752D01*
X100927693Y-90605752D02*
X101022931Y-90653371D01*
X101022931Y-90653371D02*
X101070550Y-90748609D01*
X101070550Y-90748609D02*
X101070550Y-91272419D01*
X101546741Y-90605752D02*
X101546741Y-91462895D01*
X101546741Y-91462895D02*
X101499122Y-91558133D01*
X101499122Y-91558133D02*
X101403884Y-91605752D01*
X101403884Y-91605752D02*
X101356265Y-91605752D01*
X101546741Y-90272419D02*
X101499122Y-90320038D01*
X101499122Y-90320038D02*
X101546741Y-90367657D01*
X101546741Y-90367657D02*
X101594360Y-90320038D01*
X101594360Y-90320038D02*
X101546741Y-90272419D01*
X101546741Y-90272419D02*
X101546741Y-90367657D01*
X102451502Y-91272419D02*
X102451502Y-90748609D01*
X102451502Y-90748609D02*
X102403883Y-90653371D01*
X102403883Y-90653371D02*
X102308645Y-90605752D01*
X102308645Y-90605752D02*
X102118169Y-90605752D01*
X102118169Y-90605752D02*
X102022931Y-90653371D01*
X102451502Y-91224800D02*
X102356264Y-91272419D01*
X102356264Y-91272419D02*
X102118169Y-91272419D01*
X102118169Y-91272419D02*
X102022931Y-91224800D01*
X102022931Y-91224800D02*
X101975312Y-91129561D01*
X101975312Y-91129561D02*
X101975312Y-91034323D01*
X101975312Y-91034323D02*
X102022931Y-90939085D01*
X102022931Y-90939085D02*
X102118169Y-90891466D01*
X102118169Y-90891466D02*
X102356264Y-90891466D01*
X102356264Y-90891466D02*
X102451502Y-90843847D01*
X102927693Y-91272419D02*
X102927693Y-90605752D01*
X102927693Y-90700990D02*
X102975312Y-90653371D01*
X102975312Y-90653371D02*
X103070550Y-90605752D01*
X103070550Y-90605752D02*
X103213407Y-90605752D01*
X103213407Y-90605752D02*
X103308645Y-90653371D01*
X103308645Y-90653371D02*
X103356264Y-90748609D01*
X103356264Y-90748609D02*
X103356264Y-91272419D01*
X103356264Y-90748609D02*
X103403883Y-90653371D01*
X103403883Y-90653371D02*
X103499121Y-90605752D01*
X103499121Y-90605752D02*
X103641978Y-90605752D01*
X103641978Y-90605752D02*
X103737217Y-90653371D01*
X103737217Y-90653371D02*
X103784836Y-90748609D01*
X103784836Y-90748609D02*
X103784836Y-91272419D01*
X104261026Y-91272419D02*
X104261026Y-90605752D01*
X104261026Y-90272419D02*
X104213407Y-90320038D01*
X104213407Y-90320038D02*
X104261026Y-90367657D01*
X104261026Y-90367657D02*
X104308645Y-90320038D01*
X104308645Y-90320038D02*
X104261026Y-90272419D01*
X104261026Y-90272419D02*
X104261026Y-90367657D01*
X104737216Y-90605752D02*
X104737216Y-91272419D01*
X104737216Y-90700990D02*
X104784835Y-90653371D01*
X104784835Y-90653371D02*
X104880073Y-90605752D01*
X104880073Y-90605752D02*
X105022930Y-90605752D01*
X105022930Y-90605752D02*
X105118168Y-90653371D01*
X105118168Y-90653371D02*
X105165787Y-90748609D01*
X105165787Y-90748609D02*
X105165787Y-91272419D01*
X106261025Y-90796228D02*
X106213406Y-90748609D01*
X106213406Y-90748609D02*
X106118168Y-90700990D01*
X106118168Y-90700990D02*
X106022930Y-90700990D01*
X106022930Y-90700990D02*
X105927692Y-90748609D01*
X105927692Y-90748609D02*
X105880073Y-90796228D01*
X105880073Y-90796228D02*
X105832454Y-90891466D01*
X105832454Y-90891466D02*
X105832454Y-90986704D01*
X105832454Y-90986704D02*
X105880073Y-91081942D01*
X105880073Y-91081942D02*
X105927692Y-91129561D01*
X105927692Y-91129561D02*
X106022930Y-91177180D01*
X106022930Y-91177180D02*
X106118168Y-91177180D01*
X106118168Y-91177180D02*
X106213406Y-91129561D01*
X106213406Y-91129561D02*
X106261025Y-91081942D01*
X106261025Y-90700990D02*
X106261025Y-91081942D01*
X106261025Y-91081942D02*
X106308644Y-91129561D01*
X106308644Y-91129561D02*
X106356263Y-91129561D01*
X106356263Y-91129561D02*
X106451502Y-91081942D01*
X106451502Y-91081942D02*
X106499121Y-90986704D01*
X106499121Y-90986704D02*
X106499121Y-90748609D01*
X106499121Y-90748609D02*
X106403883Y-90605752D01*
X106403883Y-90605752D02*
X106261025Y-90510514D01*
X106261025Y-90510514D02*
X106070549Y-90462895D01*
X106070549Y-90462895D02*
X105880073Y-90510514D01*
X105880073Y-90510514D02*
X105737216Y-90605752D01*
X105737216Y-90605752D02*
X105641978Y-90748609D01*
X105641978Y-90748609D02*
X105594359Y-90939085D01*
X105594359Y-90939085D02*
X105641978Y-91129561D01*
X105641978Y-91129561D02*
X105737216Y-91272419D01*
X105737216Y-91272419D02*
X105880073Y-91367657D01*
X105880073Y-91367657D02*
X106070549Y-91415276D01*
X106070549Y-91415276D02*
X106261025Y-91367657D01*
X106261025Y-91367657D02*
X106403883Y-91272419D01*
X107118168Y-90272419D02*
X107213406Y-90272419D01*
X107213406Y-90272419D02*
X107308644Y-90320038D01*
X107308644Y-90320038D02*
X107356263Y-90367657D01*
X107356263Y-90367657D02*
X107403882Y-90462895D01*
X107403882Y-90462895D02*
X107451501Y-90653371D01*
X107451501Y-90653371D02*
X107451501Y-90891466D01*
X107451501Y-90891466D02*
X107403882Y-91081942D01*
X107403882Y-91081942D02*
X107356263Y-91177180D01*
X107356263Y-91177180D02*
X107308644Y-91224800D01*
X107308644Y-91224800D02*
X107213406Y-91272419D01*
X107213406Y-91272419D02*
X107118168Y-91272419D01*
X107118168Y-91272419D02*
X107022930Y-91224800D01*
X107022930Y-91224800D02*
X106975311Y-91177180D01*
X106975311Y-91177180D02*
X106927692Y-91081942D01*
X106927692Y-91081942D02*
X106880073Y-90891466D01*
X106880073Y-90891466D02*
X106880073Y-90653371D01*
X106880073Y-90653371D02*
X106927692Y-90462895D01*
X106927692Y-90462895D02*
X106975311Y-90367657D01*
X106975311Y-90367657D02*
X107022930Y-90320038D01*
X107022930Y-90320038D02*
X107118168Y-90272419D01*
X107784835Y-91272419D02*
X108308644Y-90605752D01*
X107784835Y-90605752D02*
X108308644Y-91272419D01*
X109118168Y-90272419D02*
X108927692Y-90272419D01*
X108927692Y-90272419D02*
X108832454Y-90320038D01*
X108832454Y-90320038D02*
X108784835Y-90367657D01*
X108784835Y-90367657D02*
X108689597Y-90510514D01*
X108689597Y-90510514D02*
X108641978Y-90700990D01*
X108641978Y-90700990D02*
X108641978Y-91081942D01*
X108641978Y-91081942D02*
X108689597Y-91177180D01*
X108689597Y-91177180D02*
X108737216Y-91224800D01*
X108737216Y-91224800D02*
X108832454Y-91272419D01*
X108832454Y-91272419D02*
X109022930Y-91272419D01*
X109022930Y-91272419D02*
X109118168Y-91224800D01*
X109118168Y-91224800D02*
X109165787Y-91177180D01*
X109165787Y-91177180D02*
X109213406Y-91081942D01*
X109213406Y-91081942D02*
X109213406Y-90843847D01*
X109213406Y-90843847D02*
X109165787Y-90748609D01*
X109165787Y-90748609D02*
X109118168Y-90700990D01*
X109118168Y-90700990D02*
X109022930Y-90653371D01*
X109022930Y-90653371D02*
X108832454Y-90653371D01*
X108832454Y-90653371D02*
X108737216Y-90700990D01*
X108737216Y-90700990D02*
X108689597Y-90748609D01*
X108689597Y-90748609D02*
X108641978Y-90843847D01*
X109594359Y-90367657D02*
X109641978Y-90320038D01*
X109641978Y-90320038D02*
X109737216Y-90272419D01*
X109737216Y-90272419D02*
X109975311Y-90272419D01*
X109975311Y-90272419D02*
X110070549Y-90320038D01*
X110070549Y-90320038D02*
X110118168Y-90367657D01*
X110118168Y-90367657D02*
X110165787Y-90462895D01*
X110165787Y-90462895D02*
X110165787Y-90558133D01*
X110165787Y-90558133D02*
X110118168Y-90700990D01*
X110118168Y-90700990D02*
X109546740Y-91272419D01*
X109546740Y-91272419D02*
X110165787Y-91272419D01*
X110594359Y-91177180D02*
X110641978Y-91224800D01*
X110641978Y-91224800D02*
X110594359Y-91272419D01*
X110594359Y-91272419D02*
X110546740Y-91224800D01*
X110546740Y-91224800D02*
X110594359Y-91177180D01*
X110594359Y-91177180D02*
X110594359Y-91272419D01*
X111499120Y-91272419D02*
X111499120Y-90272419D01*
X111499120Y-91224800D02*
X111403882Y-91272419D01*
X111403882Y-91272419D02*
X111213406Y-91272419D01*
X111213406Y-91272419D02*
X111118168Y-91224800D01*
X111118168Y-91224800D02*
X111070549Y-91177180D01*
X111070549Y-91177180D02*
X111022930Y-91081942D01*
X111022930Y-91081942D02*
X111022930Y-90796228D01*
X111022930Y-90796228D02*
X111070549Y-90700990D01*
X111070549Y-90700990D02*
X111118168Y-90653371D01*
X111118168Y-90653371D02*
X111213406Y-90605752D01*
X111213406Y-90605752D02*
X111403882Y-90605752D01*
X111403882Y-90605752D02*
X111499120Y-90653371D01*
X112356263Y-91224800D02*
X112261025Y-91272419D01*
X112261025Y-91272419D02*
X112070549Y-91272419D01*
X112070549Y-91272419D02*
X111975311Y-91224800D01*
X111975311Y-91224800D02*
X111927692Y-91129561D01*
X111927692Y-91129561D02*
X111927692Y-90748609D01*
X111927692Y-90748609D02*
X111975311Y-90653371D01*
X111975311Y-90653371D02*
X112070549Y-90605752D01*
X112070549Y-90605752D02*
X112261025Y-90605752D01*
X112261025Y-90605752D02*
X112356263Y-90653371D01*
X112356263Y-90653371D02*
X112403882Y-90748609D01*
X112403882Y-90748609D02*
X112403882Y-90843847D01*
X112403882Y-90843847D02*
X111927692Y-90939085D01*
X112737216Y-90605752D02*
X112975311Y-91272419D01*
X112975311Y-91272419D02*
X113213406Y-90605752D01*
D11*
X99184819Y-53438094D02*
X98184819Y-53438094D01*
X98184819Y-53438094D02*
X98184819Y-53199999D01*
X98184819Y-53199999D02*
X98232438Y-53057142D01*
X98232438Y-53057142D02*
X98327676Y-52961904D01*
X98327676Y-52961904D02*
X98422914Y-52914285D01*
X98422914Y-52914285D02*
X98613390Y-52866666D01*
X98613390Y-52866666D02*
X98756247Y-52866666D01*
X98756247Y-52866666D02*
X98946723Y-52914285D01*
X98946723Y-52914285D02*
X99041961Y-52961904D01*
X99041961Y-52961904D02*
X99137200Y-53057142D01*
X99137200Y-53057142D02*
X99184819Y-53199999D01*
X99184819Y-53199999D02*
X99184819Y-53438094D01*
X99184819Y-51914285D02*
X99184819Y-52485713D01*
X99184819Y-52199999D02*
X98184819Y-52199999D01*
X98184819Y-52199999D02*
X98327676Y-52295237D01*
X98327676Y-52295237D02*
X98422914Y-52390475D01*
X98422914Y-52390475D02*
X98470533Y-52485713D01*
X86638095Y-70554819D02*
X86638095Y-71364342D01*
X86638095Y-71364342D02*
X86685714Y-71459580D01*
X86685714Y-71459580D02*
X86733333Y-71507200D01*
X86733333Y-71507200D02*
X86828571Y-71554819D01*
X86828571Y-71554819D02*
X87019047Y-71554819D01*
X87019047Y-71554819D02*
X87114285Y-71507200D01*
X87114285Y-71507200D02*
X87161904Y-71459580D01*
X87161904Y-71459580D02*
X87209523Y-71364342D01*
X87209523Y-71364342D02*
X87209523Y-70554819D01*
X88209523Y-71554819D02*
X87638095Y-71554819D01*
X87923809Y-71554819D02*
X87923809Y-70554819D01*
X87923809Y-70554819D02*
X87828571Y-70697676D01*
X87828571Y-70697676D02*
X87733333Y-70792914D01*
X87733333Y-70792914D02*
X87638095Y-70840533D01*
X104066666Y-124969819D02*
X104066666Y-125684104D01*
X104066666Y-125684104D02*
X104019047Y-125826961D01*
X104019047Y-125826961D02*
X103923809Y-125922200D01*
X103923809Y-125922200D02*
X103780952Y-125969819D01*
X103780952Y-125969819D02*
X103685714Y-125969819D01*
X105066666Y-125969819D02*
X104495238Y-125969819D01*
X104780952Y-125969819D02*
X104780952Y-124969819D01*
X104780952Y-124969819D02*
X104685714Y-125112676D01*
X104685714Y-125112676D02*
X104590476Y-125207914D01*
X104590476Y-125207914D02*
X104495238Y-125255533D01*
X113084819Y-53438094D02*
X112084819Y-53438094D01*
X112084819Y-53438094D02*
X112084819Y-53199999D01*
X112084819Y-53199999D02*
X112132438Y-53057142D01*
X112132438Y-53057142D02*
X112227676Y-52961904D01*
X112227676Y-52961904D02*
X112322914Y-52914285D01*
X112322914Y-52914285D02*
X112513390Y-52866666D01*
X112513390Y-52866666D02*
X112656247Y-52866666D01*
X112656247Y-52866666D02*
X112846723Y-52914285D01*
X112846723Y-52914285D02*
X112941961Y-52961904D01*
X112941961Y-52961904D02*
X113037200Y-53057142D01*
X113037200Y-53057142D02*
X113084819Y-53199999D01*
X113084819Y-53199999D02*
X113084819Y-53438094D01*
X112180057Y-52485713D02*
X112132438Y-52438094D01*
X112132438Y-52438094D02*
X112084819Y-52342856D01*
X112084819Y-52342856D02*
X112084819Y-52104761D01*
X112084819Y-52104761D02*
X112132438Y-52009523D01*
X112132438Y-52009523D02*
X112180057Y-51961904D01*
X112180057Y-51961904D02*
X112275295Y-51914285D01*
X112275295Y-51914285D02*
X112370533Y-51914285D01*
X112370533Y-51914285D02*
X112513390Y-51961904D01*
X112513390Y-51961904D02*
X113084819Y-52533332D01*
X113084819Y-52533332D02*
X113084819Y-51914285D01*
X103433333Y-57289580D02*
X103385714Y-57337200D01*
X103385714Y-57337200D02*
X103242857Y-57384819D01*
X103242857Y-57384819D02*
X103147619Y-57384819D01*
X103147619Y-57384819D02*
X103004762Y-57337200D01*
X103004762Y-57337200D02*
X102909524Y-57241961D01*
X102909524Y-57241961D02*
X102861905Y-57146723D01*
X102861905Y-57146723D02*
X102814286Y-56956247D01*
X102814286Y-56956247D02*
X102814286Y-56813390D01*
X102814286Y-56813390D02*
X102861905Y-56622914D01*
X102861905Y-56622914D02*
X102909524Y-56527676D01*
X102909524Y-56527676D02*
X103004762Y-56432438D01*
X103004762Y-56432438D02*
X103147619Y-56384819D01*
X103147619Y-56384819D02*
X103242857Y-56384819D01*
X103242857Y-56384819D02*
X103385714Y-56432438D01*
X103385714Y-56432438D02*
X103433333Y-56480057D01*
X103814286Y-56480057D02*
X103861905Y-56432438D01*
X103861905Y-56432438D02*
X103957143Y-56384819D01*
X103957143Y-56384819D02*
X104195238Y-56384819D01*
X104195238Y-56384819D02*
X104290476Y-56432438D01*
X104290476Y-56432438D02*
X104338095Y-56480057D01*
X104338095Y-56480057D02*
X104385714Y-56575295D01*
X104385714Y-56575295D02*
X104385714Y-56670533D01*
X104385714Y-56670533D02*
X104338095Y-56813390D01*
X104338095Y-56813390D02*
X103766667Y-57384819D01*
X103766667Y-57384819D02*
X104385714Y-57384819D01*
X104533333Y-62159580D02*
X104485714Y-62207200D01*
X104485714Y-62207200D02*
X104342857Y-62254819D01*
X104342857Y-62254819D02*
X104247619Y-62254819D01*
X104247619Y-62254819D02*
X104104762Y-62207200D01*
X104104762Y-62207200D02*
X104009524Y-62111961D01*
X104009524Y-62111961D02*
X103961905Y-62016723D01*
X103961905Y-62016723D02*
X103914286Y-61826247D01*
X103914286Y-61826247D02*
X103914286Y-61683390D01*
X103914286Y-61683390D02*
X103961905Y-61492914D01*
X103961905Y-61492914D02*
X104009524Y-61397676D01*
X104009524Y-61397676D02*
X104104762Y-61302438D01*
X104104762Y-61302438D02*
X104247619Y-61254819D01*
X104247619Y-61254819D02*
X104342857Y-61254819D01*
X104342857Y-61254819D02*
X104485714Y-61302438D01*
X104485714Y-61302438D02*
X104533333Y-61350057D01*
X105485714Y-62254819D02*
X104914286Y-62254819D01*
X105200000Y-62254819D02*
X105200000Y-61254819D01*
X105200000Y-61254819D02*
X105104762Y-61397676D01*
X105104762Y-61397676D02*
X105009524Y-61492914D01*
X105009524Y-61492914D02*
X104914286Y-61540533D01*
%TO.C,D1*%
D12*
X98035000Y-54300000D02*
X98035000Y-50240000D01*
X95765000Y-50240000D02*
X95765000Y-54300000D01*
X98035000Y-50240000D02*
X95765000Y-50240000D01*
D13*
%TO.C,G\u002A\u002A\u002A*%
G36*
X115471018Y-39676456D02*
G01*
X116057434Y-39718836D01*
X116584049Y-39796303D01*
X116818050Y-39850323D01*
X117554173Y-40094330D01*
X118155202Y-40395745D01*
X118634261Y-40765442D01*
X119004474Y-41214292D01*
X119278966Y-41753170D01*
X119348975Y-41947141D01*
X119424053Y-42297851D01*
X119463361Y-42754765D01*
X119468462Y-43273285D01*
X119440923Y-43808816D01*
X119382306Y-44316763D01*
X119294176Y-44752530D01*
X119244892Y-44914373D01*
X118975374Y-45583878D01*
X118653685Y-46222649D01*
X118307333Y-46778070D01*
X118182437Y-46946803D01*
X118013028Y-47174952D01*
X117890297Y-47361540D01*
X117839101Y-47468560D01*
X117838838Y-47472247D01*
X117862302Y-47571816D01*
X117927118Y-47791579D01*
X118024918Y-48104548D01*
X118147335Y-48483737D01*
X118232189Y-48741040D01*
X118489955Y-49551423D01*
X118724716Y-50357660D01*
X118928410Y-51128467D01*
X119092975Y-51832560D01*
X119210350Y-52438654D01*
X119246378Y-52676694D01*
X119307270Y-53546589D01*
X119274579Y-54500030D01*
X119152807Y-55500089D01*
X118946453Y-56509841D01*
X118660022Y-57492359D01*
X118658929Y-57495574D01*
X118454237Y-58024464D01*
X118176015Y-58635749D01*
X117844591Y-59288031D01*
X117480291Y-59939911D01*
X117357987Y-60145140D01*
X117189420Y-60423307D01*
X118090012Y-61931684D01*
X118733149Y-63044359D01*
X119389080Y-64245459D01*
X120041047Y-65500897D01*
X120672289Y-66776584D01*
X121266048Y-68038435D01*
X121805565Y-69252362D01*
X122274079Y-70384278D01*
X122383341Y-70663914D01*
X123081159Y-72550047D01*
X123681437Y-74337342D01*
X124188918Y-76043891D01*
X124608343Y-77687785D01*
X124944454Y-79287116D01*
X125201995Y-80859977D01*
X125334649Y-81923513D01*
X125421477Y-82887946D01*
X125478498Y-83897271D01*
X125506662Y-84930224D01*
X125506922Y-85965539D01*
X125480227Y-86981951D01*
X125427529Y-87958195D01*
X125349780Y-88873007D01*
X125247929Y-89705122D01*
X125122930Y-90433274D01*
X124975731Y-91036199D01*
X124919125Y-91213757D01*
X124589010Y-92004654D01*
X124186380Y-92661344D01*
X123705067Y-93190092D01*
X123138902Y-93597161D01*
X122481718Y-93888817D01*
X122203710Y-93971510D01*
X121935141Y-94046445D01*
X121728262Y-94112626D01*
X121627330Y-94155878D01*
X121626892Y-94156244D01*
X121647234Y-94218744D01*
X121785871Y-94314314D01*
X122012745Y-94429917D01*
X122297798Y-94552517D01*
X122610974Y-94669076D01*
X122922215Y-94766559D01*
X123172341Y-94826539D01*
X123484111Y-94879428D01*
X123753177Y-94902105D01*
X124012735Y-94889112D01*
X124295981Y-94834994D01*
X124636112Y-94734295D01*
X125066323Y-94581558D01*
X125377979Y-94464010D01*
X126033905Y-94234739D01*
X126593191Y-94089023D01*
X127087033Y-94022146D01*
X127546629Y-94029389D01*
X127898488Y-94082854D01*
X128540407Y-94285193D01*
X129084342Y-94598097D01*
X129525200Y-95007611D01*
X129857887Y-95499777D01*
X130077308Y-96060639D01*
X130178370Y-96676241D01*
X130155977Y-97332625D01*
X130005037Y-98015835D01*
X129720455Y-98711915D01*
X129642236Y-98860244D01*
X129250718Y-99473872D01*
X128790401Y-99994871D01*
X128224313Y-100462806D01*
X128000393Y-100617368D01*
X127088434Y-101132650D01*
X126132250Y-101504163D01*
X125142082Y-101733625D01*
X124128170Y-101822759D01*
X123100756Y-101773285D01*
X122070079Y-101586923D01*
X121046381Y-101265396D01*
X120039902Y-100810422D01*
X119060882Y-100223724D01*
X118119562Y-99507022D01*
X117394555Y-98835192D01*
X117028479Y-98452013D01*
X116655902Y-98037101D01*
X116300862Y-97619438D01*
X115987402Y-97228005D01*
X115739561Y-96891782D01*
X115596667Y-96667876D01*
X115514146Y-96579283D01*
X115468183Y-96583295D01*
X115445897Y-96678791D01*
X115421311Y-96911626D01*
X115395326Y-97263820D01*
X115368846Y-97717392D01*
X115342774Y-98254364D01*
X115318011Y-98856754D01*
X115295463Y-99506583D01*
X115276030Y-100185870D01*
X115266073Y-100607951D01*
X115261821Y-100890138D01*
X115258023Y-101313799D01*
X115254709Y-101865056D01*
X115251907Y-102530030D01*
X115249645Y-103294844D01*
X115247951Y-104145620D01*
X115246855Y-105068480D01*
X115246385Y-106049546D01*
X115246569Y-107074941D01*
X115247437Y-108130786D01*
X115248722Y-109035779D01*
X115251257Y-110307281D01*
X115254443Y-111437461D01*
X115258531Y-112440349D01*
X115263770Y-113329973D01*
X115270407Y-114120364D01*
X115278693Y-114825549D01*
X115288875Y-115459560D01*
X115301204Y-116036424D01*
X115315928Y-116570171D01*
X115333295Y-117074831D01*
X115353555Y-117564433D01*
X115376958Y-118053006D01*
X115403751Y-118554579D01*
X115423902Y-118907979D01*
X115475063Y-119762522D01*
X115521511Y-120477401D01*
X115564974Y-121068171D01*
X115607182Y-121550386D01*
X115649864Y-121939601D01*
X115694749Y-122251370D01*
X115743565Y-122501248D01*
X115798041Y-122704790D01*
X115859907Y-122877550D01*
X115867065Y-122894928D01*
X116098618Y-123294880D01*
X116447740Y-123694521D01*
X116881073Y-124056711D01*
X116959130Y-124110820D01*
X117628896Y-124584423D01*
X118173225Y-125022878D01*
X118611942Y-125446104D01*
X118964873Y-125874022D01*
X119251843Y-126326552D01*
X119349420Y-126512518D01*
X119636428Y-127189517D01*
X119801770Y-127817570D01*
X119845329Y-128386490D01*
X119766984Y-128886090D01*
X119566617Y-129306182D01*
X119384611Y-129518863D01*
X119118493Y-129708659D01*
X118736984Y-129896036D01*
X118279593Y-130066725D01*
X117785826Y-130206453D01*
X117295193Y-130300950D01*
X117178593Y-130315730D01*
X116881262Y-130350153D01*
X116610993Y-130383363D01*
X116479511Y-130400801D01*
X116147939Y-130432955D01*
X115699085Y-130455894D01*
X115170745Y-130469669D01*
X114600712Y-130474333D01*
X114026779Y-130469937D01*
X113486741Y-130456536D01*
X113018392Y-130434181D01*
X112659525Y-130402924D01*
X112602896Y-130395420D01*
X111835302Y-130254674D01*
X111197884Y-130067671D01*
X110669819Y-129824680D01*
X110230286Y-129515970D01*
X110180494Y-129464525D01*
X110459633Y-129464525D01*
X110498471Y-129503363D01*
X110537309Y-129464525D01*
X110498471Y-129425688D01*
X110459633Y-129464525D01*
X110180494Y-129464525D01*
X109858465Y-129131808D01*
X109834001Y-129101292D01*
X109673559Y-128891392D01*
X109537545Y-128689637D01*
X109423707Y-128481267D01*
X109329795Y-128251524D01*
X109253556Y-127985650D01*
X109192740Y-127668886D01*
X109145095Y-127286474D01*
X109108370Y-126823654D01*
X109080313Y-126265668D01*
X109058674Y-125597758D01*
X109041201Y-124805164D01*
X109025643Y-123873129D01*
X109024445Y-123794189D01*
X109013152Y-123085865D01*
X109001130Y-122402274D01*
X108988832Y-121764537D01*
X108976710Y-121193776D01*
X108965217Y-120711112D01*
X108954807Y-120337665D01*
X108945931Y-120094556D01*
X108944504Y-120065749D01*
X108930529Y-119772696D01*
X108913375Y-119366874D01*
X108894729Y-118890789D01*
X108876278Y-118386948D01*
X108865870Y-118085015D01*
X108764322Y-115643774D01*
X108621691Y-113111728D01*
X108441746Y-110546805D01*
X108228255Y-108006935D01*
X108168472Y-107365749D01*
X108123703Y-106895252D01*
X108068984Y-106319915D01*
X108009052Y-105689553D01*
X107948643Y-105053982D01*
X107895223Y-104491743D01*
X107767963Y-103176269D01*
X107646615Y-101974512D01*
X107526812Y-100845177D01*
X107404187Y-99746971D01*
X107291555Y-98782568D01*
X107236086Y-98316513D01*
X106770031Y-98335734D01*
X106234988Y-98352618D01*
X105631948Y-98362885D01*
X104986232Y-98366910D01*
X104323161Y-98365064D01*
X103668057Y-98357720D01*
X103046243Y-98345252D01*
X102483041Y-98328031D01*
X102003771Y-98306431D01*
X101633756Y-98280824D01*
X101429816Y-98257128D01*
X101127435Y-98213305D01*
X100892117Y-98188520D01*
X100758812Y-98186020D01*
X100741377Y-98193212D01*
X100728718Y-98296057D01*
X100711400Y-98471865D01*
X100695868Y-98640517D01*
X100669637Y-98923228D01*
X100636482Y-99279378D01*
X100603107Y-99637003D01*
X100523518Y-100574466D01*
X100447393Y-101638573D01*
X100376352Y-102800627D01*
X100312014Y-104031931D01*
X100255998Y-105303788D01*
X100209923Y-106587500D01*
X100208651Y-106627828D01*
X100184143Y-107408299D01*
X100156403Y-108292418D01*
X100127048Y-109228556D01*
X100097696Y-110165087D01*
X100069967Y-111050380D01*
X100046716Y-111793272D01*
X100032443Y-112301574D01*
X100016987Y-112946123D01*
X100000684Y-113707822D01*
X99983868Y-114567576D01*
X99966875Y-115506285D01*
X99950038Y-116504855D01*
X99933692Y-117544187D01*
X99918173Y-118605185D01*
X99903815Y-119668752D01*
X99892195Y-120609480D01*
X99880203Y-121588309D01*
X99867755Y-122529363D01*
X99855073Y-123420027D01*
X99842378Y-124247687D01*
X99829893Y-124999729D01*
X99817838Y-125663537D01*
X99806437Y-126226498D01*
X99795911Y-126675997D01*
X99786482Y-126999420D01*
X99778371Y-127184153D01*
X99776089Y-127211926D01*
X99675801Y-127787219D01*
X99504257Y-128267268D01*
X99247034Y-128666171D01*
X98889711Y-128998023D01*
X98417863Y-129276920D01*
X97817069Y-129516959D01*
X97242421Y-129688215D01*
X96037418Y-129947636D01*
X94763737Y-130107855D01*
X93464196Y-130167351D01*
X92181613Y-130124604D01*
X90958810Y-129978096D01*
X90652294Y-129922099D01*
X90203657Y-129807543D01*
X89771116Y-129650409D01*
X89391049Y-129467674D01*
X89099835Y-129276317D01*
X88957014Y-129130918D01*
X88744108Y-128708365D01*
X88651614Y-128214172D01*
X88679322Y-127640065D01*
X88827022Y-126977769D01*
X88896478Y-126755261D01*
X89260497Y-125891381D01*
X89755295Y-125107963D01*
X90382465Y-124403173D01*
X91120559Y-123794189D01*
X91273700Y-123794189D01*
X91312538Y-123833027D01*
X91351376Y-123794189D01*
X91312538Y-123755351D01*
X91273700Y-123794189D01*
X91120559Y-123794189D01*
X91143602Y-123775177D01*
X91900533Y-123298468D01*
X92101140Y-123182860D01*
X92272809Y-123068406D01*
X92418769Y-122942089D01*
X92542251Y-122790894D01*
X92646485Y-122601804D01*
X92734700Y-122361806D01*
X92810127Y-122057881D01*
X92875996Y-121677015D01*
X92935536Y-121206191D01*
X92991978Y-120632394D01*
X93048552Y-119942607D01*
X93108488Y-119123816D01*
X93175017Y-118163003D01*
X93175038Y-118162691D01*
X93249819Y-117034971D01*
X93310213Y-116038042D01*
X93356844Y-115148071D01*
X93390339Y-114341224D01*
X93411323Y-113593668D01*
X93420423Y-112881569D01*
X93418263Y-112181094D01*
X93405470Y-111468409D01*
X93382669Y-110719682D01*
X93375541Y-110525731D01*
X93333543Y-109505265D01*
X93282830Y-108423463D01*
X93224719Y-107300288D01*
X93160528Y-106155705D01*
X93091572Y-105009679D01*
X93019170Y-103882175D01*
X92944637Y-102793157D01*
X92869293Y-101762591D01*
X92794453Y-100810441D01*
X92721435Y-99956672D01*
X92651555Y-99221249D01*
X92595702Y-98704892D01*
X92561557Y-98404892D01*
X92516163Y-97995435D01*
X92464456Y-97521572D01*
X92411369Y-97028354D01*
X92388196Y-96810695D01*
X92253220Y-95537905D01*
X91782879Y-95036138D01*
X91116395Y-94254415D01*
X90515359Y-93409451D01*
X90006683Y-92542482D01*
X89640213Y-91752905D01*
X89337319Y-90946228D01*
X89086012Y-90161845D01*
X88881654Y-89373541D01*
X88719609Y-88555101D01*
X88595238Y-87680307D01*
X88503904Y-86722945D01*
X88440971Y-85656799D01*
X88410469Y-84800917D01*
X88360856Y-83014373D01*
X87992774Y-84490214D01*
X87850662Y-85075823D01*
X87744560Y-85559097D01*
X87666716Y-85986762D01*
X87609381Y-86405543D01*
X87564804Y-86862166D01*
X87536035Y-87243802D01*
X87502558Y-87779744D01*
X87486577Y-88199276D01*
X87488454Y-88540392D01*
X87508552Y-88841085D01*
X87547234Y-89139350D01*
X87554576Y-89185698D01*
X87655088Y-90072514D01*
X87661890Y-90886117D01*
X87578549Y-91617399D01*
X87408631Y-92257250D01*
X87155704Y-92796563D01*
X86823335Y-93226230D01*
X86415090Y-93537141D01*
X85934536Y-93720188D01*
X85767115Y-93750131D01*
X85649769Y-93764152D01*
X85561562Y-93783807D01*
X85492825Y-93829865D01*
X85433889Y-93923094D01*
X85375082Y-94084260D01*
X85306737Y-94334132D01*
X85219183Y-94693477D01*
X85105717Y-95170642D01*
X84978853Y-95707866D01*
X84867520Y-96194530D01*
X84766596Y-96656876D01*
X84670960Y-97121146D01*
X84575488Y-97613580D01*
X84475061Y-98160421D01*
X84364555Y-98787909D01*
X84238850Y-99522287D01*
X84127868Y-100180733D01*
X83909863Y-101466707D01*
X83687082Y-102755843D01*
X83462777Y-104030468D01*
X83240200Y-105272909D01*
X83022602Y-106465489D01*
X82813235Y-107590536D01*
X82615351Y-108630375D01*
X82432202Y-109567332D01*
X82267038Y-110383732D01*
X82141485Y-110977675D01*
X82072929Y-111295552D01*
X81979265Y-111732863D01*
X81867436Y-112257031D01*
X81744385Y-112835480D01*
X81617053Y-113435635D01*
X81528993Y-113851681D01*
X81114383Y-115789743D01*
X80722102Y-117576028D01*
X80351654Y-119212426D01*
X80002542Y-120700827D01*
X79674267Y-122043119D01*
X79366334Y-123241192D01*
X79078244Y-124296934D01*
X78809501Y-125212236D01*
X78559607Y-125988987D01*
X78328066Y-126629075D01*
X78114379Y-127134390D01*
X77948726Y-127455380D01*
X77683507Y-127813686D01*
X77330076Y-128157101D01*
X76939020Y-128442705D01*
X76571236Y-128624035D01*
X76093230Y-128732759D01*
X75528682Y-128768265D01*
X74927245Y-128732065D01*
X74338576Y-128625669D01*
X74068501Y-128547927D01*
X73354997Y-128261220D01*
X72782352Y-127914963D01*
X72345070Y-127501694D01*
X72037650Y-127013950D01*
X71854595Y-126444268D01*
X71790405Y-125785186D01*
X71798289Y-125466915D01*
X71805926Y-125350529D01*
X72180092Y-125350529D01*
X72180153Y-125882019D01*
X72237124Y-126365154D01*
X72347861Y-126756385D01*
X72386402Y-126840285D01*
X72619345Y-127189146D01*
X72942769Y-127538272D01*
X73301829Y-127833027D01*
X73511517Y-127961037D01*
X74016086Y-128166022D01*
X74592940Y-128310047D01*
X75193308Y-128387253D01*
X75768420Y-128391776D01*
X76269506Y-128317756D01*
X76333129Y-128300154D01*
X76720235Y-128149550D01*
X77054204Y-127934364D01*
X77349755Y-127636620D01*
X77621607Y-127238341D01*
X77884478Y-126721551D01*
X78146632Y-126085236D01*
X78260061Y-125761891D01*
X78402051Y-125317304D01*
X78564255Y-124781137D01*
X78738328Y-124183052D01*
X78915922Y-123552711D01*
X79088691Y-122919775D01*
X79248288Y-122313907D01*
X79386366Y-121764769D01*
X79494580Y-121302022D01*
X79501674Y-121269724D01*
X79646981Y-120610031D01*
X79800338Y-119923782D01*
X79953983Y-119244987D01*
X80100159Y-118607650D01*
X80231105Y-118045781D01*
X80339061Y-117593385D01*
X80361285Y-117502446D01*
X80454916Y-117110021D01*
X80577037Y-116579181D01*
X80724606Y-115923627D01*
X80894579Y-115157063D01*
X81083912Y-114293189D01*
X81289562Y-113345708D01*
X81448296Y-112608868D01*
X81558464Y-112084202D01*
X81690431Y-111436399D01*
X81838391Y-110695202D01*
X81996540Y-109890355D01*
X82159072Y-109051600D01*
X82320182Y-108208681D01*
X82474065Y-107391340D01*
X82608085Y-106666666D01*
X82702800Y-106150299D01*
X82796854Y-105639714D01*
X82883330Y-105172316D01*
X82955307Y-104785507D01*
X83003228Y-104530581D01*
X83056205Y-104242389D01*
X83132692Y-103812803D01*
X83230649Y-103253664D01*
X83348033Y-102576814D01*
X83482805Y-101794095D01*
X83632922Y-100917349D01*
X83796344Y-99958416D01*
X83971028Y-98929139D01*
X84087814Y-98238837D01*
X84176964Y-97723248D01*
X84265640Y-97231920D01*
X84348013Y-96795578D01*
X84418254Y-96444945D01*
X84470534Y-96210743D01*
X84478363Y-96180428D01*
X84547497Y-95909711D01*
X84633904Y-95550740D01*
X84731461Y-95131273D01*
X84834049Y-94679067D01*
X84935547Y-94221879D01*
X85029835Y-93787465D01*
X85110792Y-93403583D01*
X85172298Y-93097990D01*
X85208231Y-92898443D01*
X85214985Y-92839770D01*
X85157505Y-92714247D01*
X85010197Y-92546196D01*
X84888004Y-92439095D01*
X84668690Y-92283656D01*
X84472531Y-92206255D01*
X84223252Y-92181247D01*
X84117718Y-92180122D01*
X83867866Y-92188340D01*
X83685634Y-92209559D01*
X83623908Y-92230628D01*
X83586008Y-92315032D01*
X83505509Y-92526453D01*
X83389651Y-92844768D01*
X83245672Y-93249853D01*
X83080812Y-93721584D01*
X82925352Y-94172524D01*
X82712688Y-94793313D01*
X82540248Y-95295464D01*
X82397605Y-95707204D01*
X82274336Y-96056756D01*
X82160017Y-96372349D01*
X82044221Y-96682206D01*
X81916524Y-97014554D01*
X81766503Y-97397620D01*
X81583731Y-97859628D01*
X81357785Y-98428804D01*
X81294431Y-98588379D01*
X81068316Y-99158927D01*
X80840010Y-99736691D01*
X80622351Y-100289058D01*
X80428179Y-100783414D01*
X80270331Y-101187147D01*
X80193608Y-101384709D01*
X80053771Y-101743966D01*
X79928467Y-102061478D01*
X79831405Y-102302792D01*
X79776350Y-102433333D01*
X79714882Y-102581649D01*
X79620959Y-102825336D01*
X79514205Y-103113401D01*
X79507301Y-103132415D01*
X79400252Y-103421617D01*
X79304547Y-103669741D01*
X79239887Y-103825784D01*
X79237241Y-103831498D01*
X79195860Y-103929962D01*
X79124030Y-104115147D01*
X79018443Y-104396019D01*
X78875795Y-104781542D01*
X78692778Y-105280684D01*
X78466088Y-105902409D01*
X78192417Y-106655684D01*
X77991288Y-107210397D01*
X77827975Y-107660042D01*
X77658036Y-108126154D01*
X77500740Y-108555986D01*
X77375354Y-108896793D01*
X77367044Y-108919266D01*
X77225561Y-109308292D01*
X77044611Y-109816352D01*
X76829609Y-110427550D01*
X76585971Y-111125988D01*
X76319109Y-111895768D01*
X76034439Y-112720993D01*
X75737376Y-113585766D01*
X75433332Y-114474188D01*
X75127724Y-115370364D01*
X74825964Y-116258395D01*
X74533469Y-117122383D01*
X74255651Y-117946432D01*
X73997926Y-118714645D01*
X73765708Y-119411122D01*
X73564410Y-120019968D01*
X73399449Y-120525285D01*
X73276238Y-120911175D01*
X73216601Y-121105521D01*
X72964992Y-121966923D01*
X72741572Y-122761961D01*
X72550944Y-123473157D01*
X72397708Y-124083037D01*
X72286466Y-124574122D01*
X72240088Y-124814233D01*
X72180092Y-125350529D01*
X71805926Y-125350529D01*
X71818792Y-125154473D01*
X71845783Y-124880638D01*
X71885616Y-124614904D01*
X71944644Y-124326764D01*
X72029220Y-123985713D01*
X72145698Y-123561245D01*
X72300430Y-123022852D01*
X72324603Y-122939755D01*
X72674111Y-121762232D01*
X73059269Y-120505459D01*
X73469411Y-119202145D01*
X73893875Y-117884997D01*
X74321994Y-116586723D01*
X74743106Y-115340030D01*
X75146545Y-114177627D01*
X75521647Y-113132220D01*
X75528408Y-113113761D01*
X75667892Y-112726370D01*
X75832823Y-112257992D01*
X75999930Y-111775153D01*
X76112628Y-111443730D01*
X76259584Y-111012837D01*
X76440700Y-110490837D01*
X76648975Y-109897165D01*
X76877409Y-109251260D01*
X77119001Y-108572558D01*
X77366752Y-107880496D01*
X77613661Y-107194511D01*
X77852727Y-106534040D01*
X78076951Y-105918520D01*
X78279332Y-105367387D01*
X78452869Y-104900078D01*
X78590562Y-104536031D01*
X78685412Y-104294681D01*
X78700369Y-104258715D01*
X78751365Y-104131099D01*
X78848257Y-103882132D01*
X78981842Y-103535716D01*
X79142914Y-103115752D01*
X79322271Y-102646139D01*
X79403317Y-102433333D01*
X79635512Y-101826908D01*
X79903358Y-101133528D01*
X80184610Y-100410398D01*
X80457022Y-99714721D01*
X80687067Y-99132110D01*
X81145171Y-97966448D01*
X81546345Y-96919455D01*
X81898844Y-95968780D01*
X82210922Y-95092077D01*
X82490835Y-94266998D01*
X82545316Y-94101220D01*
X82907507Y-92992960D01*
X82559940Y-92650302D01*
X82401077Y-92451987D01*
X82962385Y-92451987D01*
X82990806Y-92515923D01*
X83014169Y-92503771D01*
X83023465Y-92411588D01*
X83014169Y-92400203D01*
X82967991Y-92410866D01*
X82962385Y-92451987D01*
X82401077Y-92451987D01*
X82190768Y-92189449D01*
X81884737Y-91604904D01*
X81652894Y-90919329D01*
X81592544Y-90665443D01*
X81542215Y-90397437D01*
X81505116Y-90112327D01*
X81479635Y-89782022D01*
X81464159Y-89378433D01*
X81457077Y-88873470D01*
X81456685Y-88412800D01*
X81733456Y-88412800D01*
X81748940Y-89234844D01*
X81805626Y-89954365D01*
X81904019Y-90580952D01*
X82044626Y-91124192D01*
X82227953Y-91593674D01*
X82454507Y-91998986D01*
X82504693Y-92072683D01*
X82647530Y-92275948D01*
X83057404Y-92077834D01*
X83596700Y-91885666D01*
X84117215Y-91844438D01*
X84634979Y-91953688D01*
X84817965Y-92027144D01*
X85110829Y-92187568D01*
X85391401Y-92390625D01*
X85627290Y-92607030D01*
X85786107Y-92807494D01*
X85836391Y-92948045D01*
X85771315Y-93052195D01*
X85681040Y-93095900D01*
X85549540Y-93200003D01*
X85525688Y-93299150D01*
X85580222Y-93424123D01*
X85725323Y-93459443D01*
X85933239Y-93416127D01*
X86176216Y-93305193D01*
X86426502Y-93137658D01*
X86656346Y-92924540D01*
X86747743Y-92813998D01*
X86942978Y-92516430D01*
X87093132Y-92193700D01*
X87200864Y-91825915D01*
X87268837Y-91393181D01*
X87299710Y-90875607D01*
X87296146Y-90253299D01*
X87260804Y-89506364D01*
X87237338Y-89153727D01*
X87198465Y-88430514D01*
X87190518Y-87746342D01*
X87216754Y-87076362D01*
X87280431Y-86395727D01*
X87384806Y-85679587D01*
X87533135Y-84903097D01*
X87728676Y-84041406D01*
X87974686Y-83069668D01*
X88092966Y-82625993D01*
X88282409Y-81917973D01*
X88434863Y-81332894D01*
X88556444Y-80844446D01*
X88653267Y-80426319D01*
X88731447Y-80052203D01*
X88797101Y-79695787D01*
X88851277Y-79363608D01*
X88890687Y-79118396D01*
X88913520Y-79017227D01*
X88925628Y-79050421D01*
X88932862Y-79208299D01*
X88933455Y-79227675D01*
X88958523Y-79436490D01*
X89010362Y-79549198D01*
X89031659Y-79557798D01*
X89083449Y-79623929D01*
X89081672Y-79827089D01*
X89071548Y-79910514D01*
X88963256Y-80845910D01*
X88882182Y-81854285D01*
X88828395Y-82906452D01*
X88801969Y-83973228D01*
X88802974Y-85025429D01*
X88831482Y-86033871D01*
X88887565Y-86969368D01*
X88971295Y-87802738D01*
X89050857Y-88335168D01*
X89244075Y-89327400D01*
X89454646Y-90194777D01*
X89693695Y-90967673D01*
X89972351Y-91676460D01*
X90301737Y-92351510D01*
X90692981Y-93023196D01*
X90868100Y-93295920D01*
X91392613Y-94039488D01*
X91921981Y-94686379D01*
X92348770Y-95129516D01*
X92529329Y-95310612D01*
X92625930Y-95457494D01*
X92664760Y-95632999D01*
X92672006Y-95899966D01*
X92672008Y-95905149D01*
X92680633Y-96161394D01*
X92704105Y-96526102D01*
X92738991Y-96953463D01*
X92781858Y-97397669D01*
X92788674Y-97462079D01*
X92968302Y-99237348D01*
X93134682Y-101077511D01*
X93283093Y-102924724D01*
X93408817Y-104721143D01*
X93485718Y-106006422D01*
X93509838Y-106442084D01*
X93537249Y-106932019D01*
X93562311Y-107375408D01*
X93563973Y-107404587D01*
X93600367Y-108104577D01*
X93633727Y-108865076D01*
X93663435Y-109660863D01*
X93688876Y-110466714D01*
X93709433Y-111257407D01*
X93724491Y-112007720D01*
X93733433Y-112692430D01*
X93735643Y-113286315D01*
X93730505Y-113764152D01*
X93724330Y-113968195D01*
X93671849Y-115167140D01*
X93614241Y-116328408D01*
X93552592Y-117435797D01*
X93487986Y-118473103D01*
X93421506Y-119424123D01*
X93354238Y-120272655D01*
X93287266Y-121002494D01*
X93221675Y-121597439D01*
X93204915Y-121728528D01*
X93100412Y-122296826D01*
X92943609Y-122742809D01*
X92715538Y-123095897D01*
X92397229Y-123385510D01*
X91972783Y-123639507D01*
X91600185Y-123867079D01*
X91175588Y-124188858D01*
X90738013Y-124573158D01*
X90371572Y-124939639D01*
X89982061Y-125416642D01*
X89648105Y-125944700D01*
X89376976Y-126499862D01*
X89175943Y-127058179D01*
X89052278Y-127595701D01*
X89013250Y-128088478D01*
X89066129Y-128512560D01*
X89195984Y-128812213D01*
X89469717Y-129092215D01*
X89887019Y-129327475D01*
X90442354Y-129516862D01*
X91130185Y-129659246D01*
X91944978Y-129753497D01*
X92881195Y-129798483D01*
X93933302Y-129793076D01*
X93991822Y-129791373D01*
X94782829Y-129757201D01*
X95458931Y-129703015D01*
X96059914Y-129623110D01*
X96625565Y-129511783D01*
X97195669Y-129363331D01*
X97398960Y-129302969D01*
X97881192Y-129145411D01*
X98244759Y-128998405D01*
X98523818Y-128844583D01*
X98752523Y-128666574D01*
X98863210Y-128558352D01*
X98981303Y-128425970D01*
X99083925Y-128284141D01*
X99172294Y-128121323D01*
X99247630Y-127925976D01*
X99311152Y-127686558D01*
X99364080Y-127391528D01*
X99407633Y-127029345D01*
X99443029Y-126588468D01*
X99471490Y-126057355D01*
X99494233Y-125424466D01*
X99512478Y-124678260D01*
X99527445Y-123807194D01*
X99540353Y-122799729D01*
X99548122Y-122075562D01*
X99555941Y-121342958D01*
X99564300Y-120635176D01*
X99573464Y-119939697D01*
X99583697Y-119244002D01*
X99595264Y-118535575D01*
X99608429Y-117801895D01*
X99623457Y-117030446D01*
X99640612Y-116208709D01*
X99660159Y-115324165D01*
X99682362Y-114364297D01*
X99707486Y-113316586D01*
X99735795Y-112168513D01*
X99767553Y-110907562D01*
X99803026Y-109521213D01*
X99842477Y-107996948D01*
X99858912Y-107365749D01*
X99883033Y-106582683D01*
X99916034Y-105721742D01*
X99956297Y-104812888D01*
X100002203Y-103886082D01*
X100052134Y-102971286D01*
X100104470Y-102098460D01*
X100157593Y-101297566D01*
X100209885Y-100598565D01*
X100249189Y-100141896D01*
X100289082Y-99684136D01*
X100322749Y-99242367D01*
X100347408Y-98857422D01*
X100360280Y-98570131D01*
X100361505Y-98492764D01*
X100355737Y-98238653D01*
X100327143Y-98098120D01*
X100259373Y-98029525D01*
X100167584Y-97998869D01*
X100006171Y-97926228D01*
X99985090Y-97834543D01*
X100050415Y-97773187D01*
X100151194Y-97767044D01*
X100375788Y-97782534D01*
X100694612Y-97816755D01*
X101078081Y-97866803D01*
X101234972Y-97889423D01*
X101636435Y-97944405D01*
X102021176Y-97986098D01*
X102420676Y-98016153D01*
X102866415Y-98036223D01*
X103389874Y-98047961D01*
X104022534Y-98053019D01*
X104362079Y-98053558D01*
X104941295Y-98050486D01*
X105499885Y-98041694D01*
X106009455Y-98028073D01*
X106441612Y-98010515D01*
X106767962Y-97989909D01*
X106925382Y-97973114D01*
X107314385Y-97919600D01*
X107574534Y-97896635D01*
X107729462Y-97905087D01*
X107802805Y-97945819D01*
X107818654Y-98005810D01*
X107756477Y-98108790D01*
X107702141Y-98122324D01*
X107599457Y-98153840D01*
X107587007Y-98180581D01*
X107596774Y-98295756D01*
X107623622Y-98557161D01*
X107666667Y-98956712D01*
X107725028Y-99486329D01*
X107797822Y-100137931D01*
X107884166Y-100903436D01*
X107890288Y-100957492D01*
X107988041Y-101854758D01*
X108092854Y-102878777D01*
X108202264Y-104001243D01*
X108313806Y-105193849D01*
X108425017Y-106428289D01*
X108533432Y-107676256D01*
X108636587Y-108909444D01*
X108732018Y-110099548D01*
X108817260Y-111218259D01*
X108889851Y-112237273D01*
X108941739Y-113036085D01*
X108980774Y-113728945D01*
X109021644Y-114554342D01*
X109063535Y-115489484D01*
X109105631Y-116511579D01*
X109147115Y-117597835D01*
X109187173Y-118725461D01*
X109224988Y-119871664D01*
X109259744Y-121013652D01*
X109290627Y-122128633D01*
X109316819Y-123193815D01*
X109333723Y-123988379D01*
X109351969Y-124850639D01*
X109370944Y-125573397D01*
X109392055Y-126172500D01*
X109416711Y-126663796D01*
X109446319Y-127063133D01*
X109482287Y-127386358D01*
X109526023Y-127649320D01*
X109578936Y-127867866D01*
X109642432Y-128057843D01*
X109709346Y-128216525D01*
X109987620Y-128720961D01*
X110325870Y-129129237D01*
X110744725Y-129455845D01*
X111264811Y-129715276D01*
X111906757Y-129922020D01*
X112254953Y-130004789D01*
X112524599Y-130043803D01*
X112918405Y-130075074D01*
X113405354Y-130098302D01*
X113954433Y-130113193D01*
X114534628Y-130119449D01*
X115114924Y-130116774D01*
X115664307Y-130104870D01*
X116151762Y-130083442D01*
X116546275Y-130052192D01*
X116598062Y-130046336D01*
X117322275Y-129945833D01*
X117910470Y-129830474D01*
X118381742Y-129693999D01*
X118755187Y-129530151D01*
X119049900Y-129332669D01*
X119198165Y-129194077D01*
X119305624Y-129073831D01*
X119373195Y-128962233D01*
X119409583Y-128820597D01*
X119423491Y-128610235D01*
X119423624Y-128292459D01*
X119422581Y-128196597D01*
X119403405Y-127749223D01*
X119346753Y-127381056D01*
X119236616Y-127041583D01*
X119056986Y-126680292D01*
X118817100Y-126286011D01*
X118495054Y-125828851D01*
X118148816Y-125442473D01*
X117736502Y-125085462D01*
X117257273Y-124743652D01*
X116779120Y-124418550D01*
X116414926Y-124153672D01*
X116144543Y-123930823D01*
X115947820Y-123731808D01*
X115804610Y-123538434D01*
X115694929Y-123332870D01*
X115575306Y-123035657D01*
X115476780Y-122703167D01*
X115396085Y-122314001D01*
X115329956Y-121846760D01*
X115275128Y-121280043D01*
X115228335Y-120592451D01*
X115202346Y-120104587D01*
X115171186Y-119481691D01*
X115134116Y-118758788D01*
X115094019Y-117990970D01*
X115053777Y-117233334D01*
X115016272Y-116540973D01*
X115009342Y-116414984D01*
X114992468Y-116017335D01*
X114977407Y-115478655D01*
X114964144Y-114813253D01*
X114952665Y-114035438D01*
X114942957Y-113159521D01*
X114935004Y-112199810D01*
X114928793Y-111170616D01*
X114924308Y-110086247D01*
X114921537Y-108961014D01*
X114920464Y-107809226D01*
X114921076Y-106645191D01*
X114923357Y-105483221D01*
X114927294Y-104337624D01*
X114932873Y-103222710D01*
X114940078Y-102152789D01*
X114948897Y-101142169D01*
X114959314Y-100205161D01*
X114971316Y-99356075D01*
X114984887Y-98609218D01*
X115000015Y-97978902D01*
X115016684Y-97479436D01*
X115028487Y-97229051D01*
X115055329Y-96674612D01*
X115068317Y-96230006D01*
X115067376Y-95907828D01*
X115052429Y-95720668D01*
X115037806Y-95679418D01*
X114987717Y-95614234D01*
X114986368Y-95586277D01*
X115458288Y-95586277D01*
X115495151Y-95775995D01*
X115622322Y-96033734D01*
X115801170Y-96321865D01*
X116282766Y-97015745D01*
X116807202Y-97688828D01*
X117351057Y-98315046D01*
X117890907Y-98868332D01*
X118403331Y-99322617D01*
X118693272Y-99540560D01*
X118894405Y-99682898D01*
X119038312Y-99790955D01*
X119081651Y-99828615D01*
X119186028Y-99911404D01*
X119391519Y-100045333D01*
X119661968Y-100208803D01*
X119961220Y-100380217D01*
X120253116Y-100537975D01*
X120363303Y-100594208D01*
X120802934Y-100806648D01*
X121170840Y-100963775D01*
X121529572Y-101088397D01*
X121941685Y-101203323D01*
X122227523Y-101273974D01*
X122559081Y-101349060D01*
X122845169Y-101399333D01*
X123129461Y-101428274D01*
X123455631Y-101439364D01*
X123867355Y-101436087D01*
X124169419Y-101428788D01*
X124729568Y-101406626D01*
X125170220Y-101372053D01*
X125526998Y-101321080D01*
X125835528Y-101249721D01*
X125878287Y-101237470D01*
X126511594Y-101013310D01*
X127145570Y-100719467D01*
X127736676Y-100379847D01*
X128241374Y-100018358D01*
X128472067Y-99813288D01*
X128950125Y-99291474D01*
X129306888Y-98768462D01*
X129565462Y-98200173D01*
X129748957Y-97542531D01*
X129800327Y-97279682D01*
X129837732Y-96662339D01*
X129731475Y-96083762D01*
X129491484Y-95559377D01*
X129127684Y-95104610D01*
X128650003Y-94734888D01*
X128068368Y-94465639D01*
X127968974Y-94433716D01*
X127599792Y-94349477D01*
X127222074Y-94326002D01*
X126811078Y-94367557D01*
X126342058Y-94478404D01*
X125790273Y-94662807D01*
X125140367Y-94921093D01*
X124801555Y-95056293D01*
X124533160Y-95139154D01*
X124271011Y-95182567D01*
X123950934Y-95199422D01*
X123742202Y-95201960D01*
X123048060Y-95153006D01*
X122401183Y-94989855D01*
X121765009Y-94700662D01*
X121295413Y-94409353D01*
X120987780Y-94219357D01*
X120671773Y-94056526D01*
X120408267Y-93951716D01*
X120373380Y-93941967D01*
X119819204Y-93725102D01*
X119308588Y-93381460D01*
X118867483Y-92938613D01*
X118521843Y-92424136D01*
X118297622Y-91865600D01*
X118258117Y-91694648D01*
X118200270Y-91499540D01*
X118130852Y-91459331D01*
X118049961Y-91574007D01*
X117990670Y-91733486D01*
X117891223Y-91983417D01*
X117730030Y-92323608D01*
X117529124Y-92713494D01*
X117310536Y-93112510D01*
X117096299Y-93480088D01*
X116908443Y-93775664D01*
X116803784Y-93918809D01*
X116623634Y-94142230D01*
X116400190Y-94422780D01*
X116208506Y-94665788D01*
X115999044Y-94919253D01*
X115791261Y-95148584D01*
X115637365Y-95297576D01*
X115507203Y-95436247D01*
X115458288Y-95586277D01*
X114986368Y-95586277D01*
X114984209Y-95541535D01*
X115041968Y-95437846D01*
X115175679Y-95279694D01*
X115400029Y-95043603D01*
X115499462Y-94941513D01*
X116071642Y-94277370D01*
X116285321Y-94277370D01*
X116324159Y-94316207D01*
X116362997Y-94277370D01*
X116324159Y-94238532D01*
X116285321Y-94277370D01*
X116071642Y-94277370D01*
X116290648Y-94023165D01*
X116978404Y-93000019D01*
X117549781Y-91893561D01*
X117935989Y-90898470D01*
X118226872Y-89848603D01*
X118447230Y-88669200D01*
X118596574Y-87369394D01*
X118674418Y-85958316D01*
X118680274Y-84445098D01*
X118613656Y-82838873D01*
X118474077Y-81148772D01*
X118462196Y-81033639D01*
X118401737Y-80419433D01*
X118362594Y-79940146D01*
X118345018Y-79600546D01*
X118349261Y-79405398D01*
X118373698Y-79358126D01*
X118401507Y-79314231D01*
X118400590Y-79163140D01*
X118396675Y-79125132D01*
X118397047Y-78927329D01*
X118442863Y-78863660D01*
X118507973Y-78930386D01*
X118566224Y-79123770D01*
X118570677Y-79149999D01*
X118638031Y-79613169D01*
X118714062Y-80207189D01*
X118796011Y-80907983D01*
X118881116Y-81691470D01*
X118966618Y-82533573D01*
X119009266Y-82975535D01*
X119076062Y-83821296D01*
X119119076Y-84679296D01*
X119138472Y-85522143D01*
X119134411Y-86322443D01*
X119107056Y-87052805D01*
X119056567Y-87685836D01*
X118983108Y-88194142D01*
X118978260Y-88218654D01*
X118914674Y-88532980D01*
X118832513Y-88936952D01*
X118744507Y-89368051D01*
X118693559Y-89616819D01*
X118571688Y-90375482D01*
X118542614Y-91028965D01*
X118607771Y-91597731D01*
X118768592Y-92102245D01*
X118883818Y-92334115D01*
X119263479Y-92862523D01*
X119738671Y-93274529D01*
X120293033Y-93561498D01*
X120910201Y-93714797D01*
X121528440Y-93729659D01*
X122235279Y-93605802D01*
X122862477Y-93350333D01*
X123410582Y-92962642D01*
X123880141Y-92442116D01*
X124271701Y-91788145D01*
X124585810Y-91000115D01*
X124823016Y-90077417D01*
X124830223Y-90041198D01*
X124968776Y-89176871D01*
X125071482Y-88191155D01*
X125138235Y-87113844D01*
X125168927Y-85974736D01*
X125163451Y-84803624D01*
X125121700Y-83630305D01*
X125043567Y-82484573D01*
X124928944Y-81396225D01*
X124863051Y-80917125D01*
X124435357Y-78543260D01*
X123860648Y-76164127D01*
X123386241Y-74547706D01*
X123258838Y-74132560D01*
X123149646Y-73756676D01*
X123067132Y-73450791D01*
X123019764Y-73245644D01*
X123011807Y-73188379D01*
X122962122Y-72980507D01*
X122868369Y-72794246D01*
X122774168Y-72619890D01*
X122657802Y-72354906D01*
X122544446Y-72056629D01*
X122544340Y-72056326D01*
X122421746Y-71722984D01*
X122248993Y-71277388D01*
X122038315Y-70749556D01*
X121801945Y-70169508D01*
X121552116Y-69567260D01*
X121301062Y-68972831D01*
X121061017Y-68416240D01*
X121058865Y-68411314D01*
X120785861Y-67809329D01*
X120453792Y-67114474D01*
X120075659Y-66351236D01*
X119664466Y-65544106D01*
X119233212Y-64717571D01*
X118794900Y-63896121D01*
X118362530Y-63104243D01*
X117949106Y-62366427D01*
X117567628Y-61707162D01*
X117231098Y-61150935D01*
X117069360Y-60897013D01*
X116935818Y-60668073D01*
X116848566Y-60471744D01*
X116829052Y-60385346D01*
X116872409Y-60251146D01*
X116985692Y-60041165D01*
X117133030Y-59817303D01*
X117555039Y-59138801D01*
X117944179Y-58339466D01*
X118289294Y-57452292D01*
X118579230Y-56510273D01*
X118802833Y-55546402D01*
X118948948Y-54593672D01*
X118970064Y-54383566D01*
X118983321Y-53719272D01*
X118916256Y-52932989D01*
X118770781Y-52034528D01*
X118548807Y-51033703D01*
X118252246Y-49940326D01*
X117883010Y-48764210D01*
X117864977Y-48710276D01*
X117431956Y-47418412D01*
X117750530Y-46987174D01*
X118288758Y-46148197D01*
X118747827Y-45202244D01*
X118866764Y-44904170D01*
X118969926Y-44622092D01*
X119039746Y-44388899D01*
X119082825Y-44160845D01*
X119105760Y-43894185D01*
X119115151Y-43545173D01*
X119117148Y-43244342D01*
X119116276Y-42820391D01*
X119106817Y-42514131D01*
X119083419Y-42287936D01*
X119040734Y-42104178D01*
X118973411Y-41925231D01*
X118909575Y-41784419D01*
X118580343Y-41261227D01*
X118127628Y-40823077D01*
X117560877Y-40474610D01*
X116889536Y-40220468D01*
X116123050Y-40065289D01*
X115305475Y-40013728D01*
X114808042Y-40020542D01*
X114355791Y-40047959D01*
X113920314Y-40102103D01*
X113473201Y-40189095D01*
X112986044Y-40315059D01*
X112430433Y-40486118D01*
X111777958Y-40708395D01*
X111314099Y-40873971D01*
X110954983Y-40996137D01*
X110637560Y-41090228D01*
X110396246Y-41146953D01*
X110265475Y-41157028D01*
X110129223Y-41119477D01*
X109882278Y-41048898D01*
X109562926Y-40956306D01*
X109294495Y-40877737D01*
X108931419Y-40778488D01*
X108463729Y-40661608D01*
X107939427Y-40538510D01*
X107406511Y-40420608D01*
X107119572Y-40360568D01*
X106557325Y-40250074D01*
X106087912Y-40170302D01*
X105656890Y-40114969D01*
X105209818Y-40077792D01*
X104692254Y-40052489D01*
X104352318Y-40041192D01*
X102809499Y-40045193D01*
X101356294Y-40150707D01*
X100000046Y-40356481D01*
X98748099Y-40661265D01*
X97607796Y-41063809D01*
X97150616Y-41268083D01*
X96931838Y-41374300D01*
X96761641Y-41450032D01*
X96612945Y-41492704D01*
X96458672Y-41499739D01*
X96271746Y-41468563D01*
X96025087Y-41396599D01*
X95691618Y-41281272D01*
X95244260Y-41120006D01*
X95118654Y-41074797D01*
X94732183Y-40936013D01*
X94383802Y-40810979D01*
X94107031Y-40711722D01*
X93935393Y-40650266D01*
X93914679Y-40642874D01*
X93076436Y-40399774D01*
X92212414Y-40251795D01*
X91352330Y-40199154D01*
X90525900Y-40242069D01*
X89762841Y-40380758D01*
X89109940Y-40607630D01*
X88873217Y-40701298D01*
X88688845Y-40749266D01*
X88612465Y-40746196D01*
X88566483Y-40744623D01*
X88579488Y-40774260D01*
X88562318Y-40874955D01*
X88455332Y-41014493D01*
X88442416Y-41026932D01*
X88196756Y-41354645D01*
X88018828Y-41797991D01*
X87913447Y-42330565D01*
X87885424Y-42925960D01*
X87939573Y-43557769D01*
X87959216Y-43677863D01*
X88124877Y-44387775D01*
X88367582Y-45114290D01*
X88669802Y-45818396D01*
X89014004Y-46461081D01*
X89382657Y-47003332D01*
X89535947Y-47186615D01*
X89689305Y-47390972D01*
X89782909Y-47580689D01*
X89796563Y-47652670D01*
X89772773Y-47810873D01*
X89705905Y-48099504D01*
X89600769Y-48501201D01*
X89462177Y-48998607D01*
X89294938Y-49574360D01*
X89103864Y-50211101D01*
X88941021Y-50740061D01*
X88628643Y-51794169D01*
X88385638Y-52733721D01*
X88208617Y-53581418D01*
X88094192Y-54359962D01*
X88038974Y-55092054D01*
X88039574Y-55800397D01*
X88087361Y-56458738D01*
X88195098Y-57180368D01*
X88361453Y-57901057D01*
X88573804Y-58578322D01*
X88819527Y-59169679D01*
X88983631Y-59475426D01*
X89203777Y-59812835D01*
X89447736Y-60141392D01*
X89690917Y-60432200D01*
X89908727Y-60656362D01*
X90076576Y-60784983D01*
X90110668Y-60799750D01*
X90224927Y-60874339D01*
X90251577Y-61010750D01*
X90187774Y-61227546D01*
X90030674Y-61543293D01*
X89984017Y-61626635D01*
X89804736Y-61954991D01*
X89572137Y-62400205D01*
X89298013Y-62938092D01*
X88994158Y-63544461D01*
X88672366Y-64195124D01*
X88344430Y-64865894D01*
X88022144Y-65532582D01*
X87717302Y-66170999D01*
X87441698Y-66756957D01*
X87207124Y-67266267D01*
X87025375Y-67674742D01*
X86960008Y-67828746D01*
X86844389Y-68104438D01*
X86694419Y-68457462D01*
X86537787Y-68822723D01*
X86497423Y-68916207D01*
X86317310Y-69346438D01*
X86096965Y-69894826D01*
X85847124Y-70532777D01*
X85578525Y-71231699D01*
X85301905Y-71962997D01*
X85028003Y-72698076D01*
X84767556Y-73408344D01*
X84531301Y-74065205D01*
X84329976Y-74640066D01*
X84178498Y-75091437D01*
X83857248Y-76094763D01*
X83583451Y-76981459D01*
X83349360Y-77780112D01*
X83147232Y-78519308D01*
X82969320Y-79227631D01*
X82807881Y-79933669D01*
X82655167Y-80666006D01*
X82619962Y-80843721D01*
X82526420Y-81317028D01*
X82437283Y-81762400D01*
X82359147Y-82147294D01*
X82298611Y-82439166D01*
X82266528Y-82587155D01*
X82226053Y-82802857D01*
X82175610Y-83128081D01*
X82121772Y-83517881D01*
X82073402Y-83907645D01*
X81929146Y-85235657D01*
X81824065Y-86422795D01*
X81758666Y-87478647D01*
X81733456Y-88412800D01*
X81456685Y-88412800D01*
X81456586Y-88296330D01*
X81517556Y-86442390D01*
X81686254Y-84513167D01*
X81957913Y-82540517D01*
X82327767Y-80556300D01*
X82572472Y-79518960D01*
X82729358Y-79518960D01*
X82768196Y-79557798D01*
X82807034Y-79518960D01*
X82768196Y-79480122D01*
X82729358Y-79518960D01*
X82572472Y-79518960D01*
X82673251Y-79091743D01*
X82807034Y-79091743D01*
X82835454Y-79155679D01*
X82858817Y-79143527D01*
X82868114Y-79051343D01*
X82858817Y-79039959D01*
X82812639Y-79050621D01*
X82807034Y-79091743D01*
X82673251Y-79091743D01*
X82791052Y-78592371D01*
X83048526Y-77654740D01*
X83288855Y-76846079D01*
X83564460Y-75963961D01*
X83867270Y-75031229D01*
X84189212Y-74070726D01*
X84522216Y-73105295D01*
X84858210Y-72157778D01*
X85189121Y-71251018D01*
X85506879Y-70407858D01*
X85803412Y-69651141D01*
X86070648Y-69003709D01*
X86246120Y-68605504D01*
X86337776Y-68403930D01*
X86479970Y-68089620D01*
X86659619Y-67691565D01*
X86863642Y-67238755D01*
X87078957Y-66760184D01*
X87122368Y-66663608D01*
X87485444Y-65867979D01*
X87881026Y-65022573D01*
X88290802Y-64165275D01*
X88696461Y-63333969D01*
X89079693Y-62566539D01*
X89422185Y-61900869D01*
X89450038Y-61847902D01*
X89600741Y-61551063D01*
X89718533Y-61298389D01*
X89787075Y-61126020D01*
X89797859Y-61078595D01*
X89742621Y-60969409D01*
X89601169Y-60808733D01*
X89486103Y-60702485D01*
X89064325Y-60255677D01*
X88679663Y-59676709D01*
X88343287Y-58986591D01*
X88066367Y-58206332D01*
X87968118Y-57847400D01*
X87825429Y-57111247D01*
X87735635Y-56285287D01*
X87700929Y-55426557D01*
X87723504Y-54592094D01*
X87805552Y-53838936D01*
X87812441Y-53797418D01*
X87912310Y-53269145D01*
X88040847Y-52678323D01*
X88186390Y-52072294D01*
X88337280Y-51498400D01*
X88481856Y-51003983D01*
X88555914Y-50778899D01*
X88641460Y-50521695D01*
X88756104Y-50160634D01*
X88888485Y-49733279D01*
X89027242Y-49277195D01*
X89161014Y-48829945D01*
X89278440Y-48429095D01*
X89368159Y-48112207D01*
X89408639Y-47959470D01*
X89433228Y-47796485D01*
X89400504Y-47651492D01*
X89292294Y-47472268D01*
X89192392Y-47338063D01*
X88689126Y-46592971D01*
X88251527Y-45769227D01*
X87903148Y-44917198D01*
X87667547Y-44087250D01*
X87663863Y-44069871D01*
X87591670Y-43599944D01*
X87554364Y-43076749D01*
X87552657Y-42555183D01*
X87587259Y-42090144D01*
X87634765Y-41822316D01*
X87797801Y-41391385D01*
X88055590Y-40974772D01*
X88370672Y-40626205D01*
X88579793Y-40466936D01*
X89018630Y-40241849D01*
X89525828Y-40078565D01*
X90123750Y-39972532D01*
X90834759Y-39919199D01*
X91312538Y-39910611D01*
X91761178Y-39914007D01*
X92156200Y-39929021D01*
X92521822Y-39961055D01*
X92882265Y-40015507D01*
X93261748Y-40097780D01*
X93684491Y-40213273D01*
X94174714Y-40367385D01*
X94756637Y-40565519D01*
X95454478Y-40813073D01*
X95608962Y-40868584D01*
X96487648Y-41184770D01*
X97048430Y-40922220D01*
X97966361Y-40553561D01*
X99005801Y-40245827D01*
X100143613Y-40003270D01*
X101356664Y-39830139D01*
X102621816Y-39730685D01*
X103662997Y-39707040D01*
X104357114Y-39714401D01*
X104955261Y-39736270D01*
X105503908Y-39777481D01*
X106049529Y-39842866D01*
X106638595Y-39937259D01*
X107317579Y-40065494D01*
X107541660Y-40110457D01*
X107978018Y-40203279D01*
X108440617Y-40309206D01*
X108902946Y-40421320D01*
X109338495Y-40532706D01*
X109720752Y-40636450D01*
X110023206Y-40725634D01*
X110219347Y-40793343D01*
X110279640Y-40824696D01*
X110361775Y-40813571D01*
X110562201Y-40758465D01*
X110852959Y-40667795D01*
X111206092Y-40549976D01*
X111299923Y-40517586D01*
X111930813Y-40305483D01*
X112516587Y-40125812D01*
X113121489Y-39960028D01*
X113809767Y-39789583D01*
X113877370Y-39773529D01*
X114328545Y-39702433D01*
X114877241Y-39670532D01*
X115471018Y-39676456D01*
G37*
G36*
X89021101Y-78819877D02*
G01*
X88982263Y-78858715D01*
X88943425Y-78819877D01*
X88982263Y-78781039D01*
X89021101Y-78819877D01*
G37*
G36*
X88994868Y-78450917D02*
G01*
X89005127Y-78609946D01*
X88994868Y-78645107D01*
X88966517Y-78654864D01*
X88955690Y-78548012D01*
X88967896Y-78437741D01*
X88994868Y-78450917D01*
G37*
G36*
X89098777Y-78276146D02*
G01*
X89059939Y-78314984D01*
X89021101Y-78276146D01*
X89059939Y-78237308D01*
X89098777Y-78276146D01*
G37*
G36*
X90919432Y-68401482D02*
G01*
X90947349Y-68532859D01*
X90944437Y-68628753D01*
X90923413Y-68820420D01*
X90883309Y-69113855D01*
X90823156Y-69515055D01*
X90741986Y-70030012D01*
X90638830Y-70664723D01*
X90512720Y-71425183D01*
X90362687Y-72317386D01*
X90187763Y-73347327D01*
X89986979Y-74521002D01*
X89868961Y-75207951D01*
X89790764Y-75657143D01*
X89718980Y-76059498D01*
X89658686Y-76387326D01*
X89614961Y-76612937D01*
X89594747Y-76703210D01*
X89520576Y-76825392D01*
X89433874Y-76803736D01*
X89366737Y-76657048D01*
X89371539Y-76553402D01*
X89399145Y-76314294D01*
X89446769Y-75957492D01*
X89511627Y-75500765D01*
X89590935Y-74961881D01*
X89681907Y-74358607D01*
X89781758Y-73708712D01*
X89887704Y-73029965D01*
X89996960Y-72340132D01*
X90106742Y-71656983D01*
X90214264Y-70998285D01*
X90316742Y-70381807D01*
X90411391Y-69825317D01*
X90495426Y-69346583D01*
X90566062Y-68963372D01*
X90598206Y-68799694D01*
X90674516Y-68530179D01*
X90763880Y-68366031D01*
X90850714Y-68319162D01*
X90919432Y-68401482D01*
G37*
G36*
X116421254Y-68309330D02*
G01*
X116458123Y-68323211D01*
X116493477Y-68358562D01*
X116530247Y-68428035D01*
X116571362Y-68544277D01*
X116619754Y-68719938D01*
X116678355Y-68967668D01*
X116750094Y-69300116D01*
X116837902Y-69729930D01*
X116944711Y-70269761D01*
X117073451Y-70932257D01*
X117227054Y-71730068D01*
X117290774Y-72062079D01*
X117396563Y-72613049D01*
X117502422Y-73163446D01*
X117601423Y-73677322D01*
X117686640Y-74118732D01*
X117751145Y-74451726D01*
X117762259Y-74508868D01*
X117865781Y-75070730D01*
X117936576Y-75522008D01*
X117973611Y-75853017D01*
X117975851Y-76054074D01*
X117942262Y-76115495D01*
X117933468Y-76111701D01*
X117840519Y-76122271D01*
X117818372Y-76158996D01*
X117785550Y-76147649D01*
X117736876Y-76014875D01*
X117700540Y-75868195D01*
X117658751Y-75667482D01*
X117591744Y-75336206D01*
X117503833Y-74896324D01*
X117399336Y-74369792D01*
X117282567Y-73778566D01*
X117157843Y-73144602D01*
X117029480Y-72489855D01*
X116901793Y-71836283D01*
X116779098Y-71205842D01*
X116665710Y-70620486D01*
X116565947Y-70102173D01*
X116523541Y-69880360D01*
X116422855Y-69345165D01*
X116351918Y-68943908D01*
X116309539Y-68658290D01*
X116294525Y-68470009D01*
X116305685Y-68360765D01*
X116341828Y-68312257D01*
X116401761Y-68306185D01*
X116421254Y-68309330D01*
G37*
G36*
X104340216Y-63110068D02*
G01*
X104522558Y-63170326D01*
X104662289Y-63251494D01*
X104850344Y-63496310D01*
X104916397Y-63721790D01*
X104961250Y-63918548D01*
X105022827Y-63988927D01*
X105091187Y-63976509D01*
X105240735Y-63927152D01*
X105471043Y-63866631D01*
X105575411Y-63842477D01*
X105803700Y-63803266D01*
X105976654Y-63818681D01*
X106167842Y-63902061D01*
X106291405Y-63972318D01*
X106526008Y-64133044D01*
X106660640Y-64300807D01*
X106734487Y-64500920D01*
X106784456Y-64820327D01*
X106738216Y-65113549D01*
X106584644Y-65434434D01*
X106520420Y-65537308D01*
X106173647Y-65979911D01*
X105737656Y-66357212D01*
X105508790Y-66512009D01*
X105289723Y-66630092D01*
X105078658Y-66710744D01*
X104910107Y-66746080D01*
X104818582Y-66728213D01*
X104825310Y-66668179D01*
X104916348Y-66594020D01*
X105099395Y-66484792D01*
X105231685Y-66415732D01*
X105341096Y-66347847D01*
X105662775Y-66347847D01*
X105673400Y-66352905D01*
X105744286Y-66298222D01*
X105760245Y-66275229D01*
X105780038Y-66202610D01*
X105769413Y-66197553D01*
X105698527Y-66252235D01*
X105682569Y-66275229D01*
X105662775Y-66347847D01*
X105341096Y-66347847D01*
X105584724Y-66196686D01*
X105932617Y-65905256D01*
X106242154Y-65576783D01*
X106480126Y-65246608D01*
X106613325Y-64950070D01*
X106614952Y-64943687D01*
X106611531Y-64665972D01*
X106480620Y-64408373D01*
X106249933Y-64197772D01*
X105947185Y-64061050D01*
X105665645Y-64022920D01*
X105384989Y-64084944D01*
X105109983Y-64243583D01*
X104900920Y-64458749D01*
X104841478Y-64570912D01*
X104759709Y-64721489D01*
X104679299Y-64774249D01*
X104674905Y-64773094D01*
X104622736Y-64710175D01*
X104608414Y-64556209D01*
X104631868Y-64289304D01*
X104672495Y-64012496D01*
X104698228Y-63775427D01*
X104669712Y-63624572D01*
X104573423Y-63496225D01*
X104560015Y-63482644D01*
X104317966Y-63340863D01*
X104029309Y-63326007D01*
X103729661Y-63433195D01*
X103479343Y-63630696D01*
X103193438Y-64004497D01*
X103041343Y-64400273D01*
X103002752Y-64796893D01*
X102985464Y-65045179D01*
X102941479Y-65169000D01*
X102882611Y-65158870D01*
X102820678Y-65005307D01*
X102808192Y-64953052D01*
X102789740Y-64582429D01*
X102869920Y-64184092D01*
X103004828Y-63882537D01*
X103176406Y-63664359D01*
X103400910Y-63461658D01*
X103637919Y-63302780D01*
X103847012Y-63216072D01*
X103957718Y-63214287D01*
X104063377Y-63225674D01*
X104056519Y-63176517D01*
X104063547Y-63107762D01*
X104172662Y-63087413D01*
X104340216Y-63110068D01*
G37*
G36*
X110988898Y-51088313D02*
G01*
X111138541Y-51182361D01*
X111342390Y-51361769D01*
X111381395Y-51398143D01*
X111684101Y-51723775D01*
X111878712Y-52051803D01*
X111980613Y-52424416D01*
X112005187Y-52883805D01*
X111997562Y-53087885D01*
X111924324Y-53658416D01*
X111772253Y-54098105D01*
X111537858Y-54411973D01*
X111217643Y-54605038D01*
X110891982Y-54676409D01*
X110551184Y-54656090D01*
X110329442Y-54580660D01*
X110021843Y-54341524D01*
X109772901Y-53983427D01*
X109596420Y-53536147D01*
X109506207Y-53029458D01*
X109497464Y-52786150D01*
X109517647Y-52413310D01*
X109581993Y-52114414D01*
X109707687Y-51810414D01*
X109711099Y-51803423D01*
X109929456Y-51444606D01*
X110182719Y-51216459D01*
X110502793Y-51094331D01*
X110661441Y-51069100D01*
X110845763Y-51057825D01*
X110988898Y-51088313D01*
G37*
G36*
X97696514Y-51095952D02*
G01*
X97995213Y-51244680D01*
X98201027Y-51507860D01*
X98309989Y-51872556D01*
X98318134Y-52325832D01*
X98228088Y-52829749D01*
X98015588Y-53421239D01*
X97717510Y-53909933D01*
X97345237Y-54281499D01*
X96910151Y-54521608D01*
X96874189Y-54534296D01*
X96603221Y-54608354D01*
X96392425Y-54605706D01*
X96164353Y-54521723D01*
X96096190Y-54487799D01*
X95799435Y-54255001D01*
X95620706Y-53924439D01*
X95563362Y-53503163D01*
X95568645Y-53381039D01*
X95660897Y-52853239D01*
X95844754Y-52360399D01*
X96102959Y-51921052D01*
X96418255Y-51553731D01*
X96773384Y-51276966D01*
X97151091Y-51109289D01*
X97534118Y-51069234D01*
X97696514Y-51095952D01*
G37*
G36*
X104424438Y-51952339D02*
G01*
X104690145Y-51968268D01*
X104896327Y-52007796D01*
X105090814Y-52079129D01*
X105258789Y-52158941D01*
X105637828Y-52403508D01*
X105868072Y-52682315D01*
X105948035Y-52991104D01*
X105876231Y-53325615D01*
X105746277Y-53556546D01*
X105544080Y-53785691D01*
X105288074Y-53998257D01*
X105201438Y-54054226D01*
X104768863Y-54252614D01*
X104253139Y-54403113D01*
X103698655Y-54500133D01*
X103149799Y-54538087D01*
X102650960Y-54511385D01*
X102269983Y-54423316D01*
X101882934Y-54214872D01*
X101617325Y-53934489D01*
X101473686Y-53607772D01*
X101452550Y-53260328D01*
X101554446Y-52917763D01*
X101779907Y-52605683D01*
X102129462Y-52349695D01*
X102225994Y-52302114D01*
X102644742Y-52136295D01*
X103063176Y-52029283D01*
X103533833Y-51970996D01*
X104051376Y-51951805D01*
X104424438Y-51952339D01*
G37*
%TO.C,U1*%
D14*
X88400000Y-76560000D02*
X88400000Y-76700000D01*
X87730000Y-74700000D02*
X88400000Y-74700000D01*
X88400000Y-74700000D02*
X88400000Y-74840000D01*
X86400000Y-74840000D02*
X86400000Y-74700000D01*
X86400000Y-74700000D02*
X87080000Y-74700000D01*
X86400000Y-76700000D02*
X86400000Y-76560000D01*
X87080000Y-76700000D02*
X86400000Y-76700000D01*
X88400000Y-76700000D02*
X87730000Y-76700000D01*
D15*
X86630000Y-74900000D02*
G75*
G02*
X86570000Y-74900000I-30000J0D01*
G01*
X86570000Y-74900000D02*
G75*
G02*
X86630000Y-74900000I30000J0D01*
G01*
D14*
X86190000Y-75190000D02*
G75*
G02*
X86070000Y-75190000I-60000J0D01*
G01*
X86070000Y-75190000D02*
G75*
G02*
X86190000Y-75190000I60000J0D01*
G01*
%TO.C,R4*%
D12*
X103777500Y-53412258D02*
X103777500Y-52937742D01*
X104822500Y-53412258D02*
X104822500Y-52937742D01*
%TO.C,R3*%
X102277500Y-53412258D02*
X102277500Y-52937742D01*
X103322500Y-53412258D02*
X103322500Y-52937742D01*
%TO.C,J1*%
X99700000Y-129260000D02*
X99700000Y-131260000D01*
X99700000Y-133160000D02*
X99700000Y-135060000D01*
X99700000Y-135060000D02*
X109100000Y-135060000D01*
X109100000Y-129260000D02*
X109100000Y-131260000D01*
X109100000Y-133160000D02*
X109100000Y-135060000D01*
%TO.C,D2*%
X111935000Y-50240000D02*
X109665000Y-50240000D01*
X109665000Y-50240000D02*
X109665000Y-54300000D01*
X111935000Y-54300000D02*
X111935000Y-50240000D01*
%TO.C,C2*%
X103746267Y-56010000D02*
X103453733Y-56010000D01*
X103746267Y-54990000D02*
X103453733Y-54990000D01*
%TO.C,C1*%
X100110000Y-62640000D02*
X100110000Y-67160000D01*
X100110000Y-67160000D02*
X108350000Y-67160000D01*
X108350000Y-62640000D02*
X100110000Y-62640000D01*
%TD*%
M02*
