%TF.GenerationSoftware,KiCad,Pcbnew,10.0.3*%
%TF.CreationDate,2026-07-02T20:48:44+08:00*%
%TF.ProjectId,soup-soup-soup-sahur,736f7570-2d73-46f7-9570-2d736f75702d,rev?*%
%TF.SameCoordinates,Original*%
%TF.FileFunction,Legend,Top*%
%TF.FilePolarity,Positive*%
%FSLAX46Y46*%
G04 Gerber Fmt 4.6, Leading zero omitted, Abs format (unit mm)*
G04 Created by KiCad (PCBNEW 10.0.3) date 2026-07-02 20:48:44*
%MOMM*%
%LPD*%
G01*
G04 APERTURE LIST*
%ADD10C,0.100000*%
%ADD11C,0.120000*%
%ADD12C,0.250000*%
%ADD13C,0.060000*%
%ADD14C,0.000000*%
G04 APERTURE END LIST*
D10*
X97680074Y-69362475D02*
X97203884Y-69362475D01*
X97203884Y-69362475D02*
X97156265Y-69838665D01*
X97156265Y-69838665D02*
X97203884Y-69791046D01*
X97203884Y-69791046D02*
X97299122Y-69743427D01*
X97299122Y-69743427D02*
X97537217Y-69743427D01*
X97537217Y-69743427D02*
X97632455Y-69791046D01*
X97632455Y-69791046D02*
X97680074Y-69838665D01*
X97680074Y-69838665D02*
X97727693Y-69933903D01*
X97727693Y-69933903D02*
X97727693Y-70171998D01*
X97727693Y-70171998D02*
X97680074Y-70267236D01*
X97680074Y-70267236D02*
X97632455Y-70314856D01*
X97632455Y-70314856D02*
X97537217Y-70362475D01*
X97537217Y-70362475D02*
X97299122Y-70362475D01*
X97299122Y-70362475D02*
X97203884Y-70314856D01*
X97203884Y-70314856D02*
X97156265Y-70267236D01*
X98061027Y-69695808D02*
X98299122Y-70362475D01*
X98299122Y-70362475D02*
X98537217Y-69695808D01*
X99680075Y-69695808D02*
X99680075Y-70695808D01*
X99680075Y-69743427D02*
X99775313Y-69695808D01*
X99775313Y-69695808D02*
X99965789Y-69695808D01*
X99965789Y-69695808D02*
X100061027Y-69743427D01*
X100061027Y-69743427D02*
X100108646Y-69791046D01*
X100108646Y-69791046D02*
X100156265Y-69886284D01*
X100156265Y-69886284D02*
X100156265Y-70171998D01*
X100156265Y-70171998D02*
X100108646Y-70267236D01*
X100108646Y-70267236D02*
X100061027Y-70314856D01*
X100061027Y-70314856D02*
X99965789Y-70362475D01*
X99965789Y-70362475D02*
X99775313Y-70362475D01*
X99775313Y-70362475D02*
X99680075Y-70314856D01*
X100727694Y-70362475D02*
X100632456Y-70314856D01*
X100632456Y-70314856D02*
X100584837Y-70267236D01*
X100584837Y-70267236D02*
X100537218Y-70171998D01*
X100537218Y-70171998D02*
X100537218Y-69886284D01*
X100537218Y-69886284D02*
X100584837Y-69791046D01*
X100584837Y-69791046D02*
X100632456Y-69743427D01*
X100632456Y-69743427D02*
X100727694Y-69695808D01*
X100727694Y-69695808D02*
X100870551Y-69695808D01*
X100870551Y-69695808D02*
X100965789Y-69743427D01*
X100965789Y-69743427D02*
X101013408Y-69791046D01*
X101013408Y-69791046D02*
X101061027Y-69886284D01*
X101061027Y-69886284D02*
X101061027Y-70171998D01*
X101061027Y-70171998D02*
X101013408Y-70267236D01*
X101013408Y-70267236D02*
X100965789Y-70314856D01*
X100965789Y-70314856D02*
X100870551Y-70362475D01*
X100870551Y-70362475D02*
X100727694Y-70362475D01*
X101394361Y-69695808D02*
X101584837Y-70362475D01*
X101584837Y-70362475D02*
X101775313Y-69886284D01*
X101775313Y-69886284D02*
X101965789Y-70362475D01*
X101965789Y-70362475D02*
X102156265Y-69695808D01*
X102918170Y-70314856D02*
X102822932Y-70362475D01*
X102822932Y-70362475D02*
X102632456Y-70362475D01*
X102632456Y-70362475D02*
X102537218Y-70314856D01*
X102537218Y-70314856D02*
X102489599Y-70219617D01*
X102489599Y-70219617D02*
X102489599Y-69838665D01*
X102489599Y-69838665D02*
X102537218Y-69743427D01*
X102537218Y-69743427D02*
X102632456Y-69695808D01*
X102632456Y-69695808D02*
X102822932Y-69695808D01*
X102822932Y-69695808D02*
X102918170Y-69743427D01*
X102918170Y-69743427D02*
X102965789Y-69838665D01*
X102965789Y-69838665D02*
X102965789Y-69933903D01*
X102965789Y-69933903D02*
X102489599Y-70029141D01*
X103394361Y-70362475D02*
X103394361Y-69695808D01*
X103394361Y-69886284D02*
X103441980Y-69791046D01*
X103441980Y-69791046D02*
X103489599Y-69743427D01*
X103489599Y-69743427D02*
X103584837Y-69695808D01*
X103584837Y-69695808D02*
X103680075Y-69695808D01*
X105203885Y-69695808D02*
X105203885Y-70505332D01*
X105203885Y-70505332D02*
X105156266Y-70600570D01*
X105156266Y-70600570D02*
X105108647Y-70648189D01*
X105108647Y-70648189D02*
X105013409Y-70695808D01*
X105013409Y-70695808D02*
X104870552Y-70695808D01*
X104870552Y-70695808D02*
X104775314Y-70648189D01*
X105203885Y-70314856D02*
X105108647Y-70362475D01*
X105108647Y-70362475D02*
X104918171Y-70362475D01*
X104918171Y-70362475D02*
X104822933Y-70314856D01*
X104822933Y-70314856D02*
X104775314Y-70267236D01*
X104775314Y-70267236D02*
X104727695Y-70171998D01*
X104727695Y-70171998D02*
X104727695Y-69886284D01*
X104727695Y-69886284D02*
X104775314Y-69791046D01*
X104775314Y-69791046D02*
X104822933Y-69743427D01*
X104822933Y-69743427D02*
X104918171Y-69695808D01*
X104918171Y-69695808D02*
X105108647Y-69695808D01*
X105108647Y-69695808D02*
X105203885Y-69743427D01*
X105822933Y-70362475D02*
X105727695Y-70314856D01*
X105727695Y-70314856D02*
X105680076Y-70267236D01*
X105680076Y-70267236D02*
X105632457Y-70171998D01*
X105632457Y-70171998D02*
X105632457Y-69886284D01*
X105632457Y-69886284D02*
X105680076Y-69791046D01*
X105680076Y-69791046D02*
X105727695Y-69743427D01*
X105727695Y-69743427D02*
X105822933Y-69695808D01*
X105822933Y-69695808D02*
X105965790Y-69695808D01*
X105965790Y-69695808D02*
X106061028Y-69743427D01*
X106061028Y-69743427D02*
X106108647Y-69791046D01*
X106108647Y-69791046D02*
X106156266Y-69886284D01*
X106156266Y-69886284D02*
X106156266Y-70171998D01*
X106156266Y-70171998D02*
X106108647Y-70267236D01*
X106108647Y-70267236D02*
X106061028Y-70314856D01*
X106061028Y-70314856D02*
X105965790Y-70362475D01*
X105965790Y-70362475D02*
X105822933Y-70362475D01*
X107299124Y-69457713D02*
X107346743Y-69410094D01*
X107346743Y-69410094D02*
X107441981Y-69362475D01*
X107441981Y-69362475D02*
X107680076Y-69362475D01*
X107680076Y-69362475D02*
X107775314Y-69410094D01*
X107775314Y-69410094D02*
X107822933Y-69457713D01*
X107822933Y-69457713D02*
X107870552Y-69552951D01*
X107870552Y-69552951D02*
X107870552Y-69648189D01*
X107870552Y-69648189D02*
X107822933Y-69791046D01*
X107822933Y-69791046D02*
X107251505Y-70362475D01*
X107251505Y-70362475D02*
X107870552Y-70362475D01*
X108203886Y-69695808D02*
X108441981Y-70362475D01*
X108441981Y-70362475D02*
X108680076Y-69695808D01*
X110251505Y-70314856D02*
X110156267Y-70362475D01*
X110156267Y-70362475D02*
X109965791Y-70362475D01*
X109965791Y-70362475D02*
X109870553Y-70314856D01*
X109870553Y-70314856D02*
X109822934Y-70267236D01*
X109822934Y-70267236D02*
X109775315Y-70171998D01*
X109775315Y-70171998D02*
X109775315Y-69886284D01*
X109775315Y-69886284D02*
X109822934Y-69791046D01*
X109822934Y-69791046D02*
X109870553Y-69743427D01*
X109870553Y-69743427D02*
X109965791Y-69695808D01*
X109965791Y-69695808D02*
X110156267Y-69695808D01*
X110156267Y-69695808D02*
X110251505Y-69743427D01*
X111108648Y-70362475D02*
X111108648Y-69838665D01*
X111108648Y-69838665D02*
X111061029Y-69743427D01*
X111061029Y-69743427D02*
X110965791Y-69695808D01*
X110965791Y-69695808D02*
X110775315Y-69695808D01*
X110775315Y-69695808D02*
X110680077Y-69743427D01*
X111108648Y-70314856D02*
X111013410Y-70362475D01*
X111013410Y-70362475D02*
X110775315Y-70362475D01*
X110775315Y-70362475D02*
X110680077Y-70314856D01*
X110680077Y-70314856D02*
X110632458Y-70219617D01*
X110632458Y-70219617D02*
X110632458Y-70124379D01*
X110632458Y-70124379D02*
X110680077Y-70029141D01*
X110680077Y-70029141D02*
X110775315Y-69981522D01*
X110775315Y-69981522D02*
X111013410Y-69981522D01*
X111013410Y-69981522D02*
X111108648Y-69933903D01*
X111584839Y-69695808D02*
X111584839Y-70695808D01*
X111584839Y-69743427D02*
X111680077Y-69695808D01*
X111680077Y-69695808D02*
X111870553Y-69695808D01*
X111870553Y-69695808D02*
X111965791Y-69743427D01*
X111965791Y-69743427D02*
X112013410Y-69791046D01*
X112013410Y-69791046D02*
X112061029Y-69886284D01*
X112061029Y-69886284D02*
X112061029Y-70171998D01*
X112061029Y-70171998D02*
X112013410Y-70267236D01*
X112013410Y-70267236D02*
X111965791Y-70314856D01*
X111965791Y-70314856D02*
X111870553Y-70362475D01*
X111870553Y-70362475D02*
X111680077Y-70362475D01*
X111680077Y-70362475D02*
X111584839Y-70314856D01*
X97632455Y-71924800D02*
X97537217Y-71972419D01*
X97537217Y-71972419D02*
X97346741Y-71972419D01*
X97346741Y-71972419D02*
X97251503Y-71924800D01*
X97251503Y-71924800D02*
X97203884Y-71877180D01*
X97203884Y-71877180D02*
X97156265Y-71781942D01*
X97156265Y-71781942D02*
X97156265Y-71496228D01*
X97156265Y-71496228D02*
X97203884Y-71400990D01*
X97203884Y-71400990D02*
X97251503Y-71353371D01*
X97251503Y-71353371D02*
X97346741Y-71305752D01*
X97346741Y-71305752D02*
X97537217Y-71305752D01*
X97537217Y-71305752D02*
X97632455Y-71353371D01*
X98489598Y-71972419D02*
X98489598Y-71448609D01*
X98489598Y-71448609D02*
X98441979Y-71353371D01*
X98441979Y-71353371D02*
X98346741Y-71305752D01*
X98346741Y-71305752D02*
X98156265Y-71305752D01*
X98156265Y-71305752D02*
X98061027Y-71353371D01*
X98489598Y-71924800D02*
X98394360Y-71972419D01*
X98394360Y-71972419D02*
X98156265Y-71972419D01*
X98156265Y-71972419D02*
X98061027Y-71924800D01*
X98061027Y-71924800D02*
X98013408Y-71829561D01*
X98013408Y-71829561D02*
X98013408Y-71734323D01*
X98013408Y-71734323D02*
X98061027Y-71639085D01*
X98061027Y-71639085D02*
X98156265Y-71591466D01*
X98156265Y-71591466D02*
X98394360Y-71591466D01*
X98394360Y-71591466D02*
X98489598Y-71543847D01*
X98965789Y-71305752D02*
X98965789Y-72305752D01*
X98965789Y-71353371D02*
X99061027Y-71305752D01*
X99061027Y-71305752D02*
X99251503Y-71305752D01*
X99251503Y-71305752D02*
X99346741Y-71353371D01*
X99346741Y-71353371D02*
X99394360Y-71400990D01*
X99394360Y-71400990D02*
X99441979Y-71496228D01*
X99441979Y-71496228D02*
X99441979Y-71781942D01*
X99441979Y-71781942D02*
X99394360Y-71877180D01*
X99394360Y-71877180D02*
X99346741Y-71924800D01*
X99346741Y-71924800D02*
X99251503Y-71972419D01*
X99251503Y-71972419D02*
X99061027Y-71972419D01*
X99061027Y-71972419D02*
X98965789Y-71924800D01*
X101061027Y-71305752D02*
X101061027Y-72115276D01*
X101061027Y-72115276D02*
X101013408Y-72210514D01*
X101013408Y-72210514D02*
X100965789Y-72258133D01*
X100965789Y-72258133D02*
X100870551Y-72305752D01*
X100870551Y-72305752D02*
X100727694Y-72305752D01*
X100727694Y-72305752D02*
X100632456Y-72258133D01*
X101061027Y-71924800D02*
X100965789Y-71972419D01*
X100965789Y-71972419D02*
X100775313Y-71972419D01*
X100775313Y-71972419D02*
X100680075Y-71924800D01*
X100680075Y-71924800D02*
X100632456Y-71877180D01*
X100632456Y-71877180D02*
X100584837Y-71781942D01*
X100584837Y-71781942D02*
X100584837Y-71496228D01*
X100584837Y-71496228D02*
X100632456Y-71400990D01*
X100632456Y-71400990D02*
X100680075Y-71353371D01*
X100680075Y-71353371D02*
X100775313Y-71305752D01*
X100775313Y-71305752D02*
X100965789Y-71305752D01*
X100965789Y-71305752D02*
X101061027Y-71353371D01*
X101680075Y-71972419D02*
X101584837Y-71924800D01*
X101584837Y-71924800D02*
X101537218Y-71877180D01*
X101537218Y-71877180D02*
X101489599Y-71781942D01*
X101489599Y-71781942D02*
X101489599Y-71496228D01*
X101489599Y-71496228D02*
X101537218Y-71400990D01*
X101537218Y-71400990D02*
X101584837Y-71353371D01*
X101584837Y-71353371D02*
X101680075Y-71305752D01*
X101680075Y-71305752D02*
X101822932Y-71305752D01*
X101822932Y-71305752D02*
X101918170Y-71353371D01*
X101918170Y-71353371D02*
X101965789Y-71400990D01*
X101965789Y-71400990D02*
X102013408Y-71496228D01*
X102013408Y-71496228D02*
X102013408Y-71781942D01*
X102013408Y-71781942D02*
X101965789Y-71877180D01*
X101965789Y-71877180D02*
X101918170Y-71924800D01*
X101918170Y-71924800D02*
X101822932Y-71972419D01*
X101822932Y-71972419D02*
X101680075Y-71972419D01*
X103203885Y-71972419D02*
X103203885Y-70972419D01*
X103299123Y-71591466D02*
X103584837Y-71972419D01*
X103584837Y-71305752D02*
X103203885Y-71686704D01*
X104441980Y-71972419D02*
X104441980Y-71448609D01*
X104441980Y-71448609D02*
X104394361Y-71353371D01*
X104394361Y-71353371D02*
X104299123Y-71305752D01*
X104299123Y-71305752D02*
X104108647Y-71305752D01*
X104108647Y-71305752D02*
X104013409Y-71353371D01*
X104441980Y-71924800D02*
X104346742Y-71972419D01*
X104346742Y-71972419D02*
X104108647Y-71972419D01*
X104108647Y-71972419D02*
X104013409Y-71924800D01*
X104013409Y-71924800D02*
X103965790Y-71829561D01*
X103965790Y-71829561D02*
X103965790Y-71734323D01*
X103965790Y-71734323D02*
X104013409Y-71639085D01*
X104013409Y-71639085D02*
X104108647Y-71591466D01*
X104108647Y-71591466D02*
X104346742Y-71591466D01*
X104346742Y-71591466D02*
X104441980Y-71543847D01*
X104918171Y-71972419D02*
X104918171Y-70972419D01*
X104918171Y-71353371D02*
X105013409Y-71305752D01*
X105013409Y-71305752D02*
X105203885Y-71305752D01*
X105203885Y-71305752D02*
X105299123Y-71353371D01*
X105299123Y-71353371D02*
X105346742Y-71400990D01*
X105346742Y-71400990D02*
X105394361Y-71496228D01*
X105394361Y-71496228D02*
X105394361Y-71781942D01*
X105394361Y-71781942D02*
X105346742Y-71877180D01*
X105346742Y-71877180D02*
X105299123Y-71924800D01*
X105299123Y-71924800D02*
X105203885Y-71972419D01*
X105203885Y-71972419D02*
X105013409Y-71972419D01*
X105013409Y-71972419D02*
X104918171Y-71924800D01*
X105965790Y-71972419D02*
X105870552Y-71924800D01*
X105870552Y-71924800D02*
X105822933Y-71877180D01*
X105822933Y-71877180D02*
X105775314Y-71781942D01*
X105775314Y-71781942D02*
X105775314Y-71496228D01*
X105775314Y-71496228D02*
X105822933Y-71400990D01*
X105822933Y-71400990D02*
X105870552Y-71353371D01*
X105870552Y-71353371D02*
X105965790Y-71305752D01*
X105965790Y-71305752D02*
X106108647Y-71305752D01*
X106108647Y-71305752D02*
X106203885Y-71353371D01*
X106203885Y-71353371D02*
X106251504Y-71400990D01*
X106251504Y-71400990D02*
X106299123Y-71496228D01*
X106299123Y-71496228D02*
X106299123Y-71781942D01*
X106299123Y-71781942D02*
X106251504Y-71877180D01*
X106251504Y-71877180D02*
X106203885Y-71924800D01*
X106203885Y-71924800D02*
X106108647Y-71972419D01*
X106108647Y-71972419D02*
X105965790Y-71972419D01*
X106870552Y-71972419D02*
X106775314Y-71924800D01*
X106775314Y-71924800D02*
X106727695Y-71877180D01*
X106727695Y-71877180D02*
X106680076Y-71781942D01*
X106680076Y-71781942D02*
X106680076Y-71496228D01*
X106680076Y-71496228D02*
X106727695Y-71400990D01*
X106727695Y-71400990D02*
X106775314Y-71353371D01*
X106775314Y-71353371D02*
X106870552Y-71305752D01*
X106870552Y-71305752D02*
X107013409Y-71305752D01*
X107013409Y-71305752D02*
X107108647Y-71353371D01*
X107108647Y-71353371D02*
X107156266Y-71400990D01*
X107156266Y-71400990D02*
X107203885Y-71496228D01*
X107203885Y-71496228D02*
X107203885Y-71781942D01*
X107203885Y-71781942D02*
X107156266Y-71877180D01*
X107156266Y-71877180D02*
X107108647Y-71924800D01*
X107108647Y-71924800D02*
X107013409Y-71972419D01*
X107013409Y-71972419D02*
X106870552Y-71972419D01*
X107632457Y-71972419D02*
X107632457Y-71305752D01*
X107632457Y-71400990D02*
X107680076Y-71353371D01*
X107680076Y-71353371D02*
X107775314Y-71305752D01*
X107775314Y-71305752D02*
X107918171Y-71305752D01*
X107918171Y-71305752D02*
X108013409Y-71353371D01*
X108013409Y-71353371D02*
X108061028Y-71448609D01*
X108061028Y-71448609D02*
X108061028Y-71972419D01*
X108061028Y-71448609D02*
X108108647Y-71353371D01*
X108108647Y-71353371D02*
X108203885Y-71305752D01*
X108203885Y-71305752D02*
X108346742Y-71305752D01*
X108346742Y-71305752D02*
X108441981Y-71353371D01*
X108441981Y-71353371D02*
X108489600Y-71448609D01*
X108489600Y-71448609D02*
X108489600Y-71972419D01*
X83156907Y-95280553D02*
X84122833Y-95539372D01*
X83068169Y-95611728D02*
X83574130Y-95747299D01*
X83574130Y-95747299D02*
X83675983Y-95735152D01*
X83675983Y-95735152D02*
X83741699Y-95673882D01*
X83741699Y-95673882D02*
X83771278Y-95563491D01*
X83771278Y-95563491D02*
X83745001Y-95477572D01*
X83745001Y-95477572D02*
X83708865Y-95428450D01*
X83643101Y-96041854D02*
X83564223Y-96336232D01*
X83935497Y-96238519D02*
X83107561Y-96016674D01*
X83107561Y-96016674D02*
X83005708Y-96028822D01*
X83005708Y-96028822D02*
X82939992Y-96090091D01*
X82939992Y-96090091D02*
X82920272Y-96163686D01*
X83524784Y-96483421D02*
X83445905Y-96777798D01*
X83817180Y-96680085D02*
X82989243Y-96458240D01*
X82989243Y-96458240D02*
X82887390Y-96470388D01*
X82887390Y-96470388D02*
X82821674Y-96531658D01*
X82821674Y-96531658D02*
X82801955Y-96605252D01*
X83376887Y-97035378D02*
X82410961Y-96776559D01*
X83330891Y-97023054D02*
X83357167Y-97108973D01*
X83357167Y-97108973D02*
X83317728Y-97256161D01*
X83317728Y-97256161D02*
X83252012Y-97317431D01*
X83252012Y-97317431D02*
X83196156Y-97341903D01*
X83196156Y-97341903D02*
X83094303Y-97354051D01*
X83094303Y-97354051D02*
X82818325Y-97280103D01*
X82818325Y-97280103D02*
X82736191Y-97218656D01*
X82736191Y-97218656D02*
X82700055Y-97169534D01*
X82700055Y-97169534D02*
X82673778Y-97083615D01*
X82673778Y-97083615D02*
X82713217Y-96936427D01*
X82713217Y-96936427D02*
X82778933Y-96875157D01*
X82601457Y-97537507D02*
X82535741Y-97598776D01*
X82535741Y-97598776D02*
X82496302Y-97745965D01*
X82496302Y-97745965D02*
X82522579Y-97831884D01*
X82522579Y-97831884D02*
X82604712Y-97893331D01*
X82604712Y-97893331D02*
X82650708Y-97905655D01*
X82650708Y-97905655D02*
X82752561Y-97893508D01*
X82752561Y-97893508D02*
X82818277Y-97832238D01*
X82818277Y-97832238D02*
X82847856Y-97721846D01*
X82847856Y-97721846D02*
X82913572Y-97660577D01*
X82913572Y-97660577D02*
X83015425Y-97648429D01*
X83015425Y-97648429D02*
X83061422Y-97660754D01*
X83061422Y-97660754D02*
X83143555Y-97722200D01*
X83143555Y-97722200D02*
X83169832Y-97808119D01*
X83169832Y-97808119D02*
X83140252Y-97918511D01*
X83140252Y-97918511D02*
X83074536Y-97979781D01*
X82469977Y-98212180D02*
X82414121Y-98236653D01*
X82414121Y-98236653D02*
X82377985Y-98187531D01*
X82377985Y-98187531D02*
X82433841Y-98163059D01*
X82433841Y-98163059D02*
X82469977Y-98212180D01*
X82469977Y-98212180D02*
X82377985Y-98187531D01*
X82975939Y-98347752D02*
X82920082Y-98372225D01*
X82920082Y-98372225D02*
X82883946Y-98323103D01*
X82883946Y-98323103D02*
X82939802Y-98298630D01*
X82939802Y-98298630D02*
X82975939Y-98347752D01*
X82975939Y-98347752D02*
X82883946Y-98323103D01*
X83143413Y-99378604D02*
X82078984Y-98383487D01*
X82926498Y-100188141D02*
X81862069Y-99193025D01*
X82400770Y-100678298D02*
X81618830Y-100468778D01*
X81618830Y-100468778D02*
X81536696Y-100407331D01*
X81536696Y-100407331D02*
X81500560Y-100358209D01*
X81500560Y-100358209D02*
X81474283Y-100272290D01*
X81474283Y-100272290D02*
X81503862Y-100161899D01*
X81503862Y-100161899D02*
X81569578Y-100100629D01*
X81802816Y-100518077D02*
X81776539Y-100432158D01*
X81776539Y-100432158D02*
X81815978Y-100284969D01*
X81815978Y-100284969D02*
X81881694Y-100223699D01*
X81881694Y-100223699D02*
X81937550Y-100199227D01*
X81937550Y-100199227D02*
X82039403Y-100187079D01*
X82039403Y-100187079D02*
X82315381Y-100261028D01*
X82315381Y-100261028D02*
X82397515Y-100322474D01*
X82397515Y-100322474D02*
X82433651Y-100371596D01*
X82433651Y-100371596D02*
X82459928Y-100457515D01*
X82459928Y-100457515D02*
X82420489Y-100604704D01*
X82420489Y-100604704D02*
X82354773Y-100665973D01*
X81658221Y-100873724D02*
X82302172Y-101046270D01*
X82624147Y-101132543D02*
X82588010Y-101083421D01*
X82588010Y-101083421D02*
X82532154Y-101107894D01*
X82532154Y-101107894D02*
X82568291Y-101157016D01*
X82568291Y-101157016D02*
X82624147Y-101132543D01*
X82624147Y-101132543D02*
X82532154Y-101107894D01*
X82233153Y-101303850D02*
X82154275Y-101598228D01*
X82525549Y-101500515D02*
X81697613Y-101278670D01*
X81697613Y-101278670D02*
X81595760Y-101290818D01*
X81595760Y-101290818D02*
X81530044Y-101352087D01*
X81530044Y-101352087D02*
X81510325Y-101425682D01*
X81441306Y-101683262D02*
X82407232Y-101942081D01*
X81352568Y-102014437D02*
X81858529Y-102150008D01*
X81858529Y-102150008D02*
X81960382Y-102137861D01*
X81960382Y-102137861D02*
X82026098Y-102076591D01*
X82026098Y-102076591D02*
X82055677Y-101966199D01*
X82055677Y-101966199D02*
X82029401Y-101880280D01*
X82029401Y-101880280D02*
X81993264Y-101831159D01*
X81809183Y-102886129D02*
X81165232Y-102713583D01*
X81897921Y-102554955D02*
X81391960Y-102419383D01*
X81391960Y-102419383D02*
X81290107Y-102431531D01*
X81290107Y-102431531D02*
X81224391Y-102492800D01*
X81224391Y-102492800D02*
X81194812Y-102603192D01*
X81194812Y-102603192D02*
X81221089Y-102689111D01*
X81221089Y-102689111D02*
X81257225Y-102738233D01*
X81066635Y-103081555D02*
X82032560Y-103340375D01*
X81664589Y-103241777D02*
X81690866Y-103327696D01*
X81690866Y-103327696D02*
X81651427Y-103474885D01*
X81651427Y-103474885D02*
X81585711Y-103536154D01*
X81585711Y-103536154D02*
X81529854Y-103560627D01*
X81529854Y-103560627D02*
X81428002Y-103572774D01*
X81428002Y-103572774D02*
X81152023Y-103498826D01*
X81152023Y-103498826D02*
X81069890Y-103437379D01*
X81069890Y-103437379D02*
X81033753Y-103388258D01*
X81033753Y-103388258D02*
X81007476Y-103302339D01*
X81007476Y-103302339D02*
X81046915Y-103155150D01*
X81046915Y-103155150D02*
X81112631Y-103093880D01*
X80971292Y-103805352D02*
X80915436Y-103829824D01*
X80915436Y-103829824D02*
X80879299Y-103780702D01*
X80879299Y-103780702D02*
X80935155Y-103756230D01*
X80935155Y-103756230D02*
X80971292Y-103805352D01*
X80971292Y-103805352D02*
X80879299Y-103780702D01*
X80737960Y-104492173D02*
X80711683Y-104406254D01*
X80711683Y-104406254D02*
X80751122Y-104259065D01*
X80751122Y-104259065D02*
X80816838Y-104197796D01*
X80816838Y-104197796D02*
X80872694Y-104173323D01*
X80872694Y-104173323D02*
X80974547Y-104161175D01*
X80974547Y-104161175D02*
X81250526Y-104235124D01*
X81250526Y-104235124D02*
X81332659Y-104296570D01*
X81332659Y-104296570D02*
X81368795Y-104345692D01*
X81368795Y-104345692D02*
X81395072Y-104431611D01*
X81395072Y-104431611D02*
X81355633Y-104578800D01*
X81355633Y-104578800D02*
X81289917Y-104640070D01*
X80573646Y-104921414D02*
X80639362Y-104860144D01*
X80639362Y-104860144D02*
X80695218Y-104835672D01*
X80695218Y-104835672D02*
X80797071Y-104823524D01*
X80797071Y-104823524D02*
X81073050Y-104897472D01*
X81073050Y-104897472D02*
X81155183Y-104958919D01*
X81155183Y-104958919D02*
X81191320Y-105008041D01*
X81191320Y-105008041D02*
X81217597Y-105093960D01*
X81217597Y-105093960D02*
X81188017Y-105204352D01*
X81188017Y-105204352D02*
X81122301Y-105265621D01*
X81122301Y-105265621D02*
X81066445Y-105290094D01*
X81066445Y-105290094D02*
X80964592Y-105302241D01*
X80964592Y-105302241D02*
X80688613Y-105228293D01*
X80688613Y-105228293D02*
X80606480Y-105166846D01*
X80606480Y-105166846D02*
X80570344Y-105117725D01*
X80570344Y-105117725D02*
X80544067Y-105031806D01*
X80544067Y-105031806D02*
X80573646Y-104921414D01*
X80415890Y-105510169D02*
X81059840Y-105682715D01*
X80967847Y-105658066D02*
X81003984Y-105707188D01*
X81003984Y-105707188D02*
X81030261Y-105793107D01*
X81030261Y-105793107D02*
X81000681Y-105903498D01*
X81000681Y-105903498D02*
X80934965Y-105964768D01*
X80934965Y-105964768D02*
X80833113Y-105976916D01*
X80833113Y-105976916D02*
X80327152Y-105841344D01*
X80833113Y-105976916D02*
X80915246Y-106038362D01*
X80915246Y-106038362D02*
X80941523Y-106124281D01*
X80941523Y-106124281D02*
X80911943Y-106234673D01*
X80911943Y-106234673D02*
X80846227Y-106295943D01*
X80846227Y-106295943D02*
X80744375Y-106308090D01*
X80744375Y-106308090D02*
X80238414Y-106172518D01*
X81003841Y-107363592D02*
X79939413Y-106368475D01*
X80849388Y-107756036D02*
X80829668Y-107829630D01*
X80829668Y-107829630D02*
X80763952Y-107890900D01*
X80763952Y-107890900D02*
X80708096Y-107915372D01*
X80708096Y-107915372D02*
X80606243Y-107927520D01*
X80606243Y-107927520D02*
X80412397Y-107915018D01*
X80412397Y-107915018D02*
X80182415Y-107853395D01*
X80182415Y-107853395D02*
X80008289Y-107767299D01*
X80008289Y-107767299D02*
X79926156Y-107705852D01*
X79926156Y-107705852D02*
X79890019Y-107656730D01*
X79890019Y-107656730D02*
X79863742Y-107570811D01*
X79863742Y-107570811D02*
X79883462Y-107497217D01*
X79883462Y-107497217D02*
X79949178Y-107435947D01*
X79949178Y-107435947D02*
X80005034Y-107411475D01*
X80005034Y-107411475D02*
X80106887Y-107399327D01*
X80106887Y-107399327D02*
X80300732Y-107411829D01*
X80300732Y-107411829D02*
X80530715Y-107473452D01*
X80530715Y-107473452D02*
X80704841Y-107559548D01*
X80704841Y-107559548D02*
X80786974Y-107620995D01*
X80786974Y-107620995D02*
X80823111Y-107670117D01*
X80823111Y-107670117D02*
X80849388Y-107756036D01*
X79745425Y-108012377D02*
X80280918Y-108589692D01*
X80389375Y-108184923D02*
X79636967Y-108417146D01*
X80435277Y-109301517D02*
X80474716Y-109154329D01*
X80474716Y-109154329D02*
X80448439Y-109068410D01*
X80448439Y-109068410D02*
X80412303Y-109019288D01*
X80412303Y-109019288D02*
X80294033Y-108908719D01*
X80294033Y-108908719D02*
X80119907Y-108822623D01*
X80119907Y-108822623D02*
X79751935Y-108724025D01*
X79751935Y-108724025D02*
X79650082Y-108736173D01*
X79650082Y-108736173D02*
X79594226Y-108760646D01*
X79594226Y-108760646D02*
X79528510Y-108821915D01*
X79528510Y-108821915D02*
X79489071Y-108969104D01*
X79489071Y-108969104D02*
X79515348Y-109055023D01*
X79515348Y-109055023D02*
X79551484Y-109104145D01*
X79551484Y-109104145D02*
X79633618Y-109165591D01*
X79633618Y-109165591D02*
X79863600Y-109227215D01*
X79863600Y-109227215D02*
X79965453Y-109215067D01*
X79965453Y-109215067D02*
X80021309Y-109190595D01*
X80021309Y-109190595D02*
X80087025Y-109129325D01*
X80087025Y-109129325D02*
X80126464Y-108982137D01*
X80126464Y-108982137D02*
X80100187Y-108896217D01*
X80100187Y-108896217D02*
X80064050Y-108847096D01*
X80064050Y-108847096D02*
X79981917Y-108785649D01*
X80244686Y-109644840D02*
X80280823Y-109693962D01*
X80280823Y-109693962D02*
X80307100Y-109779881D01*
X80307100Y-109779881D02*
X80257801Y-109963867D01*
X80257801Y-109963867D02*
X80192085Y-110025136D01*
X80192085Y-110025136D02*
X80136229Y-110049609D01*
X80136229Y-110049609D02*
X80034376Y-110061757D01*
X80034376Y-110061757D02*
X79942383Y-110037107D01*
X79942383Y-110037107D02*
X79814254Y-109963336D01*
X79814254Y-109963336D02*
X79380613Y-109373873D01*
X79380613Y-109373873D02*
X79252436Y-109852236D01*
X79163698Y-110183411D02*
X80129624Y-110442230D01*
X79761652Y-110343632D02*
X79787929Y-110429552D01*
X79787929Y-110429552D02*
X79748490Y-110576740D01*
X79748490Y-110576740D02*
X79682774Y-110638010D01*
X79682774Y-110638010D02*
X79626918Y-110662482D01*
X79626918Y-110662482D02*
X79525065Y-110674630D01*
X79525065Y-110674630D02*
X79249086Y-110600682D01*
X79249086Y-110600682D02*
X79166953Y-110539235D01*
X79166953Y-110539235D02*
X79130816Y-110490113D01*
X79130816Y-110490113D02*
X79104539Y-110404194D01*
X79104539Y-110404194D02*
X79143979Y-110257005D01*
X79143979Y-110257005D02*
X79209695Y-110195736D01*
X79840388Y-111705659D02*
X78775959Y-110710543D01*
X78815304Y-111667623D02*
X78749588Y-111728893D01*
X78749588Y-111728893D02*
X78710149Y-111876081D01*
X78710149Y-111876081D02*
X78736425Y-111962000D01*
X78736425Y-111962000D02*
X78818559Y-112023447D01*
X78818559Y-112023447D02*
X78864555Y-112035772D01*
X78864555Y-112035772D02*
X78966408Y-112023624D01*
X78966408Y-112023624D02*
X79032124Y-111962354D01*
X79032124Y-111962354D02*
X79061703Y-111851963D01*
X79061703Y-111851963D02*
X79127419Y-111790693D01*
X79127419Y-111790693D02*
X79229272Y-111778546D01*
X79229272Y-111778546D02*
X79275268Y-111790870D01*
X79275268Y-111790870D02*
X79357401Y-111852317D01*
X79357401Y-111852317D02*
X79383678Y-111938236D01*
X79383678Y-111938236D02*
X79354099Y-112048627D01*
X79354099Y-112048627D02*
X79288383Y-112109897D01*
X78562252Y-112428039D02*
X78627968Y-112366769D01*
X78627968Y-112366769D02*
X78683824Y-112342297D01*
X78683824Y-112342297D02*
X78785677Y-112330149D01*
X78785677Y-112330149D02*
X79061656Y-112404097D01*
X79061656Y-112404097D02*
X79143789Y-112465544D01*
X79143789Y-112465544D02*
X79179926Y-112514666D01*
X79179926Y-112514666D02*
X79206202Y-112600585D01*
X79206202Y-112600585D02*
X79176623Y-112710977D01*
X79176623Y-112710977D02*
X79110907Y-112772246D01*
X79110907Y-112772246D02*
X79055051Y-112796719D01*
X79055051Y-112796719D02*
X78953198Y-112808866D01*
X78953198Y-112808866D02*
X78677219Y-112734918D01*
X78677219Y-112734918D02*
X78595086Y-112673471D01*
X78595086Y-112673471D02*
X78558950Y-112624350D01*
X78558950Y-112624350D02*
X78532673Y-112538430D01*
X78532673Y-112538430D02*
X78562252Y-112428039D01*
X78959708Y-113520515D02*
X78315757Y-113347969D01*
X79048446Y-113189340D02*
X78542485Y-113053768D01*
X78542485Y-113053768D02*
X78440632Y-113065916D01*
X78440632Y-113065916D02*
X78374916Y-113127186D01*
X78374916Y-113127186D02*
X78345337Y-113237577D01*
X78345337Y-113237577D02*
X78371614Y-113323496D01*
X78371614Y-113323496D02*
X78407750Y-113372618D01*
X78861110Y-113888487D02*
X77895184Y-113629668D01*
X78815114Y-113876162D02*
X78841391Y-113962081D01*
X78841391Y-113962081D02*
X78801952Y-114109270D01*
X78801952Y-114109270D02*
X78736236Y-114170540D01*
X78736236Y-114170540D02*
X78680379Y-114195012D01*
X78680379Y-114195012D02*
X78578527Y-114207160D01*
X78578527Y-114207160D02*
X78302548Y-114133212D01*
X78302548Y-114133212D02*
X78220415Y-114071765D01*
X78220415Y-114071765D02*
X78184278Y-114022643D01*
X78184278Y-114022643D02*
X78158001Y-113936724D01*
X78158001Y-113936724D02*
X78197440Y-113789535D01*
X78197440Y-113789535D02*
X78263156Y-113728266D01*
X78397796Y-114513685D02*
X78240039Y-115102440D01*
X77829326Y-115347342D02*
X77763610Y-115408611D01*
X77763610Y-115408611D02*
X77724171Y-115555800D01*
X77724171Y-115555800D02*
X77750448Y-115641719D01*
X77750448Y-115641719D02*
X77832581Y-115703166D01*
X77832581Y-115703166D02*
X77878577Y-115715490D01*
X77878577Y-115715490D02*
X77980430Y-115703343D01*
X77980430Y-115703343D02*
X78046146Y-115642073D01*
X78046146Y-115642073D02*
X78075725Y-115531681D01*
X78075725Y-115531681D02*
X78141441Y-115470412D01*
X78141441Y-115470412D02*
X78243294Y-115458264D01*
X78243294Y-115458264D02*
X78289291Y-115470589D01*
X78289291Y-115470589D02*
X78371424Y-115532035D01*
X78371424Y-115532035D02*
X78397701Y-115617954D01*
X78397701Y-115617954D02*
X78368121Y-115728346D01*
X78368121Y-115728346D02*
X78302405Y-115789616D01*
X77576274Y-116107758D02*
X77641990Y-116046488D01*
X77641990Y-116046488D02*
X77697847Y-116022015D01*
X77697847Y-116022015D02*
X77799699Y-116009868D01*
X77799699Y-116009868D02*
X78075678Y-116083816D01*
X78075678Y-116083816D02*
X78157811Y-116145263D01*
X78157811Y-116145263D02*
X78193948Y-116194385D01*
X78193948Y-116194385D02*
X78220225Y-116280304D01*
X78220225Y-116280304D02*
X78190646Y-116390695D01*
X78190646Y-116390695D02*
X78124930Y-116451965D01*
X78124930Y-116451965D02*
X78069073Y-116476437D01*
X78069073Y-116476437D02*
X77967221Y-116488585D01*
X77967221Y-116488585D02*
X77691242Y-116414637D01*
X77691242Y-116414637D02*
X77609109Y-116353190D01*
X77609109Y-116353190D02*
X77572972Y-116304068D01*
X77572972Y-116304068D02*
X77546695Y-116218149D01*
X77546695Y-116218149D02*
X77576274Y-116107758D01*
X77973730Y-117200233D02*
X77329780Y-117027687D01*
X78062468Y-116869059D02*
X77556507Y-116733487D01*
X77556507Y-116733487D02*
X77454655Y-116745635D01*
X77454655Y-116745635D02*
X77388938Y-116806904D01*
X77388938Y-116806904D02*
X77359359Y-116917296D01*
X77359359Y-116917296D02*
X77385636Y-117003215D01*
X77385636Y-117003215D02*
X77421773Y-117052337D01*
X77875133Y-117568206D02*
X76909207Y-117309387D01*
X77829136Y-117555881D02*
X77855413Y-117641800D01*
X77855413Y-117641800D02*
X77815974Y-117788989D01*
X77815974Y-117788989D02*
X77750258Y-117850258D01*
X77750258Y-117850258D02*
X77694402Y-117874731D01*
X77694402Y-117874731D02*
X77592549Y-117886878D01*
X77592549Y-117886878D02*
X77316570Y-117812930D01*
X77316570Y-117812930D02*
X77234437Y-117751484D01*
X77234437Y-117751484D02*
X77198300Y-117702362D01*
X77198300Y-117702362D02*
X77172023Y-117616443D01*
X77172023Y-117616443D02*
X77211462Y-117469254D01*
X77211462Y-117469254D02*
X77277178Y-117407984D01*
X77411818Y-118193404D02*
X77254062Y-118782159D01*
X76843348Y-119027060D02*
X76777632Y-119088330D01*
X76777632Y-119088330D02*
X76738193Y-119235519D01*
X76738193Y-119235519D02*
X76764470Y-119321438D01*
X76764470Y-119321438D02*
X76846603Y-119382884D01*
X76846603Y-119382884D02*
X76892600Y-119395209D01*
X76892600Y-119395209D02*
X76994453Y-119383061D01*
X76994453Y-119383061D02*
X77060169Y-119321792D01*
X77060169Y-119321792D02*
X77089748Y-119211400D01*
X77089748Y-119211400D02*
X77155464Y-119150130D01*
X77155464Y-119150130D02*
X77257317Y-119137983D01*
X77257317Y-119137983D02*
X77303313Y-119150307D01*
X77303313Y-119150307D02*
X77385446Y-119211754D01*
X77385446Y-119211754D02*
X77411723Y-119297673D01*
X77411723Y-119297673D02*
X77382144Y-119408065D01*
X77382144Y-119408065D02*
X77316428Y-119469334D01*
X76590297Y-119787476D02*
X76656013Y-119726206D01*
X76656013Y-119726206D02*
X76711869Y-119701734D01*
X76711869Y-119701734D02*
X76813722Y-119689586D01*
X76813722Y-119689586D02*
X77089700Y-119763535D01*
X77089700Y-119763535D02*
X77171834Y-119824981D01*
X77171834Y-119824981D02*
X77207970Y-119874103D01*
X77207970Y-119874103D02*
X77234247Y-119960022D01*
X77234247Y-119960022D02*
X77204668Y-120070414D01*
X77204668Y-120070414D02*
X77138952Y-120131683D01*
X77138952Y-120131683D02*
X77083096Y-120156156D01*
X77083096Y-120156156D02*
X76981243Y-120168304D01*
X76981243Y-120168304D02*
X76705264Y-120094355D01*
X76705264Y-120094355D02*
X76623131Y-120032909D01*
X76623131Y-120032909D02*
X76586994Y-119983787D01*
X76586994Y-119983787D02*
X76560717Y-119897868D01*
X76560717Y-119897868D02*
X76590297Y-119787476D01*
X76987753Y-120879952D02*
X76343802Y-120707406D01*
X77076491Y-120548777D02*
X76570530Y-120413206D01*
X76570530Y-120413206D02*
X76468677Y-120425353D01*
X76468677Y-120425353D02*
X76402961Y-120486623D01*
X76402961Y-120486623D02*
X76373382Y-120597014D01*
X76373382Y-120597014D02*
X76399658Y-120682933D01*
X76399658Y-120682933D02*
X76435795Y-120732055D01*
X76889155Y-121247924D02*
X75923229Y-120989105D01*
X76843158Y-121235599D02*
X76869435Y-121321519D01*
X76869435Y-121321519D02*
X76829996Y-121468707D01*
X76829996Y-121468707D02*
X76764280Y-121529977D01*
X76764280Y-121529977D02*
X76708424Y-121554449D01*
X76708424Y-121554449D02*
X76606571Y-121566597D01*
X76606571Y-121566597D02*
X76330593Y-121492649D01*
X76330593Y-121492649D02*
X76248459Y-121431202D01*
X76248459Y-121431202D02*
X76212323Y-121382080D01*
X76212323Y-121382080D02*
X76186046Y-121296161D01*
X76186046Y-121296161D02*
X76225485Y-121148972D01*
X76225485Y-121148972D02*
X76291201Y-121087703D01*
X76425840Y-121873123D02*
X76268084Y-122461877D01*
X75857371Y-122706779D02*
X75791655Y-122768048D01*
X75791655Y-122768048D02*
X75752216Y-122915237D01*
X75752216Y-122915237D02*
X75778493Y-123001156D01*
X75778493Y-123001156D02*
X75860626Y-123062603D01*
X75860626Y-123062603D02*
X75906622Y-123074928D01*
X75906622Y-123074928D02*
X76008475Y-123062780D01*
X76008475Y-123062780D02*
X76074191Y-123001510D01*
X76074191Y-123001510D02*
X76103770Y-122891119D01*
X76103770Y-122891119D02*
X76169486Y-122829849D01*
X76169486Y-122829849D02*
X76271339Y-122817701D01*
X76271339Y-122817701D02*
X76317335Y-122830026D01*
X76317335Y-122830026D02*
X76399469Y-122891473D01*
X76399469Y-122891473D02*
X76425746Y-122977392D01*
X76425746Y-122977392D02*
X76396166Y-123087783D01*
X76396166Y-123087783D02*
X76330450Y-123149053D01*
X75545160Y-123687978D02*
X76051122Y-123823550D01*
X76051122Y-123823550D02*
X76152974Y-123811402D01*
X76152974Y-123811402D02*
X76218690Y-123750132D01*
X76218690Y-123750132D02*
X76258129Y-123602944D01*
X76258129Y-123602944D02*
X76231852Y-123517024D01*
X75591157Y-123700302D02*
X75564880Y-123614383D01*
X75564880Y-123614383D02*
X75614179Y-123430398D01*
X75614179Y-123430398D02*
X75679895Y-123369128D01*
X75679895Y-123369128D02*
X75781748Y-123356980D01*
X75781748Y-123356980D02*
X75873740Y-123381630D01*
X75873740Y-123381630D02*
X75955874Y-123443076D01*
X75955874Y-123443076D02*
X75982151Y-123528995D01*
X75982151Y-123528995D02*
X75932852Y-123712981D01*
X75932852Y-123712981D02*
X75959129Y-123798900D01*
X75446563Y-124055950D02*
X76412488Y-124314769D01*
X75357825Y-124387125D02*
X75863786Y-124522696D01*
X75863786Y-124522696D02*
X75965638Y-124510549D01*
X75965638Y-124510549D02*
X76031354Y-124449279D01*
X76031354Y-124449279D02*
X76060934Y-124338888D01*
X76060934Y-124338888D02*
X76034657Y-124252968D01*
X76034657Y-124252968D02*
X75998520Y-124203847D01*
X75814439Y-125258817D02*
X75170489Y-125086271D01*
X75903177Y-124927643D02*
X75397216Y-124792071D01*
X75397216Y-124792071D02*
X75295363Y-124804219D01*
X75295363Y-124804219D02*
X75229647Y-124865488D01*
X75229647Y-124865488D02*
X75200068Y-124975880D01*
X75200068Y-124975880D02*
X75226345Y-125061799D01*
X75226345Y-125061799D02*
X75262482Y-125110921D01*
X75071891Y-125454243D02*
X75715841Y-125626790D01*
X75531856Y-125577491D02*
X75613989Y-125638937D01*
X75613989Y-125638937D02*
X75650125Y-125688059D01*
X75650125Y-125688059D02*
X75676402Y-125773978D01*
X75676402Y-125773978D02*
X75656683Y-125847573D01*
X96256265Y-42814856D02*
X96351503Y-42862475D01*
X96351503Y-42862475D02*
X96541979Y-42862475D01*
X96541979Y-42862475D02*
X96637217Y-42814856D01*
X96637217Y-42814856D02*
X96684836Y-42719617D01*
X96684836Y-42719617D02*
X96684836Y-42671998D01*
X96684836Y-42671998D02*
X96637217Y-42576760D01*
X96637217Y-42576760D02*
X96541979Y-42529141D01*
X96541979Y-42529141D02*
X96399122Y-42529141D01*
X96399122Y-42529141D02*
X96303884Y-42481522D01*
X96303884Y-42481522D02*
X96256265Y-42386284D01*
X96256265Y-42386284D02*
X96256265Y-42338665D01*
X96256265Y-42338665D02*
X96303884Y-42243427D01*
X96303884Y-42243427D02*
X96399122Y-42195808D01*
X96399122Y-42195808D02*
X96541979Y-42195808D01*
X96541979Y-42195808D02*
X96637217Y-42243427D01*
X97256265Y-42862475D02*
X97161027Y-42814856D01*
X97161027Y-42814856D02*
X97113408Y-42767236D01*
X97113408Y-42767236D02*
X97065789Y-42671998D01*
X97065789Y-42671998D02*
X97065789Y-42386284D01*
X97065789Y-42386284D02*
X97113408Y-42291046D01*
X97113408Y-42291046D02*
X97161027Y-42243427D01*
X97161027Y-42243427D02*
X97256265Y-42195808D01*
X97256265Y-42195808D02*
X97399122Y-42195808D01*
X97399122Y-42195808D02*
X97494360Y-42243427D01*
X97494360Y-42243427D02*
X97541979Y-42291046D01*
X97541979Y-42291046D02*
X97589598Y-42386284D01*
X97589598Y-42386284D02*
X97589598Y-42671998D01*
X97589598Y-42671998D02*
X97541979Y-42767236D01*
X97541979Y-42767236D02*
X97494360Y-42814856D01*
X97494360Y-42814856D02*
X97399122Y-42862475D01*
X97399122Y-42862475D02*
X97256265Y-42862475D01*
X98446741Y-42195808D02*
X98446741Y-42862475D01*
X98018170Y-42195808D02*
X98018170Y-42719617D01*
X98018170Y-42719617D02*
X98065789Y-42814856D01*
X98065789Y-42814856D02*
X98161027Y-42862475D01*
X98161027Y-42862475D02*
X98303884Y-42862475D01*
X98303884Y-42862475D02*
X98399122Y-42814856D01*
X98399122Y-42814856D02*
X98446741Y-42767236D01*
X98922932Y-42195808D02*
X98922932Y-43195808D01*
X98922932Y-42243427D02*
X99018170Y-42195808D01*
X99018170Y-42195808D02*
X99208646Y-42195808D01*
X99208646Y-42195808D02*
X99303884Y-42243427D01*
X99303884Y-42243427D02*
X99351503Y-42291046D01*
X99351503Y-42291046D02*
X99399122Y-42386284D01*
X99399122Y-42386284D02*
X99399122Y-42671998D01*
X99399122Y-42671998D02*
X99351503Y-42767236D01*
X99351503Y-42767236D02*
X99303884Y-42814856D01*
X99303884Y-42814856D02*
X99208646Y-42862475D01*
X99208646Y-42862475D02*
X99018170Y-42862475D01*
X99018170Y-42862475D02*
X98922932Y-42814856D01*
X100541980Y-42814856D02*
X100637218Y-42862475D01*
X100637218Y-42862475D02*
X100827694Y-42862475D01*
X100827694Y-42862475D02*
X100922932Y-42814856D01*
X100922932Y-42814856D02*
X100970551Y-42719617D01*
X100970551Y-42719617D02*
X100970551Y-42671998D01*
X100970551Y-42671998D02*
X100922932Y-42576760D01*
X100922932Y-42576760D02*
X100827694Y-42529141D01*
X100827694Y-42529141D02*
X100684837Y-42529141D01*
X100684837Y-42529141D02*
X100589599Y-42481522D01*
X100589599Y-42481522D02*
X100541980Y-42386284D01*
X100541980Y-42386284D02*
X100541980Y-42338665D01*
X100541980Y-42338665D02*
X100589599Y-42243427D01*
X100589599Y-42243427D02*
X100684837Y-42195808D01*
X100684837Y-42195808D02*
X100827694Y-42195808D01*
X100827694Y-42195808D02*
X100922932Y-42243427D01*
X101541980Y-42862475D02*
X101446742Y-42814856D01*
X101446742Y-42814856D02*
X101399123Y-42767236D01*
X101399123Y-42767236D02*
X101351504Y-42671998D01*
X101351504Y-42671998D02*
X101351504Y-42386284D01*
X101351504Y-42386284D02*
X101399123Y-42291046D01*
X101399123Y-42291046D02*
X101446742Y-42243427D01*
X101446742Y-42243427D02*
X101541980Y-42195808D01*
X101541980Y-42195808D02*
X101684837Y-42195808D01*
X101684837Y-42195808D02*
X101780075Y-42243427D01*
X101780075Y-42243427D02*
X101827694Y-42291046D01*
X101827694Y-42291046D02*
X101875313Y-42386284D01*
X101875313Y-42386284D02*
X101875313Y-42671998D01*
X101875313Y-42671998D02*
X101827694Y-42767236D01*
X101827694Y-42767236D02*
X101780075Y-42814856D01*
X101780075Y-42814856D02*
X101684837Y-42862475D01*
X101684837Y-42862475D02*
X101541980Y-42862475D01*
X102732456Y-42195808D02*
X102732456Y-42862475D01*
X102303885Y-42195808D02*
X102303885Y-42719617D01*
X102303885Y-42719617D02*
X102351504Y-42814856D01*
X102351504Y-42814856D02*
X102446742Y-42862475D01*
X102446742Y-42862475D02*
X102589599Y-42862475D01*
X102589599Y-42862475D02*
X102684837Y-42814856D01*
X102684837Y-42814856D02*
X102732456Y-42767236D01*
X103208647Y-42195808D02*
X103208647Y-43195808D01*
X103208647Y-42243427D02*
X103303885Y-42195808D01*
X103303885Y-42195808D02*
X103494361Y-42195808D01*
X103494361Y-42195808D02*
X103589599Y-42243427D01*
X103589599Y-42243427D02*
X103637218Y-42291046D01*
X103637218Y-42291046D02*
X103684837Y-42386284D01*
X103684837Y-42386284D02*
X103684837Y-42671998D01*
X103684837Y-42671998D02*
X103637218Y-42767236D01*
X103637218Y-42767236D02*
X103589599Y-42814856D01*
X103589599Y-42814856D02*
X103494361Y-42862475D01*
X103494361Y-42862475D02*
X103303885Y-42862475D01*
X103303885Y-42862475D02*
X103208647Y-42814856D01*
X104827695Y-42814856D02*
X104922933Y-42862475D01*
X104922933Y-42862475D02*
X105113409Y-42862475D01*
X105113409Y-42862475D02*
X105208647Y-42814856D01*
X105208647Y-42814856D02*
X105256266Y-42719617D01*
X105256266Y-42719617D02*
X105256266Y-42671998D01*
X105256266Y-42671998D02*
X105208647Y-42576760D01*
X105208647Y-42576760D02*
X105113409Y-42529141D01*
X105113409Y-42529141D02*
X104970552Y-42529141D01*
X104970552Y-42529141D02*
X104875314Y-42481522D01*
X104875314Y-42481522D02*
X104827695Y-42386284D01*
X104827695Y-42386284D02*
X104827695Y-42338665D01*
X104827695Y-42338665D02*
X104875314Y-42243427D01*
X104875314Y-42243427D02*
X104970552Y-42195808D01*
X104970552Y-42195808D02*
X105113409Y-42195808D01*
X105113409Y-42195808D02*
X105208647Y-42243427D01*
X105827695Y-42862475D02*
X105732457Y-42814856D01*
X105732457Y-42814856D02*
X105684838Y-42767236D01*
X105684838Y-42767236D02*
X105637219Y-42671998D01*
X105637219Y-42671998D02*
X105637219Y-42386284D01*
X105637219Y-42386284D02*
X105684838Y-42291046D01*
X105684838Y-42291046D02*
X105732457Y-42243427D01*
X105732457Y-42243427D02*
X105827695Y-42195808D01*
X105827695Y-42195808D02*
X105970552Y-42195808D01*
X105970552Y-42195808D02*
X106065790Y-42243427D01*
X106065790Y-42243427D02*
X106113409Y-42291046D01*
X106113409Y-42291046D02*
X106161028Y-42386284D01*
X106161028Y-42386284D02*
X106161028Y-42671998D01*
X106161028Y-42671998D02*
X106113409Y-42767236D01*
X106113409Y-42767236D02*
X106065790Y-42814856D01*
X106065790Y-42814856D02*
X105970552Y-42862475D01*
X105970552Y-42862475D02*
X105827695Y-42862475D01*
X107018171Y-42195808D02*
X107018171Y-42862475D01*
X106589600Y-42195808D02*
X106589600Y-42719617D01*
X106589600Y-42719617D02*
X106637219Y-42814856D01*
X106637219Y-42814856D02*
X106732457Y-42862475D01*
X106732457Y-42862475D02*
X106875314Y-42862475D01*
X106875314Y-42862475D02*
X106970552Y-42814856D01*
X106970552Y-42814856D02*
X107018171Y-42767236D01*
X107494362Y-42195808D02*
X107494362Y-43195808D01*
X107494362Y-42243427D02*
X107589600Y-42195808D01*
X107589600Y-42195808D02*
X107780076Y-42195808D01*
X107780076Y-42195808D02*
X107875314Y-42243427D01*
X107875314Y-42243427D02*
X107922933Y-42291046D01*
X107922933Y-42291046D02*
X107970552Y-42386284D01*
X107970552Y-42386284D02*
X107970552Y-42671998D01*
X107970552Y-42671998D02*
X107922933Y-42767236D01*
X107922933Y-42767236D02*
X107875314Y-42814856D01*
X107875314Y-42814856D02*
X107780076Y-42862475D01*
X107780076Y-42862475D02*
X107589600Y-42862475D01*
X107589600Y-42862475D02*
X107494362Y-42814856D01*
X109113410Y-42814856D02*
X109208648Y-42862475D01*
X109208648Y-42862475D02*
X109399124Y-42862475D01*
X109399124Y-42862475D02*
X109494362Y-42814856D01*
X109494362Y-42814856D02*
X109541981Y-42719617D01*
X109541981Y-42719617D02*
X109541981Y-42671998D01*
X109541981Y-42671998D02*
X109494362Y-42576760D01*
X109494362Y-42576760D02*
X109399124Y-42529141D01*
X109399124Y-42529141D02*
X109256267Y-42529141D01*
X109256267Y-42529141D02*
X109161029Y-42481522D01*
X109161029Y-42481522D02*
X109113410Y-42386284D01*
X109113410Y-42386284D02*
X109113410Y-42338665D01*
X109113410Y-42338665D02*
X109161029Y-42243427D01*
X109161029Y-42243427D02*
X109256267Y-42195808D01*
X109256267Y-42195808D02*
X109399124Y-42195808D01*
X109399124Y-42195808D02*
X109494362Y-42243427D01*
X110399124Y-42862475D02*
X110399124Y-42338665D01*
X110399124Y-42338665D02*
X110351505Y-42243427D01*
X110351505Y-42243427D02*
X110256267Y-42195808D01*
X110256267Y-42195808D02*
X110065791Y-42195808D01*
X110065791Y-42195808D02*
X109970553Y-42243427D01*
X110399124Y-42814856D02*
X110303886Y-42862475D01*
X110303886Y-42862475D02*
X110065791Y-42862475D01*
X110065791Y-42862475D02*
X109970553Y-42814856D01*
X109970553Y-42814856D02*
X109922934Y-42719617D01*
X109922934Y-42719617D02*
X109922934Y-42624379D01*
X109922934Y-42624379D02*
X109970553Y-42529141D01*
X109970553Y-42529141D02*
X110065791Y-42481522D01*
X110065791Y-42481522D02*
X110303886Y-42481522D01*
X110303886Y-42481522D02*
X110399124Y-42433903D01*
X110875315Y-42862475D02*
X110875315Y-41862475D01*
X111303886Y-42862475D02*
X111303886Y-42338665D01*
X111303886Y-42338665D02*
X111256267Y-42243427D01*
X111256267Y-42243427D02*
X111161029Y-42195808D01*
X111161029Y-42195808D02*
X111018172Y-42195808D01*
X111018172Y-42195808D02*
X110922934Y-42243427D01*
X110922934Y-42243427D02*
X110875315Y-42291046D01*
X112208648Y-42195808D02*
X112208648Y-42862475D01*
X111780077Y-42195808D02*
X111780077Y-42719617D01*
X111780077Y-42719617D02*
X111827696Y-42814856D01*
X111827696Y-42814856D02*
X111922934Y-42862475D01*
X111922934Y-42862475D02*
X112065791Y-42862475D01*
X112065791Y-42862475D02*
X112161029Y-42814856D01*
X112161029Y-42814856D02*
X112208648Y-42767236D01*
X112684839Y-42862475D02*
X112684839Y-42195808D01*
X112684839Y-42386284D02*
X112732458Y-42291046D01*
X112732458Y-42291046D02*
X112780077Y-42243427D01*
X112780077Y-42243427D02*
X112875315Y-42195808D01*
X112875315Y-42195808D02*
X112970553Y-42195808D01*
X96589598Y-44853371D02*
X96541979Y-44805752D01*
X96541979Y-44805752D02*
X96446741Y-44662895D01*
X96446741Y-44662895D02*
X96399122Y-44567657D01*
X96399122Y-44567657D02*
X96351503Y-44424800D01*
X96351503Y-44424800D02*
X96303884Y-44186704D01*
X96303884Y-44186704D02*
X96303884Y-43996228D01*
X96303884Y-43996228D02*
X96351503Y-43758133D01*
X96351503Y-43758133D02*
X96399122Y-43615276D01*
X96399122Y-43615276D02*
X96446741Y-43520038D01*
X96446741Y-43520038D02*
X96541979Y-43377180D01*
X96541979Y-43377180D02*
X96589598Y-43329561D01*
X96827694Y-43805752D02*
X97208646Y-43805752D01*
X96970551Y-43472419D02*
X96970551Y-44329561D01*
X96970551Y-44329561D02*
X97018170Y-44424800D01*
X97018170Y-44424800D02*
X97113408Y-44472419D01*
X97113408Y-44472419D02*
X97208646Y-44472419D01*
X97541980Y-44472419D02*
X97541980Y-43805752D01*
X97541980Y-43996228D02*
X97589599Y-43900990D01*
X97589599Y-43900990D02*
X97637218Y-43853371D01*
X97637218Y-43853371D02*
X97732456Y-43805752D01*
X97732456Y-43805752D02*
X97827694Y-43805752D01*
X98161028Y-44472419D02*
X98161028Y-43805752D01*
X98161028Y-43472419D02*
X98113409Y-43520038D01*
X98113409Y-43520038D02*
X98161028Y-43567657D01*
X98161028Y-43567657D02*
X98208647Y-43520038D01*
X98208647Y-43520038D02*
X98161028Y-43472419D01*
X98161028Y-43472419D02*
X98161028Y-43567657D01*
X98637218Y-43805752D02*
X98637218Y-44805752D01*
X98637218Y-43853371D02*
X98732456Y-43805752D01*
X98732456Y-43805752D02*
X98922932Y-43805752D01*
X98922932Y-43805752D02*
X99018170Y-43853371D01*
X99018170Y-43853371D02*
X99065789Y-43900990D01*
X99065789Y-43900990D02*
X99113408Y-43996228D01*
X99113408Y-43996228D02*
X99113408Y-44281942D01*
X99113408Y-44281942D02*
X99065789Y-44377180D01*
X99065789Y-44377180D02*
X99018170Y-44424800D01*
X99018170Y-44424800D02*
X98922932Y-44472419D01*
X98922932Y-44472419D02*
X98732456Y-44472419D01*
X98732456Y-44472419D02*
X98637218Y-44424800D01*
X99684837Y-44472419D02*
X99589599Y-44424800D01*
X99589599Y-44424800D02*
X99541980Y-44329561D01*
X99541980Y-44329561D02*
X99541980Y-43472419D01*
X100446742Y-44424800D02*
X100351504Y-44472419D01*
X100351504Y-44472419D02*
X100161028Y-44472419D01*
X100161028Y-44472419D02*
X100065790Y-44424800D01*
X100065790Y-44424800D02*
X100018171Y-44329561D01*
X100018171Y-44329561D02*
X100018171Y-43948609D01*
X100018171Y-43948609D02*
X100065790Y-43853371D01*
X100065790Y-43853371D02*
X100161028Y-43805752D01*
X100161028Y-43805752D02*
X100351504Y-43805752D01*
X100351504Y-43805752D02*
X100446742Y-43853371D01*
X100446742Y-43853371D02*
X100494361Y-43948609D01*
X100494361Y-43948609D02*
X100494361Y-44043847D01*
X100494361Y-44043847D02*
X100018171Y-44139085D01*
X101637219Y-44424800D02*
X101732457Y-44472419D01*
X101732457Y-44472419D02*
X101922933Y-44472419D01*
X101922933Y-44472419D02*
X102018171Y-44424800D01*
X102018171Y-44424800D02*
X102065790Y-44329561D01*
X102065790Y-44329561D02*
X102065790Y-44281942D01*
X102065790Y-44281942D02*
X102018171Y-44186704D01*
X102018171Y-44186704D02*
X101922933Y-44139085D01*
X101922933Y-44139085D02*
X101780076Y-44139085D01*
X101780076Y-44139085D02*
X101684838Y-44091466D01*
X101684838Y-44091466D02*
X101637219Y-43996228D01*
X101637219Y-43996228D02*
X101637219Y-43948609D01*
X101637219Y-43948609D02*
X101684838Y-43853371D01*
X101684838Y-43853371D02*
X101780076Y-43805752D01*
X101780076Y-43805752D02*
X101922933Y-43805752D01*
X101922933Y-43805752D02*
X102018171Y-43853371D01*
X102399124Y-44853371D02*
X102446743Y-44805752D01*
X102446743Y-44805752D02*
X102541981Y-44662895D01*
X102541981Y-44662895D02*
X102589600Y-44567657D01*
X102589600Y-44567657D02*
X102637219Y-44424800D01*
X102637219Y-44424800D02*
X102684838Y-44186704D01*
X102684838Y-44186704D02*
X102684838Y-43996228D01*
X102684838Y-43996228D02*
X102637219Y-43758133D01*
X102637219Y-43758133D02*
X102589600Y-43615276D01*
X102589600Y-43615276D02*
X102541981Y-43520038D01*
X102541981Y-43520038D02*
X102446743Y-43377180D01*
X102446743Y-43377180D02*
X102399124Y-43329561D01*
X94932455Y-83965976D02*
X94932455Y-84775500D01*
X94932455Y-84775500D02*
X94884836Y-84870738D01*
X94884836Y-84870738D02*
X94837217Y-84918357D01*
X94837217Y-84918357D02*
X94741979Y-84965976D01*
X94741979Y-84965976D02*
X94599122Y-84965976D01*
X94599122Y-84965976D02*
X94503884Y-84918357D01*
X94932455Y-84585024D02*
X94837217Y-84632643D01*
X94837217Y-84632643D02*
X94646741Y-84632643D01*
X94646741Y-84632643D02*
X94551503Y-84585024D01*
X94551503Y-84585024D02*
X94503884Y-84537404D01*
X94503884Y-84537404D02*
X94456265Y-84442166D01*
X94456265Y-84442166D02*
X94456265Y-84156452D01*
X94456265Y-84156452D02*
X94503884Y-84061214D01*
X94503884Y-84061214D02*
X94551503Y-84013595D01*
X94551503Y-84013595D02*
X94646741Y-83965976D01*
X94646741Y-83965976D02*
X94837217Y-83965976D01*
X94837217Y-83965976D02*
X94932455Y-84013595D01*
X95408646Y-84632643D02*
X95408646Y-83965976D01*
X95408646Y-83632643D02*
X95361027Y-83680262D01*
X95361027Y-83680262D02*
X95408646Y-83727881D01*
X95408646Y-83727881D02*
X95456265Y-83680262D01*
X95456265Y-83680262D02*
X95408646Y-83632643D01*
X95408646Y-83632643D02*
X95408646Y-83727881D01*
X95741979Y-83965976D02*
X96122931Y-83965976D01*
X95884836Y-83632643D02*
X95884836Y-84489785D01*
X95884836Y-84489785D02*
X95932455Y-84585024D01*
X95932455Y-84585024D02*
X96027693Y-84632643D01*
X96027693Y-84632643D02*
X96122931Y-84632643D01*
X96456265Y-84632643D02*
X96456265Y-83632643D01*
X96884836Y-84632643D02*
X96884836Y-84108833D01*
X96884836Y-84108833D02*
X96837217Y-84013595D01*
X96837217Y-84013595D02*
X96741979Y-83965976D01*
X96741979Y-83965976D02*
X96599122Y-83965976D01*
X96599122Y-83965976D02*
X96503884Y-84013595D01*
X96503884Y-84013595D02*
X96456265Y-84061214D01*
X97789598Y-83965976D02*
X97789598Y-84632643D01*
X97361027Y-83965976D02*
X97361027Y-84489785D01*
X97361027Y-84489785D02*
X97408646Y-84585024D01*
X97408646Y-84585024D02*
X97503884Y-84632643D01*
X97503884Y-84632643D02*
X97646741Y-84632643D01*
X97646741Y-84632643D02*
X97741979Y-84585024D01*
X97741979Y-84585024D02*
X97789598Y-84537404D01*
X98265789Y-84632643D02*
X98265789Y-83632643D01*
X98265789Y-84013595D02*
X98361027Y-83965976D01*
X98361027Y-83965976D02*
X98551503Y-83965976D01*
X98551503Y-83965976D02*
X98646741Y-84013595D01*
X98646741Y-84013595D02*
X98694360Y-84061214D01*
X98694360Y-84061214D02*
X98741979Y-84156452D01*
X98741979Y-84156452D02*
X98741979Y-84442166D01*
X98741979Y-84442166D02*
X98694360Y-84537404D01*
X98694360Y-84537404D02*
X98646741Y-84585024D01*
X98646741Y-84585024D02*
X98551503Y-84632643D01*
X98551503Y-84632643D02*
X98361027Y-84632643D01*
X98361027Y-84632643D02*
X98265789Y-84585024D01*
X99170551Y-84537404D02*
X99218170Y-84585024D01*
X99218170Y-84585024D02*
X99170551Y-84632643D01*
X99170551Y-84632643D02*
X99122932Y-84585024D01*
X99122932Y-84585024D02*
X99170551Y-84537404D01*
X99170551Y-84537404D02*
X99170551Y-84632643D01*
X99170551Y-84013595D02*
X99218170Y-84061214D01*
X99218170Y-84061214D02*
X99170551Y-84108833D01*
X99170551Y-84108833D02*
X99122932Y-84061214D01*
X99122932Y-84061214D02*
X99170551Y-84013595D01*
X99170551Y-84013595D02*
X99170551Y-84108833D01*
X101027693Y-84156452D02*
X100980074Y-84108833D01*
X100980074Y-84108833D02*
X100884836Y-84061214D01*
X100884836Y-84061214D02*
X100789598Y-84061214D01*
X100789598Y-84061214D02*
X100694360Y-84108833D01*
X100694360Y-84108833D02*
X100646741Y-84156452D01*
X100646741Y-84156452D02*
X100599122Y-84251690D01*
X100599122Y-84251690D02*
X100599122Y-84346928D01*
X100599122Y-84346928D02*
X100646741Y-84442166D01*
X100646741Y-84442166D02*
X100694360Y-84489785D01*
X100694360Y-84489785D02*
X100789598Y-84537404D01*
X100789598Y-84537404D02*
X100884836Y-84537404D01*
X100884836Y-84537404D02*
X100980074Y-84489785D01*
X100980074Y-84489785D02*
X101027693Y-84442166D01*
X101027693Y-84061214D02*
X101027693Y-84442166D01*
X101027693Y-84442166D02*
X101075312Y-84489785D01*
X101075312Y-84489785D02*
X101122931Y-84489785D01*
X101122931Y-84489785D02*
X101218170Y-84442166D01*
X101218170Y-84442166D02*
X101265789Y-84346928D01*
X101265789Y-84346928D02*
X101265789Y-84108833D01*
X101265789Y-84108833D02*
X101170551Y-83965976D01*
X101170551Y-83965976D02*
X101027693Y-83870738D01*
X101027693Y-83870738D02*
X100837217Y-83823119D01*
X100837217Y-83823119D02*
X100646741Y-83870738D01*
X100646741Y-83870738D02*
X100503884Y-83965976D01*
X100503884Y-83965976D02*
X100408646Y-84108833D01*
X100408646Y-84108833D02*
X100361027Y-84299309D01*
X100361027Y-84299309D02*
X100408646Y-84489785D01*
X100408646Y-84489785D02*
X100503884Y-84632643D01*
X100503884Y-84632643D02*
X100646741Y-84727881D01*
X100646741Y-84727881D02*
X100837217Y-84775500D01*
X100837217Y-84775500D02*
X101027693Y-84727881D01*
X101027693Y-84727881D02*
X101170551Y-84632643D01*
X101884836Y-83632643D02*
X101980074Y-83632643D01*
X101980074Y-83632643D02*
X102075312Y-83680262D01*
X102075312Y-83680262D02*
X102122931Y-83727881D01*
X102122931Y-83727881D02*
X102170550Y-83823119D01*
X102170550Y-83823119D02*
X102218169Y-84013595D01*
X102218169Y-84013595D02*
X102218169Y-84251690D01*
X102218169Y-84251690D02*
X102170550Y-84442166D01*
X102170550Y-84442166D02*
X102122931Y-84537404D01*
X102122931Y-84537404D02*
X102075312Y-84585024D01*
X102075312Y-84585024D02*
X101980074Y-84632643D01*
X101980074Y-84632643D02*
X101884836Y-84632643D01*
X101884836Y-84632643D02*
X101789598Y-84585024D01*
X101789598Y-84585024D02*
X101741979Y-84537404D01*
X101741979Y-84537404D02*
X101694360Y-84442166D01*
X101694360Y-84442166D02*
X101646741Y-84251690D01*
X101646741Y-84251690D02*
X101646741Y-84013595D01*
X101646741Y-84013595D02*
X101694360Y-83823119D01*
X101694360Y-83823119D02*
X101741979Y-83727881D01*
X101741979Y-83727881D02*
X101789598Y-83680262D01*
X101789598Y-83680262D02*
X101884836Y-83632643D01*
X102551503Y-84632643D02*
X103075312Y-83965976D01*
X102551503Y-83965976D02*
X103075312Y-84632643D01*
X103884836Y-83632643D02*
X103694360Y-83632643D01*
X103694360Y-83632643D02*
X103599122Y-83680262D01*
X103599122Y-83680262D02*
X103551503Y-83727881D01*
X103551503Y-83727881D02*
X103456265Y-83870738D01*
X103456265Y-83870738D02*
X103408646Y-84061214D01*
X103408646Y-84061214D02*
X103408646Y-84442166D01*
X103408646Y-84442166D02*
X103456265Y-84537404D01*
X103456265Y-84537404D02*
X103503884Y-84585024D01*
X103503884Y-84585024D02*
X103599122Y-84632643D01*
X103599122Y-84632643D02*
X103789598Y-84632643D01*
X103789598Y-84632643D02*
X103884836Y-84585024D01*
X103884836Y-84585024D02*
X103932455Y-84537404D01*
X103932455Y-84537404D02*
X103980074Y-84442166D01*
X103980074Y-84442166D02*
X103980074Y-84204071D01*
X103980074Y-84204071D02*
X103932455Y-84108833D01*
X103932455Y-84108833D02*
X103884836Y-84061214D01*
X103884836Y-84061214D02*
X103789598Y-84013595D01*
X103789598Y-84013595D02*
X103599122Y-84013595D01*
X103599122Y-84013595D02*
X103503884Y-84061214D01*
X103503884Y-84061214D02*
X103456265Y-84108833D01*
X103456265Y-84108833D02*
X103408646Y-84204071D01*
X104361027Y-83727881D02*
X104408646Y-83680262D01*
X104408646Y-83680262D02*
X104503884Y-83632643D01*
X104503884Y-83632643D02*
X104741979Y-83632643D01*
X104741979Y-83632643D02*
X104837217Y-83680262D01*
X104837217Y-83680262D02*
X104884836Y-83727881D01*
X104884836Y-83727881D02*
X104932455Y-83823119D01*
X104932455Y-83823119D02*
X104932455Y-83918357D01*
X104932455Y-83918357D02*
X104884836Y-84061214D01*
X104884836Y-84061214D02*
X104313408Y-84632643D01*
X104313408Y-84632643D02*
X104932455Y-84632643D01*
X105361027Y-84632643D02*
X105361027Y-83632643D01*
X105361027Y-84013595D02*
X105456265Y-83965976D01*
X105456265Y-83965976D02*
X105646741Y-83965976D01*
X105646741Y-83965976D02*
X105741979Y-84013595D01*
X105741979Y-84013595D02*
X105789598Y-84061214D01*
X105789598Y-84061214D02*
X105837217Y-84156452D01*
X105837217Y-84156452D02*
X105837217Y-84442166D01*
X105837217Y-84442166D02*
X105789598Y-84537404D01*
X105789598Y-84537404D02*
X105741979Y-84585024D01*
X105741979Y-84585024D02*
X105646741Y-84632643D01*
X105646741Y-84632643D02*
X105456265Y-84632643D01*
X105456265Y-84632643D02*
X105361027Y-84585024D01*
X94932455Y-86194968D02*
X94837217Y-86242587D01*
X94837217Y-86242587D02*
X94646741Y-86242587D01*
X94646741Y-86242587D02*
X94551503Y-86194968D01*
X94551503Y-86194968D02*
X94503884Y-86147348D01*
X94503884Y-86147348D02*
X94456265Y-86052110D01*
X94456265Y-86052110D02*
X94456265Y-85766396D01*
X94456265Y-85766396D02*
X94503884Y-85671158D01*
X94503884Y-85671158D02*
X94551503Y-85623539D01*
X94551503Y-85623539D02*
X94646741Y-85575920D01*
X94646741Y-85575920D02*
X94837217Y-85575920D01*
X94837217Y-85575920D02*
X94932455Y-85623539D01*
X95503884Y-86242587D02*
X95408646Y-86194968D01*
X95408646Y-86194968D02*
X95361027Y-86147348D01*
X95361027Y-86147348D02*
X95313408Y-86052110D01*
X95313408Y-86052110D02*
X95313408Y-85766396D01*
X95313408Y-85766396D02*
X95361027Y-85671158D01*
X95361027Y-85671158D02*
X95408646Y-85623539D01*
X95408646Y-85623539D02*
X95503884Y-85575920D01*
X95503884Y-85575920D02*
X95646741Y-85575920D01*
X95646741Y-85575920D02*
X95741979Y-85623539D01*
X95741979Y-85623539D02*
X95789598Y-85671158D01*
X95789598Y-85671158D02*
X95837217Y-85766396D01*
X95837217Y-85766396D02*
X95837217Y-86052110D01*
X95837217Y-86052110D02*
X95789598Y-86147348D01*
X95789598Y-86147348D02*
X95741979Y-86194968D01*
X95741979Y-86194968D02*
X95646741Y-86242587D01*
X95646741Y-86242587D02*
X95503884Y-86242587D01*
X96694360Y-86242587D02*
X96694360Y-85242587D01*
X96694360Y-86194968D02*
X96599122Y-86242587D01*
X96599122Y-86242587D02*
X96408646Y-86242587D01*
X96408646Y-86242587D02*
X96313408Y-86194968D01*
X96313408Y-86194968D02*
X96265789Y-86147348D01*
X96265789Y-86147348D02*
X96218170Y-86052110D01*
X96218170Y-86052110D02*
X96218170Y-85766396D01*
X96218170Y-85766396D02*
X96265789Y-85671158D01*
X96265789Y-85671158D02*
X96313408Y-85623539D01*
X96313408Y-85623539D02*
X96408646Y-85575920D01*
X96408646Y-85575920D02*
X96599122Y-85575920D01*
X96599122Y-85575920D02*
X96694360Y-85623539D01*
X97551503Y-86194968D02*
X97456265Y-86242587D01*
X97456265Y-86242587D02*
X97265789Y-86242587D01*
X97265789Y-86242587D02*
X97170551Y-86194968D01*
X97170551Y-86194968D02*
X97122932Y-86099729D01*
X97122932Y-86099729D02*
X97122932Y-85718777D01*
X97122932Y-85718777D02*
X97170551Y-85623539D01*
X97170551Y-85623539D02*
X97265789Y-85575920D01*
X97265789Y-85575920D02*
X97456265Y-85575920D01*
X97456265Y-85575920D02*
X97551503Y-85623539D01*
X97551503Y-85623539D02*
X97599122Y-85718777D01*
X97599122Y-85718777D02*
X97599122Y-85814015D01*
X97599122Y-85814015D02*
X97122932Y-85909253D01*
X98027694Y-86242587D02*
X98027694Y-85242587D01*
X98027694Y-85623539D02*
X98122932Y-85575920D01*
X98122932Y-85575920D02*
X98313408Y-85575920D01*
X98313408Y-85575920D02*
X98408646Y-85623539D01*
X98408646Y-85623539D02*
X98456265Y-85671158D01*
X98456265Y-85671158D02*
X98503884Y-85766396D01*
X98503884Y-85766396D02*
X98503884Y-86052110D01*
X98503884Y-86052110D02*
X98456265Y-86147348D01*
X98456265Y-86147348D02*
X98408646Y-86194968D01*
X98408646Y-86194968D02*
X98313408Y-86242587D01*
X98313408Y-86242587D02*
X98122932Y-86242587D01*
X98122932Y-86242587D02*
X98027694Y-86194968D01*
X99313408Y-86194968D02*
X99218170Y-86242587D01*
X99218170Y-86242587D02*
X99027694Y-86242587D01*
X99027694Y-86242587D02*
X98932456Y-86194968D01*
X98932456Y-86194968D02*
X98884837Y-86099729D01*
X98884837Y-86099729D02*
X98884837Y-85718777D01*
X98884837Y-85718777D02*
X98932456Y-85623539D01*
X98932456Y-85623539D02*
X99027694Y-85575920D01*
X99027694Y-85575920D02*
X99218170Y-85575920D01*
X99218170Y-85575920D02*
X99313408Y-85623539D01*
X99313408Y-85623539D02*
X99361027Y-85718777D01*
X99361027Y-85718777D02*
X99361027Y-85814015D01*
X99361027Y-85814015D02*
X98884837Y-85909253D01*
X99789599Y-86242587D02*
X99789599Y-85575920D01*
X99789599Y-85766396D02*
X99837218Y-85671158D01*
X99837218Y-85671158D02*
X99884837Y-85623539D01*
X99884837Y-85623539D02*
X99980075Y-85575920D01*
X99980075Y-85575920D02*
X100075313Y-85575920D01*
X100837218Y-85575920D02*
X100837218Y-86385444D01*
X100837218Y-86385444D02*
X100789599Y-86480682D01*
X100789599Y-86480682D02*
X100741980Y-86528301D01*
X100741980Y-86528301D02*
X100646742Y-86575920D01*
X100646742Y-86575920D02*
X100503885Y-86575920D01*
X100503885Y-86575920D02*
X100408647Y-86528301D01*
X100837218Y-86194968D02*
X100741980Y-86242587D01*
X100741980Y-86242587D02*
X100551504Y-86242587D01*
X100551504Y-86242587D02*
X100456266Y-86194968D01*
X100456266Y-86194968D02*
X100408647Y-86147348D01*
X100408647Y-86147348D02*
X100361028Y-86052110D01*
X100361028Y-86052110D02*
X100361028Y-85766396D01*
X100361028Y-85766396D02*
X100408647Y-85671158D01*
X100408647Y-85671158D02*
X100456266Y-85623539D01*
X100456266Y-85623539D02*
X100551504Y-85575920D01*
X100551504Y-85575920D02*
X100741980Y-85575920D01*
X100741980Y-85575920D02*
X100837218Y-85623539D01*
X101313409Y-86147348D02*
X101361028Y-86194968D01*
X101361028Y-86194968D02*
X101313409Y-86242587D01*
X101313409Y-86242587D02*
X101265790Y-86194968D01*
X101265790Y-86194968D02*
X101313409Y-86147348D01*
X101313409Y-86147348D02*
X101313409Y-86242587D01*
X101313409Y-85623539D02*
X101361028Y-85671158D01*
X101361028Y-85671158D02*
X101313409Y-85718777D01*
X101313409Y-85718777D02*
X101265790Y-85671158D01*
X101265790Y-85671158D02*
X101313409Y-85623539D01*
X101313409Y-85623539D02*
X101313409Y-85718777D01*
X103170551Y-85766396D02*
X103122932Y-85718777D01*
X103122932Y-85718777D02*
X103027694Y-85671158D01*
X103027694Y-85671158D02*
X102932456Y-85671158D01*
X102932456Y-85671158D02*
X102837218Y-85718777D01*
X102837218Y-85718777D02*
X102789599Y-85766396D01*
X102789599Y-85766396D02*
X102741980Y-85861634D01*
X102741980Y-85861634D02*
X102741980Y-85956872D01*
X102741980Y-85956872D02*
X102789599Y-86052110D01*
X102789599Y-86052110D02*
X102837218Y-86099729D01*
X102837218Y-86099729D02*
X102932456Y-86147348D01*
X102932456Y-86147348D02*
X103027694Y-86147348D01*
X103027694Y-86147348D02*
X103122932Y-86099729D01*
X103122932Y-86099729D02*
X103170551Y-86052110D01*
X103170551Y-85671158D02*
X103170551Y-86052110D01*
X103170551Y-86052110D02*
X103218170Y-86099729D01*
X103218170Y-86099729D02*
X103265789Y-86099729D01*
X103265789Y-86099729D02*
X103361028Y-86052110D01*
X103361028Y-86052110D02*
X103408647Y-85956872D01*
X103408647Y-85956872D02*
X103408647Y-85718777D01*
X103408647Y-85718777D02*
X103313409Y-85575920D01*
X103313409Y-85575920D02*
X103170551Y-85480682D01*
X103170551Y-85480682D02*
X102980075Y-85433063D01*
X102980075Y-85433063D02*
X102789599Y-85480682D01*
X102789599Y-85480682D02*
X102646742Y-85575920D01*
X102646742Y-85575920D02*
X102551504Y-85718777D01*
X102551504Y-85718777D02*
X102503885Y-85909253D01*
X102503885Y-85909253D02*
X102551504Y-86099729D01*
X102551504Y-86099729D02*
X102646742Y-86242587D01*
X102646742Y-86242587D02*
X102789599Y-86337825D01*
X102789599Y-86337825D02*
X102980075Y-86385444D01*
X102980075Y-86385444D02*
X103170551Y-86337825D01*
X103170551Y-86337825D02*
X103313409Y-86242587D01*
X104027694Y-85242587D02*
X104122932Y-85242587D01*
X104122932Y-85242587D02*
X104218170Y-85290206D01*
X104218170Y-85290206D02*
X104265789Y-85337825D01*
X104265789Y-85337825D02*
X104313408Y-85433063D01*
X104313408Y-85433063D02*
X104361027Y-85623539D01*
X104361027Y-85623539D02*
X104361027Y-85861634D01*
X104361027Y-85861634D02*
X104313408Y-86052110D01*
X104313408Y-86052110D02*
X104265789Y-86147348D01*
X104265789Y-86147348D02*
X104218170Y-86194968D01*
X104218170Y-86194968D02*
X104122932Y-86242587D01*
X104122932Y-86242587D02*
X104027694Y-86242587D01*
X104027694Y-86242587D02*
X103932456Y-86194968D01*
X103932456Y-86194968D02*
X103884837Y-86147348D01*
X103884837Y-86147348D02*
X103837218Y-86052110D01*
X103837218Y-86052110D02*
X103789599Y-85861634D01*
X103789599Y-85861634D02*
X103789599Y-85623539D01*
X103789599Y-85623539D02*
X103837218Y-85433063D01*
X103837218Y-85433063D02*
X103884837Y-85337825D01*
X103884837Y-85337825D02*
X103932456Y-85290206D01*
X103932456Y-85290206D02*
X104027694Y-85242587D01*
X104694361Y-86242587D02*
X105218170Y-85575920D01*
X104694361Y-85575920D02*
X105218170Y-86242587D01*
X106027694Y-85242587D02*
X105837218Y-85242587D01*
X105837218Y-85242587D02*
X105741980Y-85290206D01*
X105741980Y-85290206D02*
X105694361Y-85337825D01*
X105694361Y-85337825D02*
X105599123Y-85480682D01*
X105599123Y-85480682D02*
X105551504Y-85671158D01*
X105551504Y-85671158D02*
X105551504Y-86052110D01*
X105551504Y-86052110D02*
X105599123Y-86147348D01*
X105599123Y-86147348D02*
X105646742Y-86194968D01*
X105646742Y-86194968D02*
X105741980Y-86242587D01*
X105741980Y-86242587D02*
X105932456Y-86242587D01*
X105932456Y-86242587D02*
X106027694Y-86194968D01*
X106027694Y-86194968D02*
X106075313Y-86147348D01*
X106075313Y-86147348D02*
X106122932Y-86052110D01*
X106122932Y-86052110D02*
X106122932Y-85814015D01*
X106122932Y-85814015D02*
X106075313Y-85718777D01*
X106075313Y-85718777D02*
X106027694Y-85671158D01*
X106027694Y-85671158D02*
X105932456Y-85623539D01*
X105932456Y-85623539D02*
X105741980Y-85623539D01*
X105741980Y-85623539D02*
X105646742Y-85671158D01*
X105646742Y-85671158D02*
X105599123Y-85718777D01*
X105599123Y-85718777D02*
X105551504Y-85814015D01*
X106503885Y-85337825D02*
X106551504Y-85290206D01*
X106551504Y-85290206D02*
X106646742Y-85242587D01*
X106646742Y-85242587D02*
X106884837Y-85242587D01*
X106884837Y-85242587D02*
X106980075Y-85290206D01*
X106980075Y-85290206D02*
X107027694Y-85337825D01*
X107027694Y-85337825D02*
X107075313Y-85433063D01*
X107075313Y-85433063D02*
X107075313Y-85528301D01*
X107075313Y-85528301D02*
X107027694Y-85671158D01*
X107027694Y-85671158D02*
X106456266Y-86242587D01*
X106456266Y-86242587D02*
X107075313Y-86242587D01*
X107503885Y-86242587D02*
X107503885Y-85242587D01*
X107503885Y-85623539D02*
X107599123Y-85575920D01*
X107599123Y-85575920D02*
X107789599Y-85575920D01*
X107789599Y-85575920D02*
X107884837Y-85623539D01*
X107884837Y-85623539D02*
X107932456Y-85671158D01*
X107932456Y-85671158D02*
X107980075Y-85766396D01*
X107980075Y-85766396D02*
X107980075Y-86052110D01*
X107980075Y-86052110D02*
X107932456Y-86147348D01*
X107932456Y-86147348D02*
X107884837Y-86194968D01*
X107884837Y-86194968D02*
X107789599Y-86242587D01*
X107789599Y-86242587D02*
X107599123Y-86242587D01*
X107599123Y-86242587D02*
X107503885Y-86194968D01*
X94503884Y-87852531D02*
X94503884Y-86852531D01*
X94932455Y-87852531D02*
X94932455Y-87328721D01*
X94932455Y-87328721D02*
X94884836Y-87233483D01*
X94884836Y-87233483D02*
X94789598Y-87185864D01*
X94789598Y-87185864D02*
X94646741Y-87185864D01*
X94646741Y-87185864D02*
X94551503Y-87233483D01*
X94551503Y-87233483D02*
X94503884Y-87281102D01*
X95837217Y-87804912D02*
X95741979Y-87852531D01*
X95741979Y-87852531D02*
X95551503Y-87852531D01*
X95551503Y-87852531D02*
X95456265Y-87804912D01*
X95456265Y-87804912D02*
X95408646Y-87757292D01*
X95408646Y-87757292D02*
X95361027Y-87662054D01*
X95361027Y-87662054D02*
X95361027Y-87376340D01*
X95361027Y-87376340D02*
X95408646Y-87281102D01*
X95408646Y-87281102D02*
X95456265Y-87233483D01*
X95456265Y-87233483D02*
X95551503Y-87185864D01*
X95551503Y-87185864D02*
X95741979Y-87185864D01*
X95741979Y-87185864D02*
X95837217Y-87233483D01*
X96980075Y-87804912D02*
X97075313Y-87852531D01*
X97075313Y-87852531D02*
X97265789Y-87852531D01*
X97265789Y-87852531D02*
X97361027Y-87804912D01*
X97361027Y-87804912D02*
X97408646Y-87709673D01*
X97408646Y-87709673D02*
X97408646Y-87662054D01*
X97408646Y-87662054D02*
X97361027Y-87566816D01*
X97361027Y-87566816D02*
X97265789Y-87519197D01*
X97265789Y-87519197D02*
X97122932Y-87519197D01*
X97122932Y-87519197D02*
X97027694Y-87471578D01*
X97027694Y-87471578D02*
X96980075Y-87376340D01*
X96980075Y-87376340D02*
X96980075Y-87328721D01*
X96980075Y-87328721D02*
X97027694Y-87233483D01*
X97027694Y-87233483D02*
X97122932Y-87185864D01*
X97122932Y-87185864D02*
X97265789Y-87185864D01*
X97265789Y-87185864D02*
X97361027Y-87233483D01*
X97980075Y-87852531D02*
X97884837Y-87804912D01*
X97884837Y-87804912D02*
X97837218Y-87709673D01*
X97837218Y-87709673D02*
X97837218Y-86852531D01*
X98789599Y-87852531D02*
X98789599Y-87328721D01*
X98789599Y-87328721D02*
X98741980Y-87233483D01*
X98741980Y-87233483D02*
X98646742Y-87185864D01*
X98646742Y-87185864D02*
X98456266Y-87185864D01*
X98456266Y-87185864D02*
X98361028Y-87233483D01*
X98789599Y-87804912D02*
X98694361Y-87852531D01*
X98694361Y-87852531D02*
X98456266Y-87852531D01*
X98456266Y-87852531D02*
X98361028Y-87804912D01*
X98361028Y-87804912D02*
X98313409Y-87709673D01*
X98313409Y-87709673D02*
X98313409Y-87614435D01*
X98313409Y-87614435D02*
X98361028Y-87519197D01*
X98361028Y-87519197D02*
X98456266Y-87471578D01*
X98456266Y-87471578D02*
X98694361Y-87471578D01*
X98694361Y-87471578D02*
X98789599Y-87423959D01*
X99694361Y-87804912D02*
X99599123Y-87852531D01*
X99599123Y-87852531D02*
X99408647Y-87852531D01*
X99408647Y-87852531D02*
X99313409Y-87804912D01*
X99313409Y-87804912D02*
X99265790Y-87757292D01*
X99265790Y-87757292D02*
X99218171Y-87662054D01*
X99218171Y-87662054D02*
X99218171Y-87376340D01*
X99218171Y-87376340D02*
X99265790Y-87281102D01*
X99265790Y-87281102D02*
X99313409Y-87233483D01*
X99313409Y-87233483D02*
X99408647Y-87185864D01*
X99408647Y-87185864D02*
X99599123Y-87185864D01*
X99599123Y-87185864D02*
X99694361Y-87233483D01*
X100122933Y-87852531D02*
X100122933Y-86852531D01*
X100218171Y-87471578D02*
X100503885Y-87852531D01*
X100503885Y-87185864D02*
X100122933Y-87566816D01*
X100932457Y-87757292D02*
X100980076Y-87804912D01*
X100980076Y-87804912D02*
X100932457Y-87852531D01*
X100932457Y-87852531D02*
X100884838Y-87804912D01*
X100884838Y-87804912D02*
X100932457Y-87757292D01*
X100932457Y-87757292D02*
X100932457Y-87852531D01*
X100932457Y-87233483D02*
X100980076Y-87281102D01*
X100980076Y-87281102D02*
X100932457Y-87328721D01*
X100932457Y-87328721D02*
X100884838Y-87281102D01*
X100884838Y-87281102D02*
X100932457Y-87233483D01*
X100932457Y-87233483D02*
X100932457Y-87328721D01*
X102789599Y-87376340D02*
X102741980Y-87328721D01*
X102741980Y-87328721D02*
X102646742Y-87281102D01*
X102646742Y-87281102D02*
X102551504Y-87281102D01*
X102551504Y-87281102D02*
X102456266Y-87328721D01*
X102456266Y-87328721D02*
X102408647Y-87376340D01*
X102408647Y-87376340D02*
X102361028Y-87471578D01*
X102361028Y-87471578D02*
X102361028Y-87566816D01*
X102361028Y-87566816D02*
X102408647Y-87662054D01*
X102408647Y-87662054D02*
X102456266Y-87709673D01*
X102456266Y-87709673D02*
X102551504Y-87757292D01*
X102551504Y-87757292D02*
X102646742Y-87757292D01*
X102646742Y-87757292D02*
X102741980Y-87709673D01*
X102741980Y-87709673D02*
X102789599Y-87662054D01*
X102789599Y-87281102D02*
X102789599Y-87662054D01*
X102789599Y-87662054D02*
X102837218Y-87709673D01*
X102837218Y-87709673D02*
X102884837Y-87709673D01*
X102884837Y-87709673D02*
X102980076Y-87662054D01*
X102980076Y-87662054D02*
X103027695Y-87566816D01*
X103027695Y-87566816D02*
X103027695Y-87328721D01*
X103027695Y-87328721D02*
X102932457Y-87185864D01*
X102932457Y-87185864D02*
X102789599Y-87090626D01*
X102789599Y-87090626D02*
X102599123Y-87043007D01*
X102599123Y-87043007D02*
X102408647Y-87090626D01*
X102408647Y-87090626D02*
X102265790Y-87185864D01*
X102265790Y-87185864D02*
X102170552Y-87328721D01*
X102170552Y-87328721D02*
X102122933Y-87519197D01*
X102122933Y-87519197D02*
X102170552Y-87709673D01*
X102170552Y-87709673D02*
X102265790Y-87852531D01*
X102265790Y-87852531D02*
X102408647Y-87947769D01*
X102408647Y-87947769D02*
X102599123Y-87995388D01*
X102599123Y-87995388D02*
X102789599Y-87947769D01*
X102789599Y-87947769D02*
X102932457Y-87852531D01*
X103646742Y-86852531D02*
X103741980Y-86852531D01*
X103741980Y-86852531D02*
X103837218Y-86900150D01*
X103837218Y-86900150D02*
X103884837Y-86947769D01*
X103884837Y-86947769D02*
X103932456Y-87043007D01*
X103932456Y-87043007D02*
X103980075Y-87233483D01*
X103980075Y-87233483D02*
X103980075Y-87471578D01*
X103980075Y-87471578D02*
X103932456Y-87662054D01*
X103932456Y-87662054D02*
X103884837Y-87757292D01*
X103884837Y-87757292D02*
X103837218Y-87804912D01*
X103837218Y-87804912D02*
X103741980Y-87852531D01*
X103741980Y-87852531D02*
X103646742Y-87852531D01*
X103646742Y-87852531D02*
X103551504Y-87804912D01*
X103551504Y-87804912D02*
X103503885Y-87757292D01*
X103503885Y-87757292D02*
X103456266Y-87662054D01*
X103456266Y-87662054D02*
X103408647Y-87471578D01*
X103408647Y-87471578D02*
X103408647Y-87233483D01*
X103408647Y-87233483D02*
X103456266Y-87043007D01*
X103456266Y-87043007D02*
X103503885Y-86947769D01*
X103503885Y-86947769D02*
X103551504Y-86900150D01*
X103551504Y-86900150D02*
X103646742Y-86852531D01*
X104313409Y-87852531D02*
X104837218Y-87185864D01*
X104313409Y-87185864D02*
X104837218Y-87852531D01*
X105646742Y-86852531D02*
X105456266Y-86852531D01*
X105456266Y-86852531D02*
X105361028Y-86900150D01*
X105361028Y-86900150D02*
X105313409Y-86947769D01*
X105313409Y-86947769D02*
X105218171Y-87090626D01*
X105218171Y-87090626D02*
X105170552Y-87281102D01*
X105170552Y-87281102D02*
X105170552Y-87662054D01*
X105170552Y-87662054D02*
X105218171Y-87757292D01*
X105218171Y-87757292D02*
X105265790Y-87804912D01*
X105265790Y-87804912D02*
X105361028Y-87852531D01*
X105361028Y-87852531D02*
X105551504Y-87852531D01*
X105551504Y-87852531D02*
X105646742Y-87804912D01*
X105646742Y-87804912D02*
X105694361Y-87757292D01*
X105694361Y-87757292D02*
X105741980Y-87662054D01*
X105741980Y-87662054D02*
X105741980Y-87423959D01*
X105741980Y-87423959D02*
X105694361Y-87328721D01*
X105694361Y-87328721D02*
X105646742Y-87281102D01*
X105646742Y-87281102D02*
X105551504Y-87233483D01*
X105551504Y-87233483D02*
X105361028Y-87233483D01*
X105361028Y-87233483D02*
X105265790Y-87281102D01*
X105265790Y-87281102D02*
X105218171Y-87328721D01*
X105218171Y-87328721D02*
X105170552Y-87423959D01*
X106122933Y-86947769D02*
X106170552Y-86900150D01*
X106170552Y-86900150D02*
X106265790Y-86852531D01*
X106265790Y-86852531D02*
X106503885Y-86852531D01*
X106503885Y-86852531D02*
X106599123Y-86900150D01*
X106599123Y-86900150D02*
X106646742Y-86947769D01*
X106646742Y-86947769D02*
X106694361Y-87043007D01*
X106694361Y-87043007D02*
X106694361Y-87138245D01*
X106694361Y-87138245D02*
X106646742Y-87281102D01*
X106646742Y-87281102D02*
X106075314Y-87852531D01*
X106075314Y-87852531D02*
X106694361Y-87852531D01*
X94408646Y-88795808D02*
X94599122Y-89462475D01*
X94599122Y-89462475D02*
X94789598Y-88986284D01*
X94789598Y-88986284D02*
X94980074Y-89462475D01*
X94980074Y-89462475D02*
X95170550Y-88795808D01*
X95932455Y-89414856D02*
X95837217Y-89462475D01*
X95837217Y-89462475D02*
X95646741Y-89462475D01*
X95646741Y-89462475D02*
X95551503Y-89414856D01*
X95551503Y-89414856D02*
X95503884Y-89319617D01*
X95503884Y-89319617D02*
X95503884Y-88938665D01*
X95503884Y-88938665D02*
X95551503Y-88843427D01*
X95551503Y-88843427D02*
X95646741Y-88795808D01*
X95646741Y-88795808D02*
X95837217Y-88795808D01*
X95837217Y-88795808D02*
X95932455Y-88843427D01*
X95932455Y-88843427D02*
X95980074Y-88938665D01*
X95980074Y-88938665D02*
X95980074Y-89033903D01*
X95980074Y-89033903D02*
X95503884Y-89129141D01*
X96408646Y-89462475D02*
X96408646Y-88462475D01*
X96408646Y-88843427D02*
X96503884Y-88795808D01*
X96503884Y-88795808D02*
X96694360Y-88795808D01*
X96694360Y-88795808D02*
X96789598Y-88843427D01*
X96789598Y-88843427D02*
X96837217Y-88891046D01*
X96837217Y-88891046D02*
X96884836Y-88986284D01*
X96884836Y-88986284D02*
X96884836Y-89271998D01*
X96884836Y-89271998D02*
X96837217Y-89367236D01*
X96837217Y-89367236D02*
X96789598Y-89414856D01*
X96789598Y-89414856D02*
X96694360Y-89462475D01*
X96694360Y-89462475D02*
X96503884Y-89462475D01*
X96503884Y-89462475D02*
X96408646Y-89414856D01*
X97313408Y-89367236D02*
X97361027Y-89414856D01*
X97361027Y-89414856D02*
X97313408Y-89462475D01*
X97313408Y-89462475D02*
X97265789Y-89414856D01*
X97265789Y-89414856D02*
X97313408Y-89367236D01*
X97313408Y-89367236D02*
X97313408Y-89462475D01*
X97313408Y-88843427D02*
X97361027Y-88891046D01*
X97361027Y-88891046D02*
X97313408Y-88938665D01*
X97313408Y-88938665D02*
X97265789Y-88891046D01*
X97265789Y-88891046D02*
X97313408Y-88843427D01*
X97313408Y-88843427D02*
X97313408Y-88938665D01*
X98551503Y-89462475D02*
X98551503Y-88462475D01*
X98980074Y-89462475D02*
X98980074Y-88938665D01*
X98980074Y-88938665D02*
X98932455Y-88843427D01*
X98932455Y-88843427D02*
X98837217Y-88795808D01*
X98837217Y-88795808D02*
X98694360Y-88795808D01*
X98694360Y-88795808D02*
X98599122Y-88843427D01*
X98599122Y-88843427D02*
X98551503Y-88891046D01*
X99313408Y-88795808D02*
X99694360Y-88795808D01*
X99456265Y-88462475D02*
X99456265Y-89319617D01*
X99456265Y-89319617D02*
X99503884Y-89414856D01*
X99503884Y-89414856D02*
X99599122Y-89462475D01*
X99599122Y-89462475D02*
X99694360Y-89462475D01*
X99884837Y-88795808D02*
X100265789Y-88795808D01*
X100027694Y-88462475D02*
X100027694Y-89319617D01*
X100027694Y-89319617D02*
X100075313Y-89414856D01*
X100075313Y-89414856D02*
X100170551Y-89462475D01*
X100170551Y-89462475D02*
X100265789Y-89462475D01*
X100599123Y-88795808D02*
X100599123Y-89795808D01*
X100599123Y-88843427D02*
X100694361Y-88795808D01*
X100694361Y-88795808D02*
X100884837Y-88795808D01*
X100884837Y-88795808D02*
X100980075Y-88843427D01*
X100980075Y-88843427D02*
X101027694Y-88891046D01*
X101027694Y-88891046D02*
X101075313Y-88986284D01*
X101075313Y-88986284D02*
X101075313Y-89271998D01*
X101075313Y-89271998D02*
X101027694Y-89367236D01*
X101027694Y-89367236D02*
X100980075Y-89414856D01*
X100980075Y-89414856D02*
X100884837Y-89462475D01*
X100884837Y-89462475D02*
X100694361Y-89462475D01*
X100694361Y-89462475D02*
X100599123Y-89414856D01*
X101456266Y-89414856D02*
X101551504Y-89462475D01*
X101551504Y-89462475D02*
X101741980Y-89462475D01*
X101741980Y-89462475D02*
X101837218Y-89414856D01*
X101837218Y-89414856D02*
X101884837Y-89319617D01*
X101884837Y-89319617D02*
X101884837Y-89271998D01*
X101884837Y-89271998D02*
X101837218Y-89176760D01*
X101837218Y-89176760D02*
X101741980Y-89129141D01*
X101741980Y-89129141D02*
X101599123Y-89129141D01*
X101599123Y-89129141D02*
X101503885Y-89081522D01*
X101503885Y-89081522D02*
X101456266Y-88986284D01*
X101456266Y-88986284D02*
X101456266Y-88938665D01*
X101456266Y-88938665D02*
X101503885Y-88843427D01*
X101503885Y-88843427D02*
X101599123Y-88795808D01*
X101599123Y-88795808D02*
X101741980Y-88795808D01*
X101741980Y-88795808D02*
X101837218Y-88843427D01*
X102313409Y-89367236D02*
X102361028Y-89414856D01*
X102361028Y-89414856D02*
X102313409Y-89462475D01*
X102313409Y-89462475D02*
X102265790Y-89414856D01*
X102265790Y-89414856D02*
X102313409Y-89367236D01*
X102313409Y-89367236D02*
X102313409Y-89462475D01*
X102313409Y-88843427D02*
X102361028Y-88891046D01*
X102361028Y-88891046D02*
X102313409Y-88938665D01*
X102313409Y-88938665D02*
X102265790Y-88891046D01*
X102265790Y-88891046D02*
X102313409Y-88843427D01*
X102313409Y-88843427D02*
X102313409Y-88938665D01*
X103503884Y-88414856D02*
X102646742Y-89700570D01*
X104551503Y-88414856D02*
X103694361Y-89700570D01*
X105075313Y-88462475D02*
X105170551Y-88462475D01*
X105170551Y-88462475D02*
X105265789Y-88510094D01*
X105265789Y-88510094D02*
X105313408Y-88557713D01*
X105313408Y-88557713D02*
X105361027Y-88652951D01*
X105361027Y-88652951D02*
X105408646Y-88843427D01*
X105408646Y-88843427D02*
X105408646Y-89081522D01*
X105408646Y-89081522D02*
X105361027Y-89271998D01*
X105361027Y-89271998D02*
X105313408Y-89367236D01*
X105313408Y-89367236D02*
X105265789Y-89414856D01*
X105265789Y-89414856D02*
X105170551Y-89462475D01*
X105170551Y-89462475D02*
X105075313Y-89462475D01*
X105075313Y-89462475D02*
X104980075Y-89414856D01*
X104980075Y-89414856D02*
X104932456Y-89367236D01*
X104932456Y-89367236D02*
X104884837Y-89271998D01*
X104884837Y-89271998D02*
X104837218Y-89081522D01*
X104837218Y-89081522D02*
X104837218Y-88843427D01*
X104837218Y-88843427D02*
X104884837Y-88652951D01*
X104884837Y-88652951D02*
X104932456Y-88557713D01*
X104932456Y-88557713D02*
X104980075Y-88510094D01*
X104980075Y-88510094D02*
X105075313Y-88462475D01*
X105741980Y-89462475D02*
X106265789Y-88795808D01*
X105741980Y-88795808D02*
X106265789Y-89462475D01*
X107075313Y-88462475D02*
X106884837Y-88462475D01*
X106884837Y-88462475D02*
X106789599Y-88510094D01*
X106789599Y-88510094D02*
X106741980Y-88557713D01*
X106741980Y-88557713D02*
X106646742Y-88700570D01*
X106646742Y-88700570D02*
X106599123Y-88891046D01*
X106599123Y-88891046D02*
X106599123Y-89271998D01*
X106599123Y-89271998D02*
X106646742Y-89367236D01*
X106646742Y-89367236D02*
X106694361Y-89414856D01*
X106694361Y-89414856D02*
X106789599Y-89462475D01*
X106789599Y-89462475D02*
X106980075Y-89462475D01*
X106980075Y-89462475D02*
X107075313Y-89414856D01*
X107075313Y-89414856D02*
X107122932Y-89367236D01*
X107122932Y-89367236D02*
X107170551Y-89271998D01*
X107170551Y-89271998D02*
X107170551Y-89033903D01*
X107170551Y-89033903D02*
X107122932Y-88938665D01*
X107122932Y-88938665D02*
X107075313Y-88891046D01*
X107075313Y-88891046D02*
X106980075Y-88843427D01*
X106980075Y-88843427D02*
X106789599Y-88843427D01*
X106789599Y-88843427D02*
X106694361Y-88891046D01*
X106694361Y-88891046D02*
X106646742Y-88938665D01*
X106646742Y-88938665D02*
X106599123Y-89033903D01*
X107551504Y-88557713D02*
X107599123Y-88510094D01*
X107599123Y-88510094D02*
X107694361Y-88462475D01*
X107694361Y-88462475D02*
X107932456Y-88462475D01*
X107932456Y-88462475D02*
X108027694Y-88510094D01*
X108027694Y-88510094D02*
X108075313Y-88557713D01*
X108075313Y-88557713D02*
X108122932Y-88652951D01*
X108122932Y-88652951D02*
X108122932Y-88748189D01*
X108122932Y-88748189D02*
X108075313Y-88891046D01*
X108075313Y-88891046D02*
X107503885Y-89462475D01*
X107503885Y-89462475D02*
X108122932Y-89462475D01*
X108551504Y-89367236D02*
X108599123Y-89414856D01*
X108599123Y-89414856D02*
X108551504Y-89462475D01*
X108551504Y-89462475D02*
X108503885Y-89414856D01*
X108503885Y-89414856D02*
X108551504Y-89367236D01*
X108551504Y-89367236D02*
X108551504Y-89462475D01*
X109456265Y-89462475D02*
X109456265Y-88462475D01*
X109456265Y-89414856D02*
X109361027Y-89462475D01*
X109361027Y-89462475D02*
X109170551Y-89462475D01*
X109170551Y-89462475D02*
X109075313Y-89414856D01*
X109075313Y-89414856D02*
X109027694Y-89367236D01*
X109027694Y-89367236D02*
X108980075Y-89271998D01*
X108980075Y-89271998D02*
X108980075Y-88986284D01*
X108980075Y-88986284D02*
X109027694Y-88891046D01*
X109027694Y-88891046D02*
X109075313Y-88843427D01*
X109075313Y-88843427D02*
X109170551Y-88795808D01*
X109170551Y-88795808D02*
X109361027Y-88795808D01*
X109361027Y-88795808D02*
X109456265Y-88843427D01*
X110313408Y-89414856D02*
X110218170Y-89462475D01*
X110218170Y-89462475D02*
X110027694Y-89462475D01*
X110027694Y-89462475D02*
X109932456Y-89414856D01*
X109932456Y-89414856D02*
X109884837Y-89319617D01*
X109884837Y-89319617D02*
X109884837Y-88938665D01*
X109884837Y-88938665D02*
X109932456Y-88843427D01*
X109932456Y-88843427D02*
X110027694Y-88795808D01*
X110027694Y-88795808D02*
X110218170Y-88795808D01*
X110218170Y-88795808D02*
X110313408Y-88843427D01*
X110313408Y-88843427D02*
X110361027Y-88938665D01*
X110361027Y-88938665D02*
X110361027Y-89033903D01*
X110361027Y-89033903D02*
X109884837Y-89129141D01*
X110694361Y-88795808D02*
X110932456Y-89462475D01*
X110932456Y-89462475D02*
X111170551Y-88795808D01*
X94503884Y-91072419D02*
X94503884Y-90405752D01*
X94503884Y-90500990D02*
X94551503Y-90453371D01*
X94551503Y-90453371D02*
X94646741Y-90405752D01*
X94646741Y-90405752D02*
X94789598Y-90405752D01*
X94789598Y-90405752D02*
X94884836Y-90453371D01*
X94884836Y-90453371D02*
X94932455Y-90548609D01*
X94932455Y-90548609D02*
X94932455Y-91072419D01*
X94932455Y-90548609D02*
X94980074Y-90453371D01*
X94980074Y-90453371D02*
X95075312Y-90405752D01*
X95075312Y-90405752D02*
X95218169Y-90405752D01*
X95218169Y-90405752D02*
X95313408Y-90453371D01*
X95313408Y-90453371D02*
X95361027Y-90548609D01*
X95361027Y-90548609D02*
X95361027Y-91072419D01*
X96265788Y-91072419D02*
X96265788Y-90548609D01*
X96265788Y-90548609D02*
X96218169Y-90453371D01*
X96218169Y-90453371D02*
X96122931Y-90405752D01*
X96122931Y-90405752D02*
X95932455Y-90405752D01*
X95932455Y-90405752D02*
X95837217Y-90453371D01*
X96265788Y-91024800D02*
X96170550Y-91072419D01*
X96170550Y-91072419D02*
X95932455Y-91072419D01*
X95932455Y-91072419D02*
X95837217Y-91024800D01*
X95837217Y-91024800D02*
X95789598Y-90929561D01*
X95789598Y-90929561D02*
X95789598Y-90834323D01*
X95789598Y-90834323D02*
X95837217Y-90739085D01*
X95837217Y-90739085D02*
X95932455Y-90691466D01*
X95932455Y-90691466D02*
X96170550Y-90691466D01*
X96170550Y-90691466D02*
X96265788Y-90643847D01*
X96741979Y-91072419D02*
X96741979Y-90405752D01*
X96741979Y-90072419D02*
X96694360Y-90120038D01*
X96694360Y-90120038D02*
X96741979Y-90167657D01*
X96741979Y-90167657D02*
X96789598Y-90120038D01*
X96789598Y-90120038D02*
X96741979Y-90072419D01*
X96741979Y-90072419D02*
X96741979Y-90167657D01*
X97361026Y-91072419D02*
X97265788Y-91024800D01*
X97265788Y-91024800D02*
X97218169Y-90929561D01*
X97218169Y-90929561D02*
X97218169Y-90072419D01*
X97741979Y-90977180D02*
X97789598Y-91024800D01*
X97789598Y-91024800D02*
X97741979Y-91072419D01*
X97741979Y-91072419D02*
X97694360Y-91024800D01*
X97694360Y-91024800D02*
X97741979Y-90977180D01*
X97741979Y-90977180D02*
X97741979Y-91072419D01*
X97741979Y-90453371D02*
X97789598Y-90500990D01*
X97789598Y-90500990D02*
X97741979Y-90548609D01*
X97741979Y-90548609D02*
X97694360Y-90500990D01*
X97694360Y-90500990D02*
X97741979Y-90453371D01*
X97741979Y-90453371D02*
X97741979Y-90548609D01*
X98980074Y-91072419D02*
X98980074Y-90072419D01*
X98980074Y-90453371D02*
X99075312Y-90405752D01*
X99075312Y-90405752D02*
X99265788Y-90405752D01*
X99265788Y-90405752D02*
X99361026Y-90453371D01*
X99361026Y-90453371D02*
X99408645Y-90500990D01*
X99408645Y-90500990D02*
X99456264Y-90596228D01*
X99456264Y-90596228D02*
X99456264Y-90881942D01*
X99456264Y-90881942D02*
X99408645Y-90977180D01*
X99408645Y-90977180D02*
X99361026Y-91024800D01*
X99361026Y-91024800D02*
X99265788Y-91072419D01*
X99265788Y-91072419D02*
X99075312Y-91072419D01*
X99075312Y-91072419D02*
X98980074Y-91024800D01*
X100265788Y-91024800D02*
X100170550Y-91072419D01*
X100170550Y-91072419D02*
X99980074Y-91072419D01*
X99980074Y-91072419D02*
X99884836Y-91024800D01*
X99884836Y-91024800D02*
X99837217Y-90929561D01*
X99837217Y-90929561D02*
X99837217Y-90548609D01*
X99837217Y-90548609D02*
X99884836Y-90453371D01*
X99884836Y-90453371D02*
X99980074Y-90405752D01*
X99980074Y-90405752D02*
X100170550Y-90405752D01*
X100170550Y-90405752D02*
X100265788Y-90453371D01*
X100265788Y-90453371D02*
X100313407Y-90548609D01*
X100313407Y-90548609D02*
X100313407Y-90643847D01*
X100313407Y-90643847D02*
X99837217Y-90739085D01*
X100741979Y-90405752D02*
X100741979Y-91072419D01*
X100741979Y-90500990D02*
X100789598Y-90453371D01*
X100789598Y-90453371D02*
X100884836Y-90405752D01*
X100884836Y-90405752D02*
X101027693Y-90405752D01*
X101027693Y-90405752D02*
X101122931Y-90453371D01*
X101122931Y-90453371D02*
X101170550Y-90548609D01*
X101170550Y-90548609D02*
X101170550Y-91072419D01*
X101646741Y-90405752D02*
X101646741Y-91262895D01*
X101646741Y-91262895D02*
X101599122Y-91358133D01*
X101599122Y-91358133D02*
X101503884Y-91405752D01*
X101503884Y-91405752D02*
X101456265Y-91405752D01*
X101646741Y-90072419D02*
X101599122Y-90120038D01*
X101599122Y-90120038D02*
X101646741Y-90167657D01*
X101646741Y-90167657D02*
X101694360Y-90120038D01*
X101694360Y-90120038D02*
X101646741Y-90072419D01*
X101646741Y-90072419D02*
X101646741Y-90167657D01*
X102551502Y-91072419D02*
X102551502Y-90548609D01*
X102551502Y-90548609D02*
X102503883Y-90453371D01*
X102503883Y-90453371D02*
X102408645Y-90405752D01*
X102408645Y-90405752D02*
X102218169Y-90405752D01*
X102218169Y-90405752D02*
X102122931Y-90453371D01*
X102551502Y-91024800D02*
X102456264Y-91072419D01*
X102456264Y-91072419D02*
X102218169Y-91072419D01*
X102218169Y-91072419D02*
X102122931Y-91024800D01*
X102122931Y-91024800D02*
X102075312Y-90929561D01*
X102075312Y-90929561D02*
X102075312Y-90834323D01*
X102075312Y-90834323D02*
X102122931Y-90739085D01*
X102122931Y-90739085D02*
X102218169Y-90691466D01*
X102218169Y-90691466D02*
X102456264Y-90691466D01*
X102456264Y-90691466D02*
X102551502Y-90643847D01*
X103027693Y-91072419D02*
X103027693Y-90405752D01*
X103027693Y-90500990D02*
X103075312Y-90453371D01*
X103075312Y-90453371D02*
X103170550Y-90405752D01*
X103170550Y-90405752D02*
X103313407Y-90405752D01*
X103313407Y-90405752D02*
X103408645Y-90453371D01*
X103408645Y-90453371D02*
X103456264Y-90548609D01*
X103456264Y-90548609D02*
X103456264Y-91072419D01*
X103456264Y-90548609D02*
X103503883Y-90453371D01*
X103503883Y-90453371D02*
X103599121Y-90405752D01*
X103599121Y-90405752D02*
X103741978Y-90405752D01*
X103741978Y-90405752D02*
X103837217Y-90453371D01*
X103837217Y-90453371D02*
X103884836Y-90548609D01*
X103884836Y-90548609D02*
X103884836Y-91072419D01*
X104361026Y-91072419D02*
X104361026Y-90405752D01*
X104361026Y-90072419D02*
X104313407Y-90120038D01*
X104313407Y-90120038D02*
X104361026Y-90167657D01*
X104361026Y-90167657D02*
X104408645Y-90120038D01*
X104408645Y-90120038D02*
X104361026Y-90072419D01*
X104361026Y-90072419D02*
X104361026Y-90167657D01*
X104837216Y-90405752D02*
X104837216Y-91072419D01*
X104837216Y-90500990D02*
X104884835Y-90453371D01*
X104884835Y-90453371D02*
X104980073Y-90405752D01*
X104980073Y-90405752D02*
X105122930Y-90405752D01*
X105122930Y-90405752D02*
X105218168Y-90453371D01*
X105218168Y-90453371D02*
X105265787Y-90548609D01*
X105265787Y-90548609D02*
X105265787Y-91072419D01*
X106361025Y-90596228D02*
X106313406Y-90548609D01*
X106313406Y-90548609D02*
X106218168Y-90500990D01*
X106218168Y-90500990D02*
X106122930Y-90500990D01*
X106122930Y-90500990D02*
X106027692Y-90548609D01*
X106027692Y-90548609D02*
X105980073Y-90596228D01*
X105980073Y-90596228D02*
X105932454Y-90691466D01*
X105932454Y-90691466D02*
X105932454Y-90786704D01*
X105932454Y-90786704D02*
X105980073Y-90881942D01*
X105980073Y-90881942D02*
X106027692Y-90929561D01*
X106027692Y-90929561D02*
X106122930Y-90977180D01*
X106122930Y-90977180D02*
X106218168Y-90977180D01*
X106218168Y-90977180D02*
X106313406Y-90929561D01*
X106313406Y-90929561D02*
X106361025Y-90881942D01*
X106361025Y-90500990D02*
X106361025Y-90881942D01*
X106361025Y-90881942D02*
X106408644Y-90929561D01*
X106408644Y-90929561D02*
X106456263Y-90929561D01*
X106456263Y-90929561D02*
X106551502Y-90881942D01*
X106551502Y-90881942D02*
X106599121Y-90786704D01*
X106599121Y-90786704D02*
X106599121Y-90548609D01*
X106599121Y-90548609D02*
X106503883Y-90405752D01*
X106503883Y-90405752D02*
X106361025Y-90310514D01*
X106361025Y-90310514D02*
X106170549Y-90262895D01*
X106170549Y-90262895D02*
X105980073Y-90310514D01*
X105980073Y-90310514D02*
X105837216Y-90405752D01*
X105837216Y-90405752D02*
X105741978Y-90548609D01*
X105741978Y-90548609D02*
X105694359Y-90739085D01*
X105694359Y-90739085D02*
X105741978Y-90929561D01*
X105741978Y-90929561D02*
X105837216Y-91072419D01*
X105837216Y-91072419D02*
X105980073Y-91167657D01*
X105980073Y-91167657D02*
X106170549Y-91215276D01*
X106170549Y-91215276D02*
X106361025Y-91167657D01*
X106361025Y-91167657D02*
X106503883Y-91072419D01*
X107218168Y-90072419D02*
X107313406Y-90072419D01*
X107313406Y-90072419D02*
X107408644Y-90120038D01*
X107408644Y-90120038D02*
X107456263Y-90167657D01*
X107456263Y-90167657D02*
X107503882Y-90262895D01*
X107503882Y-90262895D02*
X107551501Y-90453371D01*
X107551501Y-90453371D02*
X107551501Y-90691466D01*
X107551501Y-90691466D02*
X107503882Y-90881942D01*
X107503882Y-90881942D02*
X107456263Y-90977180D01*
X107456263Y-90977180D02*
X107408644Y-91024800D01*
X107408644Y-91024800D02*
X107313406Y-91072419D01*
X107313406Y-91072419D02*
X107218168Y-91072419D01*
X107218168Y-91072419D02*
X107122930Y-91024800D01*
X107122930Y-91024800D02*
X107075311Y-90977180D01*
X107075311Y-90977180D02*
X107027692Y-90881942D01*
X107027692Y-90881942D02*
X106980073Y-90691466D01*
X106980073Y-90691466D02*
X106980073Y-90453371D01*
X106980073Y-90453371D02*
X107027692Y-90262895D01*
X107027692Y-90262895D02*
X107075311Y-90167657D01*
X107075311Y-90167657D02*
X107122930Y-90120038D01*
X107122930Y-90120038D02*
X107218168Y-90072419D01*
X107884835Y-91072419D02*
X108408644Y-90405752D01*
X107884835Y-90405752D02*
X108408644Y-91072419D01*
X109218168Y-90072419D02*
X109027692Y-90072419D01*
X109027692Y-90072419D02*
X108932454Y-90120038D01*
X108932454Y-90120038D02*
X108884835Y-90167657D01*
X108884835Y-90167657D02*
X108789597Y-90310514D01*
X108789597Y-90310514D02*
X108741978Y-90500990D01*
X108741978Y-90500990D02*
X108741978Y-90881942D01*
X108741978Y-90881942D02*
X108789597Y-90977180D01*
X108789597Y-90977180D02*
X108837216Y-91024800D01*
X108837216Y-91024800D02*
X108932454Y-91072419D01*
X108932454Y-91072419D02*
X109122930Y-91072419D01*
X109122930Y-91072419D02*
X109218168Y-91024800D01*
X109218168Y-91024800D02*
X109265787Y-90977180D01*
X109265787Y-90977180D02*
X109313406Y-90881942D01*
X109313406Y-90881942D02*
X109313406Y-90643847D01*
X109313406Y-90643847D02*
X109265787Y-90548609D01*
X109265787Y-90548609D02*
X109218168Y-90500990D01*
X109218168Y-90500990D02*
X109122930Y-90453371D01*
X109122930Y-90453371D02*
X108932454Y-90453371D01*
X108932454Y-90453371D02*
X108837216Y-90500990D01*
X108837216Y-90500990D02*
X108789597Y-90548609D01*
X108789597Y-90548609D02*
X108741978Y-90643847D01*
X109694359Y-90167657D02*
X109741978Y-90120038D01*
X109741978Y-90120038D02*
X109837216Y-90072419D01*
X109837216Y-90072419D02*
X110075311Y-90072419D01*
X110075311Y-90072419D02*
X110170549Y-90120038D01*
X110170549Y-90120038D02*
X110218168Y-90167657D01*
X110218168Y-90167657D02*
X110265787Y-90262895D01*
X110265787Y-90262895D02*
X110265787Y-90358133D01*
X110265787Y-90358133D02*
X110218168Y-90500990D01*
X110218168Y-90500990D02*
X109646740Y-91072419D01*
X109646740Y-91072419D02*
X110265787Y-91072419D01*
X110694359Y-90977180D02*
X110741978Y-91024800D01*
X110741978Y-91024800D02*
X110694359Y-91072419D01*
X110694359Y-91072419D02*
X110646740Y-91024800D01*
X110646740Y-91024800D02*
X110694359Y-90977180D01*
X110694359Y-90977180D02*
X110694359Y-91072419D01*
X111599120Y-91072419D02*
X111599120Y-90072419D01*
X111599120Y-91024800D02*
X111503882Y-91072419D01*
X111503882Y-91072419D02*
X111313406Y-91072419D01*
X111313406Y-91072419D02*
X111218168Y-91024800D01*
X111218168Y-91024800D02*
X111170549Y-90977180D01*
X111170549Y-90977180D02*
X111122930Y-90881942D01*
X111122930Y-90881942D02*
X111122930Y-90596228D01*
X111122930Y-90596228D02*
X111170549Y-90500990D01*
X111170549Y-90500990D02*
X111218168Y-90453371D01*
X111218168Y-90453371D02*
X111313406Y-90405752D01*
X111313406Y-90405752D02*
X111503882Y-90405752D01*
X111503882Y-90405752D02*
X111599120Y-90453371D01*
X112456263Y-91024800D02*
X112361025Y-91072419D01*
X112361025Y-91072419D02*
X112170549Y-91072419D01*
X112170549Y-91072419D02*
X112075311Y-91024800D01*
X112075311Y-91024800D02*
X112027692Y-90929561D01*
X112027692Y-90929561D02*
X112027692Y-90548609D01*
X112027692Y-90548609D02*
X112075311Y-90453371D01*
X112075311Y-90453371D02*
X112170549Y-90405752D01*
X112170549Y-90405752D02*
X112361025Y-90405752D01*
X112361025Y-90405752D02*
X112456263Y-90453371D01*
X112456263Y-90453371D02*
X112503882Y-90548609D01*
X112503882Y-90548609D02*
X112503882Y-90643847D01*
X112503882Y-90643847D02*
X112027692Y-90739085D01*
X112837216Y-90405752D02*
X113075311Y-91072419D01*
X113075311Y-91072419D02*
X113313406Y-90405752D01*
%TO.C,J1*%
D11*
X120900000Y-89900000D02*
X122900000Y-89900000D01*
X124800000Y-89900000D02*
X126700000Y-89900000D01*
X126700000Y-89900000D02*
X126700000Y-80500000D01*
X120900000Y-80500000D02*
X122900000Y-80500000D01*
X124800000Y-80500000D02*
X126700000Y-80500000D01*
%TO.C,R2*%
X110355153Y-84694385D02*
X109845705Y-84694385D01*
X110355153Y-83649385D02*
X109845705Y-83649385D01*
%TO.C,R1*%
X110355153Y-86239385D02*
X109845705Y-86239385D01*
X110355153Y-85194385D02*
X109845705Y-85194385D01*
%TO.C,D1*%
X98035000Y-54300000D02*
X98035000Y-50240000D01*
X95765000Y-50240000D02*
X95765000Y-54300000D01*
X98035000Y-50240000D02*
X95765000Y-50240000D01*
%TO.C,U1*%
D12*
X88400000Y-76560000D02*
X88400000Y-76700000D01*
X87730000Y-74700000D02*
X88400000Y-74700000D01*
X88400000Y-74700000D02*
X88400000Y-74840000D01*
X86400000Y-74840000D02*
X86400000Y-74700000D01*
X86400000Y-74700000D02*
X87080000Y-74700000D01*
X86400000Y-76700000D02*
X86400000Y-76560000D01*
X87080000Y-76700000D02*
X86400000Y-76700000D01*
X88400000Y-76700000D02*
X87730000Y-76700000D01*
D13*
X86630000Y-74900000D02*
G75*
G02*
X86570000Y-74900000I-30000J0D01*
G01*
X86570000Y-74900000D02*
G75*
G02*
X86630000Y-74900000I30000J0D01*
G01*
D12*
X86190000Y-75190000D02*
G75*
G02*
X86070000Y-75190000I-60000J0D01*
G01*
X86070000Y-75190000D02*
G75*
G02*
X86190000Y-75190000I60000J0D01*
G01*
%TO.C,R4*%
D11*
X103777500Y-53412258D02*
X103777500Y-52937742D01*
X104822500Y-53412258D02*
X104822500Y-52937742D01*
%TO.C,R3*%
X102277500Y-53412258D02*
X102277500Y-52937742D01*
X103322500Y-53412258D02*
X103322500Y-52937742D01*
%TO.C,D2*%
X111935000Y-50240000D02*
X109665000Y-50240000D01*
X109665000Y-50240000D02*
X109665000Y-54300000D01*
X111935000Y-54300000D02*
X111935000Y-50240000D01*
%TO.C,C2*%
X103746267Y-56010000D02*
X103453733Y-56010000D01*
X103746267Y-54990000D02*
X103453733Y-54990000D01*
%TO.C,C1*%
X100110000Y-62640000D02*
X100110000Y-67160000D01*
X100110000Y-67160000D02*
X108350000Y-67160000D01*
X108350000Y-62640000D02*
X100110000Y-62640000D01*
D14*
%TO.C,G\u002A\u002A\u002A*%
G36*
X104424438Y-51952339D02*
G01*
X104690145Y-51968268D01*
X104896327Y-52007796D01*
X105090814Y-52079129D01*
X105258789Y-52158941D01*
X105637828Y-52403508D01*
X105868072Y-52682315D01*
X105948035Y-52991104D01*
X105876231Y-53325615D01*
X105746277Y-53556546D01*
X105544080Y-53785691D01*
X105288074Y-53998257D01*
X105201438Y-54054226D01*
X104768863Y-54252614D01*
X104253139Y-54403113D01*
X103698655Y-54500133D01*
X103149799Y-54538087D01*
X102650960Y-54511385D01*
X102269983Y-54423316D01*
X101882934Y-54214872D01*
X101617325Y-53934489D01*
X101473686Y-53607772D01*
X101452550Y-53260328D01*
X101554446Y-52917763D01*
X101779907Y-52605683D01*
X102129462Y-52349695D01*
X102225994Y-52302114D01*
X102644742Y-52136295D01*
X103063176Y-52029283D01*
X103533833Y-51970996D01*
X104051376Y-51951805D01*
X104424438Y-51952339D01*
G37*
G36*
X97696514Y-51095952D02*
G01*
X97995213Y-51244680D01*
X98201027Y-51507860D01*
X98309989Y-51872556D01*
X98318134Y-52325832D01*
X98228088Y-52829749D01*
X98015588Y-53421239D01*
X97717510Y-53909933D01*
X97345237Y-54281499D01*
X96910151Y-54521608D01*
X96874189Y-54534296D01*
X96603221Y-54608354D01*
X96392425Y-54605706D01*
X96164353Y-54521723D01*
X96096190Y-54487799D01*
X95799435Y-54255001D01*
X95620706Y-53924439D01*
X95563362Y-53503163D01*
X95568645Y-53381039D01*
X95660897Y-52853239D01*
X95844754Y-52360399D01*
X96102959Y-51921052D01*
X96418255Y-51553731D01*
X96773384Y-51276966D01*
X97151091Y-51109289D01*
X97534118Y-51069234D01*
X97696514Y-51095952D01*
G37*
G36*
X110988898Y-51088313D02*
G01*
X111138541Y-51182361D01*
X111342390Y-51361769D01*
X111381395Y-51398143D01*
X111684101Y-51723775D01*
X111878712Y-52051803D01*
X111980613Y-52424416D01*
X112005187Y-52883805D01*
X111997562Y-53087885D01*
X111924324Y-53658416D01*
X111772253Y-54098105D01*
X111537858Y-54411973D01*
X111217643Y-54605038D01*
X110891982Y-54676409D01*
X110551184Y-54656090D01*
X110329442Y-54580660D01*
X110021843Y-54341524D01*
X109772901Y-53983427D01*
X109596420Y-53536147D01*
X109506207Y-53029458D01*
X109497464Y-52786150D01*
X109517647Y-52413310D01*
X109581993Y-52114414D01*
X109707687Y-51810414D01*
X109711099Y-51803423D01*
X109929456Y-51444606D01*
X110182719Y-51216459D01*
X110502793Y-51094331D01*
X110661441Y-51069100D01*
X110845763Y-51057825D01*
X110988898Y-51088313D01*
G37*
G36*
X104340216Y-63110068D02*
G01*
X104522558Y-63170326D01*
X104662289Y-63251494D01*
X104850344Y-63496310D01*
X104916397Y-63721790D01*
X104961250Y-63918548D01*
X105022827Y-63988927D01*
X105091187Y-63976509D01*
X105240735Y-63927152D01*
X105471043Y-63866631D01*
X105575411Y-63842477D01*
X105803700Y-63803266D01*
X105976654Y-63818681D01*
X106167842Y-63902061D01*
X106291405Y-63972318D01*
X106526008Y-64133044D01*
X106660640Y-64300807D01*
X106734487Y-64500920D01*
X106784456Y-64820327D01*
X106738216Y-65113549D01*
X106584644Y-65434434D01*
X106520420Y-65537308D01*
X106173647Y-65979911D01*
X105737656Y-66357212D01*
X105508790Y-66512009D01*
X105289723Y-66630092D01*
X105078658Y-66710744D01*
X104910107Y-66746080D01*
X104818582Y-66728213D01*
X104825310Y-66668179D01*
X104916348Y-66594020D01*
X105099395Y-66484792D01*
X105231685Y-66415732D01*
X105341096Y-66347847D01*
X105662775Y-66347847D01*
X105673400Y-66352905D01*
X105744286Y-66298222D01*
X105760245Y-66275229D01*
X105780038Y-66202610D01*
X105769413Y-66197553D01*
X105698527Y-66252235D01*
X105682569Y-66275229D01*
X105662775Y-66347847D01*
X105341096Y-66347847D01*
X105584724Y-66196686D01*
X105932617Y-65905256D01*
X106242154Y-65576783D01*
X106480126Y-65246608D01*
X106613325Y-64950070D01*
X106614952Y-64943687D01*
X106611531Y-64665972D01*
X106480620Y-64408373D01*
X106249933Y-64197772D01*
X105947185Y-64061050D01*
X105665645Y-64022920D01*
X105384989Y-64084944D01*
X105109983Y-64243583D01*
X104900920Y-64458749D01*
X104841478Y-64570912D01*
X104759709Y-64721489D01*
X104679299Y-64774249D01*
X104674905Y-64773094D01*
X104622736Y-64710175D01*
X104608414Y-64556209D01*
X104631868Y-64289304D01*
X104672495Y-64012496D01*
X104698228Y-63775427D01*
X104669712Y-63624572D01*
X104573423Y-63496225D01*
X104560015Y-63482644D01*
X104317966Y-63340863D01*
X104029309Y-63326007D01*
X103729661Y-63433195D01*
X103479343Y-63630696D01*
X103193438Y-64004497D01*
X103041343Y-64400273D01*
X103002752Y-64796893D01*
X102985464Y-65045179D01*
X102941479Y-65169000D01*
X102882611Y-65158870D01*
X102820678Y-65005307D01*
X102808192Y-64953052D01*
X102789740Y-64582429D01*
X102869920Y-64184092D01*
X103004828Y-63882537D01*
X103176406Y-63664359D01*
X103400910Y-63461658D01*
X103637919Y-63302780D01*
X103847012Y-63216072D01*
X103957718Y-63214287D01*
X104063377Y-63225674D01*
X104056519Y-63176517D01*
X104063547Y-63107762D01*
X104172662Y-63087413D01*
X104340216Y-63110068D01*
G37*
G36*
X116421254Y-68309330D02*
G01*
X116458123Y-68323211D01*
X116493477Y-68358562D01*
X116530247Y-68428035D01*
X116571362Y-68544277D01*
X116619754Y-68719938D01*
X116678355Y-68967668D01*
X116750094Y-69300116D01*
X116837902Y-69729930D01*
X116944711Y-70269761D01*
X117073451Y-70932257D01*
X117227054Y-71730068D01*
X117290774Y-72062079D01*
X117396563Y-72613049D01*
X117502422Y-73163446D01*
X117601423Y-73677322D01*
X117686640Y-74118732D01*
X117751145Y-74451726D01*
X117762259Y-74508868D01*
X117865781Y-75070730D01*
X117936576Y-75522008D01*
X117973611Y-75853017D01*
X117975851Y-76054074D01*
X117942262Y-76115495D01*
X117933468Y-76111701D01*
X117840519Y-76122271D01*
X117818372Y-76158996D01*
X117785550Y-76147649D01*
X117736876Y-76014875D01*
X117700540Y-75868195D01*
X117658751Y-75667482D01*
X117591744Y-75336206D01*
X117503833Y-74896324D01*
X117399336Y-74369792D01*
X117282567Y-73778566D01*
X117157843Y-73144602D01*
X117029480Y-72489855D01*
X116901793Y-71836283D01*
X116779098Y-71205842D01*
X116665710Y-70620486D01*
X116565947Y-70102173D01*
X116523541Y-69880360D01*
X116422855Y-69345165D01*
X116351918Y-68943908D01*
X116309539Y-68658290D01*
X116294525Y-68470009D01*
X116305685Y-68360765D01*
X116341828Y-68312257D01*
X116401761Y-68306185D01*
X116421254Y-68309330D01*
G37*
G36*
X90919432Y-68401482D02*
G01*
X90947349Y-68532859D01*
X90944437Y-68628753D01*
X90923413Y-68820420D01*
X90883309Y-69113855D01*
X90823156Y-69515055D01*
X90741986Y-70030012D01*
X90638830Y-70664723D01*
X90512720Y-71425183D01*
X90362687Y-72317386D01*
X90187763Y-73347327D01*
X89986979Y-74521002D01*
X89868961Y-75207951D01*
X89790764Y-75657143D01*
X89718980Y-76059498D01*
X89658686Y-76387326D01*
X89614961Y-76612937D01*
X89594747Y-76703210D01*
X89520576Y-76825392D01*
X89433874Y-76803736D01*
X89366737Y-76657048D01*
X89371539Y-76553402D01*
X89399145Y-76314294D01*
X89446769Y-75957492D01*
X89511627Y-75500765D01*
X89590935Y-74961881D01*
X89681907Y-74358607D01*
X89781758Y-73708712D01*
X89887704Y-73029965D01*
X89996960Y-72340132D01*
X90106742Y-71656983D01*
X90214264Y-70998285D01*
X90316742Y-70381807D01*
X90411391Y-69825317D01*
X90495426Y-69346583D01*
X90566062Y-68963372D01*
X90598206Y-68799694D01*
X90674516Y-68530179D01*
X90763880Y-68366031D01*
X90850714Y-68319162D01*
X90919432Y-68401482D01*
G37*
G36*
X89098777Y-78276146D02*
G01*
X89059939Y-78314984D01*
X89021101Y-78276146D01*
X89059939Y-78237308D01*
X89098777Y-78276146D01*
G37*
G36*
X88994868Y-78450917D02*
G01*
X89005127Y-78609946D01*
X88994868Y-78645107D01*
X88966517Y-78654864D01*
X88955690Y-78548012D01*
X88967896Y-78437741D01*
X88994868Y-78450917D01*
G37*
G36*
X89021101Y-78819877D02*
G01*
X88982263Y-78858715D01*
X88943425Y-78819877D01*
X88982263Y-78781039D01*
X89021101Y-78819877D01*
G37*
G36*
X115471018Y-39676456D02*
G01*
X116057434Y-39718836D01*
X116584049Y-39796303D01*
X116818050Y-39850323D01*
X117554173Y-40094330D01*
X118155202Y-40395745D01*
X118634261Y-40765442D01*
X119004474Y-41214292D01*
X119278966Y-41753170D01*
X119348975Y-41947141D01*
X119424053Y-42297851D01*
X119463361Y-42754765D01*
X119468462Y-43273285D01*
X119440923Y-43808816D01*
X119382306Y-44316763D01*
X119294176Y-44752530D01*
X119244892Y-44914373D01*
X118975374Y-45583878D01*
X118653685Y-46222649D01*
X118307333Y-46778070D01*
X118182437Y-46946803D01*
X118013028Y-47174952D01*
X117890297Y-47361540D01*
X117839101Y-47468560D01*
X117838838Y-47472247D01*
X117862302Y-47571816D01*
X117927118Y-47791579D01*
X118024918Y-48104548D01*
X118147335Y-48483737D01*
X118232189Y-48741040D01*
X118489955Y-49551423D01*
X118724716Y-50357660D01*
X118928410Y-51128467D01*
X119092975Y-51832560D01*
X119210350Y-52438654D01*
X119246378Y-52676694D01*
X119307270Y-53546589D01*
X119274579Y-54500030D01*
X119152807Y-55500089D01*
X118946453Y-56509841D01*
X118660022Y-57492359D01*
X118658929Y-57495574D01*
X118454237Y-58024464D01*
X118176015Y-58635749D01*
X117844591Y-59288031D01*
X117480291Y-59939911D01*
X117357987Y-60145140D01*
X117189420Y-60423307D01*
X118090012Y-61931684D01*
X118733149Y-63044359D01*
X119389080Y-64245459D01*
X120041047Y-65500897D01*
X120672289Y-66776584D01*
X121266048Y-68038435D01*
X121805565Y-69252362D01*
X122274079Y-70384278D01*
X122383341Y-70663914D01*
X123081159Y-72550047D01*
X123681437Y-74337342D01*
X124188918Y-76043891D01*
X124608343Y-77687785D01*
X124944454Y-79287116D01*
X125201995Y-80859977D01*
X125334649Y-81923513D01*
X125421477Y-82887946D01*
X125478498Y-83897271D01*
X125506662Y-84930224D01*
X125506922Y-85965539D01*
X125480227Y-86981951D01*
X125427529Y-87958195D01*
X125349780Y-88873007D01*
X125247929Y-89705122D01*
X125122930Y-90433274D01*
X124975731Y-91036199D01*
X124919125Y-91213757D01*
X124589010Y-92004654D01*
X124186380Y-92661344D01*
X123705067Y-93190092D01*
X123138902Y-93597161D01*
X122481718Y-93888817D01*
X122203710Y-93971510D01*
X121935141Y-94046445D01*
X121728262Y-94112626D01*
X121627330Y-94155878D01*
X121626892Y-94156244D01*
X121647234Y-94218744D01*
X121785871Y-94314314D01*
X122012745Y-94429917D01*
X122297798Y-94552517D01*
X122610974Y-94669076D01*
X122922215Y-94766559D01*
X123172341Y-94826539D01*
X123484111Y-94879428D01*
X123753177Y-94902105D01*
X124012735Y-94889112D01*
X124295981Y-94834994D01*
X124636112Y-94734295D01*
X125066323Y-94581558D01*
X125377979Y-94464010D01*
X126033905Y-94234739D01*
X126593191Y-94089023D01*
X127087033Y-94022146D01*
X127546629Y-94029389D01*
X127898488Y-94082854D01*
X128540407Y-94285193D01*
X129084342Y-94598097D01*
X129525200Y-95007611D01*
X129857887Y-95499777D01*
X130077308Y-96060639D01*
X130178370Y-96676241D01*
X130155977Y-97332625D01*
X130005037Y-98015835D01*
X129720455Y-98711915D01*
X129642236Y-98860244D01*
X129250718Y-99473872D01*
X128790401Y-99994871D01*
X128224313Y-100462806D01*
X128000393Y-100617368D01*
X127088434Y-101132650D01*
X126132250Y-101504163D01*
X125142082Y-101733625D01*
X124128170Y-101822759D01*
X123100756Y-101773285D01*
X122070079Y-101586923D01*
X121046381Y-101265396D01*
X120039902Y-100810422D01*
X119060882Y-100223724D01*
X118119562Y-99507022D01*
X117394555Y-98835192D01*
X117028479Y-98452013D01*
X116655902Y-98037101D01*
X116300862Y-97619438D01*
X115987402Y-97228005D01*
X115739561Y-96891782D01*
X115596667Y-96667876D01*
X115514146Y-96579283D01*
X115468183Y-96583295D01*
X115445897Y-96678791D01*
X115421311Y-96911626D01*
X115395326Y-97263820D01*
X115368846Y-97717392D01*
X115342774Y-98254364D01*
X115318011Y-98856754D01*
X115295463Y-99506583D01*
X115276030Y-100185870D01*
X115266073Y-100607951D01*
X115261821Y-100890138D01*
X115258023Y-101313799D01*
X115254709Y-101865056D01*
X115251907Y-102530030D01*
X115249645Y-103294844D01*
X115247951Y-104145620D01*
X115246855Y-105068480D01*
X115246385Y-106049546D01*
X115246569Y-107074941D01*
X115247437Y-108130786D01*
X115248722Y-109035779D01*
X115251257Y-110307281D01*
X115254443Y-111437461D01*
X115258531Y-112440349D01*
X115263770Y-113329973D01*
X115270407Y-114120364D01*
X115278693Y-114825549D01*
X115288875Y-115459560D01*
X115301204Y-116036424D01*
X115315928Y-116570171D01*
X115333295Y-117074831D01*
X115353555Y-117564433D01*
X115376958Y-118053006D01*
X115403751Y-118554579D01*
X115423902Y-118907979D01*
X115475063Y-119762522D01*
X115521511Y-120477401D01*
X115564974Y-121068171D01*
X115607182Y-121550386D01*
X115649864Y-121939601D01*
X115694749Y-122251370D01*
X115743565Y-122501248D01*
X115798041Y-122704790D01*
X115859907Y-122877550D01*
X115867065Y-122894928D01*
X116098618Y-123294880D01*
X116447740Y-123694521D01*
X116881073Y-124056711D01*
X116959130Y-124110820D01*
X117628896Y-124584423D01*
X118173225Y-125022878D01*
X118611942Y-125446104D01*
X118964873Y-125874022D01*
X119251843Y-126326552D01*
X119349420Y-126512518D01*
X119636428Y-127189517D01*
X119801770Y-127817570D01*
X119845329Y-128386490D01*
X119766984Y-128886090D01*
X119566617Y-129306182D01*
X119384611Y-129518863D01*
X119118493Y-129708659D01*
X118736984Y-129896036D01*
X118279593Y-130066725D01*
X117785826Y-130206453D01*
X117295193Y-130300950D01*
X117178593Y-130315730D01*
X116881262Y-130350153D01*
X116610993Y-130383363D01*
X116479511Y-130400801D01*
X116147939Y-130432955D01*
X115699085Y-130455894D01*
X115170745Y-130469669D01*
X114600712Y-130474333D01*
X114026779Y-130469937D01*
X113486741Y-130456536D01*
X113018392Y-130434181D01*
X112659525Y-130402924D01*
X112602896Y-130395420D01*
X111835302Y-130254674D01*
X111197884Y-130067671D01*
X110669819Y-129824680D01*
X110230286Y-129515970D01*
X110180494Y-129464525D01*
X110459633Y-129464525D01*
X110498471Y-129503363D01*
X110537309Y-129464525D01*
X110498471Y-129425688D01*
X110459633Y-129464525D01*
X110180494Y-129464525D01*
X109858465Y-129131808D01*
X109834001Y-129101292D01*
X109673559Y-128891392D01*
X109537545Y-128689637D01*
X109423707Y-128481267D01*
X109329795Y-128251524D01*
X109253556Y-127985650D01*
X109192740Y-127668886D01*
X109145095Y-127286474D01*
X109108370Y-126823654D01*
X109080313Y-126265668D01*
X109058674Y-125597758D01*
X109041201Y-124805164D01*
X109025643Y-123873129D01*
X109024445Y-123794189D01*
X109013152Y-123085865D01*
X109001130Y-122402274D01*
X108988832Y-121764537D01*
X108976710Y-121193776D01*
X108965217Y-120711112D01*
X108954807Y-120337665D01*
X108945931Y-120094556D01*
X108944504Y-120065749D01*
X108930529Y-119772696D01*
X108913375Y-119366874D01*
X108894729Y-118890789D01*
X108876278Y-118386948D01*
X108865870Y-118085015D01*
X108764322Y-115643774D01*
X108621691Y-113111728D01*
X108441746Y-110546805D01*
X108228255Y-108006935D01*
X108168472Y-107365749D01*
X108123703Y-106895252D01*
X108068984Y-106319915D01*
X108009052Y-105689553D01*
X107948643Y-105053982D01*
X107895223Y-104491743D01*
X107767963Y-103176269D01*
X107646615Y-101974512D01*
X107526812Y-100845177D01*
X107404187Y-99746971D01*
X107291555Y-98782568D01*
X107236086Y-98316513D01*
X106770031Y-98335734D01*
X106234988Y-98352618D01*
X105631948Y-98362885D01*
X104986232Y-98366910D01*
X104323161Y-98365064D01*
X103668057Y-98357720D01*
X103046243Y-98345252D01*
X102483041Y-98328031D01*
X102003771Y-98306431D01*
X101633756Y-98280824D01*
X101429816Y-98257128D01*
X101127435Y-98213305D01*
X100892117Y-98188520D01*
X100758812Y-98186020D01*
X100741377Y-98193212D01*
X100728718Y-98296057D01*
X100711400Y-98471865D01*
X100695868Y-98640517D01*
X100669637Y-98923228D01*
X100636482Y-99279378D01*
X100603107Y-99637003D01*
X100523518Y-100574466D01*
X100447393Y-101638573D01*
X100376352Y-102800627D01*
X100312014Y-104031931D01*
X100255998Y-105303788D01*
X100209923Y-106587500D01*
X100208651Y-106627828D01*
X100184143Y-107408299D01*
X100156403Y-108292418D01*
X100127048Y-109228556D01*
X100097696Y-110165087D01*
X100069967Y-111050380D01*
X100046716Y-111793272D01*
X100032443Y-112301574D01*
X100016987Y-112946123D01*
X100000684Y-113707822D01*
X99983868Y-114567576D01*
X99966875Y-115506285D01*
X99950038Y-116504855D01*
X99933692Y-117544187D01*
X99918173Y-118605185D01*
X99903815Y-119668752D01*
X99892195Y-120609480D01*
X99880203Y-121588309D01*
X99867755Y-122529363D01*
X99855073Y-123420027D01*
X99842378Y-124247687D01*
X99829893Y-124999729D01*
X99817838Y-125663537D01*
X99806437Y-126226498D01*
X99795911Y-126675997D01*
X99786482Y-126999420D01*
X99778371Y-127184153D01*
X99776089Y-127211926D01*
X99675801Y-127787219D01*
X99504257Y-128267268D01*
X99247034Y-128666171D01*
X98889711Y-128998023D01*
X98417863Y-129276920D01*
X97817069Y-129516959D01*
X97242421Y-129688215D01*
X96037418Y-129947636D01*
X94763737Y-130107855D01*
X93464196Y-130167351D01*
X92181613Y-130124604D01*
X90958810Y-129978096D01*
X90652294Y-129922099D01*
X90203657Y-129807543D01*
X89771116Y-129650409D01*
X89391049Y-129467674D01*
X89099835Y-129276317D01*
X88957014Y-129130918D01*
X88744108Y-128708365D01*
X88651614Y-128214172D01*
X88679322Y-127640065D01*
X88827022Y-126977769D01*
X88896478Y-126755261D01*
X89260497Y-125891381D01*
X89755295Y-125107963D01*
X90382465Y-124403173D01*
X91120559Y-123794189D01*
X91273700Y-123794189D01*
X91312538Y-123833027D01*
X91351376Y-123794189D01*
X91312538Y-123755351D01*
X91273700Y-123794189D01*
X91120559Y-123794189D01*
X91143602Y-123775177D01*
X91900533Y-123298468D01*
X92101140Y-123182860D01*
X92272809Y-123068406D01*
X92418769Y-122942089D01*
X92542251Y-122790894D01*
X92646485Y-122601804D01*
X92734700Y-122361806D01*
X92810127Y-122057881D01*
X92875996Y-121677015D01*
X92935536Y-121206191D01*
X92991978Y-120632394D01*
X93048552Y-119942607D01*
X93108488Y-119123816D01*
X93175017Y-118163003D01*
X93175038Y-118162691D01*
X93249819Y-117034971D01*
X93310213Y-116038042D01*
X93356844Y-115148071D01*
X93390339Y-114341224D01*
X93411323Y-113593668D01*
X93420423Y-112881569D01*
X93418263Y-112181094D01*
X93405470Y-111468409D01*
X93382669Y-110719682D01*
X93375541Y-110525731D01*
X93333543Y-109505265D01*
X93282830Y-108423463D01*
X93224719Y-107300288D01*
X93160528Y-106155705D01*
X93091572Y-105009679D01*
X93019170Y-103882175D01*
X92944637Y-102793157D01*
X92869293Y-101762591D01*
X92794453Y-100810441D01*
X92721435Y-99956672D01*
X92651555Y-99221249D01*
X92595702Y-98704892D01*
X92561557Y-98404892D01*
X92516163Y-97995435D01*
X92464456Y-97521572D01*
X92411369Y-97028354D01*
X92388196Y-96810695D01*
X92253220Y-95537905D01*
X91782879Y-95036138D01*
X91116395Y-94254415D01*
X90515359Y-93409451D01*
X90006683Y-92542482D01*
X89640213Y-91752905D01*
X89337319Y-90946228D01*
X89086012Y-90161845D01*
X88881654Y-89373541D01*
X88719609Y-88555101D01*
X88595238Y-87680307D01*
X88503904Y-86722945D01*
X88440971Y-85656799D01*
X88410469Y-84800917D01*
X88360856Y-83014373D01*
X87992774Y-84490214D01*
X87850662Y-85075823D01*
X87744560Y-85559097D01*
X87666716Y-85986762D01*
X87609381Y-86405543D01*
X87564804Y-86862166D01*
X87536035Y-87243802D01*
X87502558Y-87779744D01*
X87486577Y-88199276D01*
X87488454Y-88540392D01*
X87508552Y-88841085D01*
X87547234Y-89139350D01*
X87554576Y-89185698D01*
X87655088Y-90072514D01*
X87661890Y-90886117D01*
X87578549Y-91617399D01*
X87408631Y-92257250D01*
X87155704Y-92796563D01*
X86823335Y-93226230D01*
X86415090Y-93537141D01*
X85934536Y-93720188D01*
X85767115Y-93750131D01*
X85649769Y-93764152D01*
X85561562Y-93783807D01*
X85492825Y-93829865D01*
X85433889Y-93923094D01*
X85375082Y-94084260D01*
X85306737Y-94334132D01*
X85219183Y-94693477D01*
X85105717Y-95170642D01*
X84978853Y-95707866D01*
X84867520Y-96194530D01*
X84766596Y-96656876D01*
X84670960Y-97121146D01*
X84575488Y-97613580D01*
X84475061Y-98160421D01*
X84364555Y-98787909D01*
X84238850Y-99522287D01*
X84127868Y-100180733D01*
X83909863Y-101466707D01*
X83687082Y-102755843D01*
X83462777Y-104030468D01*
X83240200Y-105272909D01*
X83022602Y-106465489D01*
X82813235Y-107590536D01*
X82615351Y-108630375D01*
X82432202Y-109567332D01*
X82267038Y-110383732D01*
X82141485Y-110977675D01*
X82072929Y-111295552D01*
X81979265Y-111732863D01*
X81867436Y-112257031D01*
X81744385Y-112835480D01*
X81617053Y-113435635D01*
X81528993Y-113851681D01*
X81114383Y-115789743D01*
X80722102Y-117576028D01*
X80351654Y-119212426D01*
X80002542Y-120700827D01*
X79674267Y-122043119D01*
X79366334Y-123241192D01*
X79078244Y-124296934D01*
X78809501Y-125212236D01*
X78559607Y-125988987D01*
X78328066Y-126629075D01*
X78114379Y-127134390D01*
X77948726Y-127455380D01*
X77683507Y-127813686D01*
X77330076Y-128157101D01*
X76939020Y-128442705D01*
X76571236Y-128624035D01*
X76093230Y-128732759D01*
X75528682Y-128768265D01*
X74927245Y-128732065D01*
X74338576Y-128625669D01*
X74068501Y-128547927D01*
X73354997Y-128261220D01*
X72782352Y-127914963D01*
X72345070Y-127501694D01*
X72037650Y-127013950D01*
X71854595Y-126444268D01*
X71790405Y-125785186D01*
X71798289Y-125466915D01*
X71805926Y-125350529D01*
X72180092Y-125350529D01*
X72180153Y-125882019D01*
X72237124Y-126365154D01*
X72347861Y-126756385D01*
X72386402Y-126840285D01*
X72619345Y-127189146D01*
X72942769Y-127538272D01*
X73301829Y-127833027D01*
X73511517Y-127961037D01*
X74016086Y-128166022D01*
X74592940Y-128310047D01*
X75193308Y-128387253D01*
X75768420Y-128391776D01*
X76269506Y-128317756D01*
X76333129Y-128300154D01*
X76720235Y-128149550D01*
X77054204Y-127934364D01*
X77349755Y-127636620D01*
X77621607Y-127238341D01*
X77884478Y-126721551D01*
X78146632Y-126085236D01*
X78260061Y-125761891D01*
X78402051Y-125317304D01*
X78564255Y-124781137D01*
X78738328Y-124183052D01*
X78915922Y-123552711D01*
X79088691Y-122919775D01*
X79248288Y-122313907D01*
X79386366Y-121764769D01*
X79494580Y-121302022D01*
X79501674Y-121269724D01*
X79646981Y-120610031D01*
X79800338Y-119923782D01*
X79953983Y-119244987D01*
X80100159Y-118607650D01*
X80231105Y-118045781D01*
X80339061Y-117593385D01*
X80361285Y-117502446D01*
X80454916Y-117110021D01*
X80577037Y-116579181D01*
X80724606Y-115923627D01*
X80894579Y-115157063D01*
X81083912Y-114293189D01*
X81289562Y-113345708D01*
X81448296Y-112608868D01*
X81558464Y-112084202D01*
X81690431Y-111436399D01*
X81838391Y-110695202D01*
X81996540Y-109890355D01*
X82159072Y-109051600D01*
X82320182Y-108208681D01*
X82474065Y-107391340D01*
X82608085Y-106666666D01*
X82702800Y-106150299D01*
X82796854Y-105639714D01*
X82883330Y-105172316D01*
X82955307Y-104785507D01*
X83003228Y-104530581D01*
X83056205Y-104242389D01*
X83132692Y-103812803D01*
X83230649Y-103253664D01*
X83348033Y-102576814D01*
X83482805Y-101794095D01*
X83632922Y-100917349D01*
X83796344Y-99958416D01*
X83971028Y-98929139D01*
X84087814Y-98238837D01*
X84176964Y-97723248D01*
X84265640Y-97231920D01*
X84348013Y-96795578D01*
X84418254Y-96444945D01*
X84470534Y-96210743D01*
X84478363Y-96180428D01*
X84547497Y-95909711D01*
X84633904Y-95550740D01*
X84731461Y-95131273D01*
X84834049Y-94679067D01*
X84935547Y-94221879D01*
X85029835Y-93787465D01*
X85110792Y-93403583D01*
X85172298Y-93097990D01*
X85208231Y-92898443D01*
X85214985Y-92839770D01*
X85157505Y-92714247D01*
X85010197Y-92546196D01*
X84888004Y-92439095D01*
X84668690Y-92283656D01*
X84472531Y-92206255D01*
X84223252Y-92181247D01*
X84117718Y-92180122D01*
X83867866Y-92188340D01*
X83685634Y-92209559D01*
X83623908Y-92230628D01*
X83586008Y-92315032D01*
X83505509Y-92526453D01*
X83389651Y-92844768D01*
X83245672Y-93249853D01*
X83080812Y-93721584D01*
X82925352Y-94172524D01*
X82712688Y-94793313D01*
X82540248Y-95295464D01*
X82397605Y-95707204D01*
X82274336Y-96056756D01*
X82160017Y-96372349D01*
X82044221Y-96682206D01*
X81916524Y-97014554D01*
X81766503Y-97397620D01*
X81583731Y-97859628D01*
X81357785Y-98428804D01*
X81294431Y-98588379D01*
X81068316Y-99158927D01*
X80840010Y-99736691D01*
X80622351Y-100289058D01*
X80428179Y-100783414D01*
X80270331Y-101187147D01*
X80193608Y-101384709D01*
X80053771Y-101743966D01*
X79928467Y-102061478D01*
X79831405Y-102302792D01*
X79776350Y-102433333D01*
X79714882Y-102581649D01*
X79620959Y-102825336D01*
X79514205Y-103113401D01*
X79507301Y-103132415D01*
X79400252Y-103421617D01*
X79304547Y-103669741D01*
X79239887Y-103825784D01*
X79237241Y-103831498D01*
X79195860Y-103929962D01*
X79124030Y-104115147D01*
X79018443Y-104396019D01*
X78875795Y-104781542D01*
X78692778Y-105280684D01*
X78466088Y-105902409D01*
X78192417Y-106655684D01*
X77991288Y-107210397D01*
X77827975Y-107660042D01*
X77658036Y-108126154D01*
X77500740Y-108555986D01*
X77375354Y-108896793D01*
X77367044Y-108919266D01*
X77225561Y-109308292D01*
X77044611Y-109816352D01*
X76829609Y-110427550D01*
X76585971Y-111125988D01*
X76319109Y-111895768D01*
X76034439Y-112720993D01*
X75737376Y-113585766D01*
X75433332Y-114474188D01*
X75127724Y-115370364D01*
X74825964Y-116258395D01*
X74533469Y-117122383D01*
X74255651Y-117946432D01*
X73997926Y-118714645D01*
X73765708Y-119411122D01*
X73564410Y-120019968D01*
X73399449Y-120525285D01*
X73276238Y-120911175D01*
X73216601Y-121105521D01*
X72964992Y-121966923D01*
X72741572Y-122761961D01*
X72550944Y-123473157D01*
X72397708Y-124083037D01*
X72286466Y-124574122D01*
X72240088Y-124814233D01*
X72180092Y-125350529D01*
X71805926Y-125350529D01*
X71818792Y-125154473D01*
X71845783Y-124880638D01*
X71885616Y-124614904D01*
X71944644Y-124326764D01*
X72029220Y-123985713D01*
X72145698Y-123561245D01*
X72300430Y-123022852D01*
X72324603Y-122939755D01*
X72674111Y-121762232D01*
X73059269Y-120505459D01*
X73469411Y-119202145D01*
X73893875Y-117884997D01*
X74321994Y-116586723D01*
X74743106Y-115340030D01*
X75146545Y-114177627D01*
X75521647Y-113132220D01*
X75528408Y-113113761D01*
X75667892Y-112726370D01*
X75832823Y-112257992D01*
X75999930Y-111775153D01*
X76112628Y-111443730D01*
X76259584Y-111012837D01*
X76440700Y-110490837D01*
X76648975Y-109897165D01*
X76877409Y-109251260D01*
X77119001Y-108572558D01*
X77366752Y-107880496D01*
X77613661Y-107194511D01*
X77852727Y-106534040D01*
X78076951Y-105918520D01*
X78279332Y-105367387D01*
X78452869Y-104900078D01*
X78590562Y-104536031D01*
X78685412Y-104294681D01*
X78700369Y-104258715D01*
X78751365Y-104131099D01*
X78848257Y-103882132D01*
X78981842Y-103535716D01*
X79142914Y-103115752D01*
X79322271Y-102646139D01*
X79403317Y-102433333D01*
X79635512Y-101826908D01*
X79903358Y-101133528D01*
X80184610Y-100410398D01*
X80457022Y-99714721D01*
X80687067Y-99132110D01*
X81145171Y-97966448D01*
X81546345Y-96919455D01*
X81898844Y-95968780D01*
X82210922Y-95092077D01*
X82490835Y-94266998D01*
X82545316Y-94101220D01*
X82907507Y-92992960D01*
X82559940Y-92650302D01*
X82401077Y-92451987D01*
X82962385Y-92451987D01*
X82990806Y-92515923D01*
X83014169Y-92503771D01*
X83023465Y-92411588D01*
X83014169Y-92400203D01*
X82967991Y-92410866D01*
X82962385Y-92451987D01*
X82401077Y-92451987D01*
X82190768Y-92189449D01*
X81884737Y-91604904D01*
X81652894Y-90919329D01*
X81592544Y-90665443D01*
X81542215Y-90397437D01*
X81505116Y-90112327D01*
X81479635Y-89782022D01*
X81464159Y-89378433D01*
X81457077Y-88873470D01*
X81456685Y-88412800D01*
X81733456Y-88412800D01*
X81748940Y-89234844D01*
X81805626Y-89954365D01*
X81904019Y-90580952D01*
X82044626Y-91124192D01*
X82227953Y-91593674D01*
X82454507Y-91998986D01*
X82504693Y-92072683D01*
X82647530Y-92275948D01*
X83057404Y-92077834D01*
X83596700Y-91885666D01*
X84117215Y-91844438D01*
X84634979Y-91953688D01*
X84817965Y-92027144D01*
X85110829Y-92187568D01*
X85391401Y-92390625D01*
X85627290Y-92607030D01*
X85786107Y-92807494D01*
X85836391Y-92948045D01*
X85771315Y-93052195D01*
X85681040Y-93095900D01*
X85549540Y-93200003D01*
X85525688Y-93299150D01*
X85580222Y-93424123D01*
X85725323Y-93459443D01*
X85933239Y-93416127D01*
X86176216Y-93305193D01*
X86426502Y-93137658D01*
X86656346Y-92924540D01*
X86747743Y-92813998D01*
X86942978Y-92516430D01*
X87093132Y-92193700D01*
X87200864Y-91825915D01*
X87268837Y-91393181D01*
X87299710Y-90875607D01*
X87296146Y-90253299D01*
X87260804Y-89506364D01*
X87237338Y-89153727D01*
X87198465Y-88430514D01*
X87190518Y-87746342D01*
X87216754Y-87076362D01*
X87280431Y-86395727D01*
X87384806Y-85679587D01*
X87533135Y-84903097D01*
X87728676Y-84041406D01*
X87974686Y-83069668D01*
X88092966Y-82625993D01*
X88282409Y-81917973D01*
X88434863Y-81332894D01*
X88556444Y-80844446D01*
X88653267Y-80426319D01*
X88731447Y-80052203D01*
X88797101Y-79695787D01*
X88851277Y-79363608D01*
X88890687Y-79118396D01*
X88913520Y-79017227D01*
X88925628Y-79050421D01*
X88932862Y-79208299D01*
X88933455Y-79227675D01*
X88958523Y-79436490D01*
X89010362Y-79549198D01*
X89031659Y-79557798D01*
X89083449Y-79623929D01*
X89081672Y-79827089D01*
X89071548Y-79910514D01*
X88963256Y-80845910D01*
X88882182Y-81854285D01*
X88828395Y-82906452D01*
X88801969Y-83973228D01*
X88802974Y-85025429D01*
X88831482Y-86033871D01*
X88887565Y-86969368D01*
X88971295Y-87802738D01*
X89050857Y-88335168D01*
X89244075Y-89327400D01*
X89454646Y-90194777D01*
X89693695Y-90967673D01*
X89972351Y-91676460D01*
X90301737Y-92351510D01*
X90692981Y-93023196D01*
X90868100Y-93295920D01*
X91392613Y-94039488D01*
X91921981Y-94686379D01*
X92348770Y-95129516D01*
X92529329Y-95310612D01*
X92625930Y-95457494D01*
X92664760Y-95632999D01*
X92672006Y-95899966D01*
X92672008Y-95905149D01*
X92680633Y-96161394D01*
X92704105Y-96526102D01*
X92738991Y-96953463D01*
X92781858Y-97397669D01*
X92788674Y-97462079D01*
X92968302Y-99237348D01*
X93134682Y-101077511D01*
X93283093Y-102924724D01*
X93408817Y-104721143D01*
X93485718Y-106006422D01*
X93509838Y-106442084D01*
X93537249Y-106932019D01*
X93562311Y-107375408D01*
X93563973Y-107404587D01*
X93600367Y-108104577D01*
X93633727Y-108865076D01*
X93663435Y-109660863D01*
X93688876Y-110466714D01*
X93709433Y-111257407D01*
X93724491Y-112007720D01*
X93733433Y-112692430D01*
X93735643Y-113286315D01*
X93730505Y-113764152D01*
X93724330Y-113968195D01*
X93671849Y-115167140D01*
X93614241Y-116328408D01*
X93552592Y-117435797D01*
X93487986Y-118473103D01*
X93421506Y-119424123D01*
X93354238Y-120272655D01*
X93287266Y-121002494D01*
X93221675Y-121597439D01*
X93204915Y-121728528D01*
X93100412Y-122296826D01*
X92943609Y-122742809D01*
X92715538Y-123095897D01*
X92397229Y-123385510D01*
X91972783Y-123639507D01*
X91600185Y-123867079D01*
X91175588Y-124188858D01*
X90738013Y-124573158D01*
X90371572Y-124939639D01*
X89982061Y-125416642D01*
X89648105Y-125944700D01*
X89376976Y-126499862D01*
X89175943Y-127058179D01*
X89052278Y-127595701D01*
X89013250Y-128088478D01*
X89066129Y-128512560D01*
X89195984Y-128812213D01*
X89469717Y-129092215D01*
X89887019Y-129327475D01*
X90442354Y-129516862D01*
X91130185Y-129659246D01*
X91944978Y-129753497D01*
X92881195Y-129798483D01*
X93933302Y-129793076D01*
X93991822Y-129791373D01*
X94782829Y-129757201D01*
X95458931Y-129703015D01*
X96059914Y-129623110D01*
X96625565Y-129511783D01*
X97195669Y-129363331D01*
X97398960Y-129302969D01*
X97881192Y-129145411D01*
X98244759Y-128998405D01*
X98523818Y-128844583D01*
X98752523Y-128666574D01*
X98863210Y-128558352D01*
X98981303Y-128425970D01*
X99083925Y-128284141D01*
X99172294Y-128121323D01*
X99247630Y-127925976D01*
X99311152Y-127686558D01*
X99364080Y-127391528D01*
X99407633Y-127029345D01*
X99443029Y-126588468D01*
X99471490Y-126057355D01*
X99494233Y-125424466D01*
X99512478Y-124678260D01*
X99527445Y-123807194D01*
X99540353Y-122799729D01*
X99548122Y-122075562D01*
X99555941Y-121342958D01*
X99564300Y-120635176D01*
X99573464Y-119939697D01*
X99583697Y-119244002D01*
X99595264Y-118535575D01*
X99608429Y-117801895D01*
X99623457Y-117030446D01*
X99640612Y-116208709D01*
X99660159Y-115324165D01*
X99682362Y-114364297D01*
X99707486Y-113316586D01*
X99735795Y-112168513D01*
X99767553Y-110907562D01*
X99803026Y-109521213D01*
X99842477Y-107996948D01*
X99858912Y-107365749D01*
X99883033Y-106582683D01*
X99916034Y-105721742D01*
X99956297Y-104812888D01*
X100002203Y-103886082D01*
X100052134Y-102971286D01*
X100104470Y-102098460D01*
X100157593Y-101297566D01*
X100209885Y-100598565D01*
X100249189Y-100141896D01*
X100289082Y-99684136D01*
X100322749Y-99242367D01*
X100347408Y-98857422D01*
X100360280Y-98570131D01*
X100361505Y-98492764D01*
X100355737Y-98238653D01*
X100327143Y-98098120D01*
X100259373Y-98029525D01*
X100167584Y-97998869D01*
X100006171Y-97926228D01*
X99985090Y-97834543D01*
X100050415Y-97773187D01*
X100151194Y-97767044D01*
X100375788Y-97782534D01*
X100694612Y-97816755D01*
X101078081Y-97866803D01*
X101234972Y-97889423D01*
X101636435Y-97944405D01*
X102021176Y-97986098D01*
X102420676Y-98016153D01*
X102866415Y-98036223D01*
X103389874Y-98047961D01*
X104022534Y-98053019D01*
X104362079Y-98053558D01*
X104941295Y-98050486D01*
X105499885Y-98041694D01*
X106009455Y-98028073D01*
X106441612Y-98010515D01*
X106767962Y-97989909D01*
X106925382Y-97973114D01*
X107314385Y-97919600D01*
X107574534Y-97896635D01*
X107729462Y-97905087D01*
X107802805Y-97945819D01*
X107818654Y-98005810D01*
X107756477Y-98108790D01*
X107702141Y-98122324D01*
X107599457Y-98153840D01*
X107587007Y-98180581D01*
X107596774Y-98295756D01*
X107623622Y-98557161D01*
X107666667Y-98956712D01*
X107725028Y-99486329D01*
X107797822Y-100137931D01*
X107884166Y-100903436D01*
X107890288Y-100957492D01*
X107988041Y-101854758D01*
X108092854Y-102878777D01*
X108202264Y-104001243D01*
X108313806Y-105193849D01*
X108425017Y-106428289D01*
X108533432Y-107676256D01*
X108636587Y-108909444D01*
X108732018Y-110099548D01*
X108817260Y-111218259D01*
X108889851Y-112237273D01*
X108941739Y-113036085D01*
X108980774Y-113728945D01*
X109021644Y-114554342D01*
X109063535Y-115489484D01*
X109105631Y-116511579D01*
X109147115Y-117597835D01*
X109187173Y-118725461D01*
X109224988Y-119871664D01*
X109259744Y-121013652D01*
X109290627Y-122128633D01*
X109316819Y-123193815D01*
X109333723Y-123988379D01*
X109351969Y-124850639D01*
X109370944Y-125573397D01*
X109392055Y-126172500D01*
X109416711Y-126663796D01*
X109446319Y-127063133D01*
X109482287Y-127386358D01*
X109526023Y-127649320D01*
X109578936Y-127867866D01*
X109642432Y-128057843D01*
X109709346Y-128216525D01*
X109987620Y-128720961D01*
X110325870Y-129129237D01*
X110744725Y-129455845D01*
X111264811Y-129715276D01*
X111906757Y-129922020D01*
X112254953Y-130004789D01*
X112524599Y-130043803D01*
X112918405Y-130075074D01*
X113405354Y-130098302D01*
X113954433Y-130113193D01*
X114534628Y-130119449D01*
X115114924Y-130116774D01*
X115664307Y-130104870D01*
X116151762Y-130083442D01*
X116546275Y-130052192D01*
X116598062Y-130046336D01*
X117322275Y-129945833D01*
X117910470Y-129830474D01*
X118381742Y-129693999D01*
X118755187Y-129530151D01*
X119049900Y-129332669D01*
X119198165Y-129194077D01*
X119305624Y-129073831D01*
X119373195Y-128962233D01*
X119409583Y-128820597D01*
X119423491Y-128610235D01*
X119423624Y-128292459D01*
X119422581Y-128196597D01*
X119403405Y-127749223D01*
X119346753Y-127381056D01*
X119236616Y-127041583D01*
X119056986Y-126680292D01*
X118817100Y-126286011D01*
X118495054Y-125828851D01*
X118148816Y-125442473D01*
X117736502Y-125085462D01*
X117257273Y-124743652D01*
X116779120Y-124418550D01*
X116414926Y-124153672D01*
X116144543Y-123930823D01*
X115947820Y-123731808D01*
X115804610Y-123538434D01*
X115694929Y-123332870D01*
X115575306Y-123035657D01*
X115476780Y-122703167D01*
X115396085Y-122314001D01*
X115329956Y-121846760D01*
X115275128Y-121280043D01*
X115228335Y-120592451D01*
X115202346Y-120104587D01*
X115171186Y-119481691D01*
X115134116Y-118758788D01*
X115094019Y-117990970D01*
X115053777Y-117233334D01*
X115016272Y-116540973D01*
X115009342Y-116414984D01*
X114992468Y-116017335D01*
X114977407Y-115478655D01*
X114964144Y-114813253D01*
X114952665Y-114035438D01*
X114942957Y-113159521D01*
X114935004Y-112199810D01*
X114928793Y-111170616D01*
X114924308Y-110086247D01*
X114921537Y-108961014D01*
X114920464Y-107809226D01*
X114921076Y-106645191D01*
X114923357Y-105483221D01*
X114927294Y-104337624D01*
X114932873Y-103222710D01*
X114940078Y-102152789D01*
X114948897Y-101142169D01*
X114959314Y-100205161D01*
X114971316Y-99356075D01*
X114984887Y-98609218D01*
X115000015Y-97978902D01*
X115016684Y-97479436D01*
X115028487Y-97229051D01*
X115055329Y-96674612D01*
X115068317Y-96230006D01*
X115067376Y-95907828D01*
X115052429Y-95720668D01*
X115037806Y-95679418D01*
X114987717Y-95614234D01*
X114986368Y-95586277D01*
X115458288Y-95586277D01*
X115495151Y-95775995D01*
X115622322Y-96033734D01*
X115801170Y-96321865D01*
X116282766Y-97015745D01*
X116807202Y-97688828D01*
X117351057Y-98315046D01*
X117890907Y-98868332D01*
X118403331Y-99322617D01*
X118693272Y-99540560D01*
X118894405Y-99682898D01*
X119038312Y-99790955D01*
X119081651Y-99828615D01*
X119186028Y-99911404D01*
X119391519Y-100045333D01*
X119661968Y-100208803D01*
X119961220Y-100380217D01*
X120253116Y-100537975D01*
X120363303Y-100594208D01*
X120802934Y-100806648D01*
X121170840Y-100963775D01*
X121529572Y-101088397D01*
X121941685Y-101203323D01*
X122227523Y-101273974D01*
X122559081Y-101349060D01*
X122845169Y-101399333D01*
X123129461Y-101428274D01*
X123455631Y-101439364D01*
X123867355Y-101436087D01*
X124169419Y-101428788D01*
X124729568Y-101406626D01*
X125170220Y-101372053D01*
X125526998Y-101321080D01*
X125835528Y-101249721D01*
X125878287Y-101237470D01*
X126511594Y-101013310D01*
X127145570Y-100719467D01*
X127736676Y-100379847D01*
X128241374Y-100018358D01*
X128472067Y-99813288D01*
X128950125Y-99291474D01*
X129306888Y-98768462D01*
X129565462Y-98200173D01*
X129748957Y-97542531D01*
X129800327Y-97279682D01*
X129837732Y-96662339D01*
X129731475Y-96083762D01*
X129491484Y-95559377D01*
X129127684Y-95104610D01*
X128650003Y-94734888D01*
X128068368Y-94465639D01*
X127968974Y-94433716D01*
X127599792Y-94349477D01*
X127222074Y-94326002D01*
X126811078Y-94367557D01*
X126342058Y-94478404D01*
X125790273Y-94662807D01*
X125140367Y-94921093D01*
X124801555Y-95056293D01*
X124533160Y-95139154D01*
X124271011Y-95182567D01*
X123950934Y-95199422D01*
X123742202Y-95201960D01*
X123048060Y-95153006D01*
X122401183Y-94989855D01*
X121765009Y-94700662D01*
X121295413Y-94409353D01*
X120987780Y-94219357D01*
X120671773Y-94056526D01*
X120408267Y-93951716D01*
X120373380Y-93941967D01*
X119819204Y-93725102D01*
X119308588Y-93381460D01*
X118867483Y-92938613D01*
X118521843Y-92424136D01*
X118297622Y-91865600D01*
X118258117Y-91694648D01*
X118200270Y-91499540D01*
X118130852Y-91459331D01*
X118049961Y-91574007D01*
X117990670Y-91733486D01*
X117891223Y-91983417D01*
X117730030Y-92323608D01*
X117529124Y-92713494D01*
X117310536Y-93112510D01*
X117096299Y-93480088D01*
X116908443Y-93775664D01*
X116803784Y-93918809D01*
X116623634Y-94142230D01*
X116400190Y-94422780D01*
X116208506Y-94665788D01*
X115999044Y-94919253D01*
X115791261Y-95148584D01*
X115637365Y-95297576D01*
X115507203Y-95436247D01*
X115458288Y-95586277D01*
X114986368Y-95586277D01*
X114984209Y-95541535D01*
X115041968Y-95437846D01*
X115175679Y-95279694D01*
X115400029Y-95043603D01*
X115499462Y-94941513D01*
X116071642Y-94277370D01*
X116285321Y-94277370D01*
X116324159Y-94316207D01*
X116362997Y-94277370D01*
X116324159Y-94238532D01*
X116285321Y-94277370D01*
X116071642Y-94277370D01*
X116290648Y-94023165D01*
X116978404Y-93000019D01*
X117549781Y-91893561D01*
X117935989Y-90898470D01*
X118226872Y-89848603D01*
X118447230Y-88669200D01*
X118596574Y-87369394D01*
X118674418Y-85958316D01*
X118680274Y-84445098D01*
X118613656Y-82838873D01*
X118474077Y-81148772D01*
X118462196Y-81033639D01*
X118401737Y-80419433D01*
X118362594Y-79940146D01*
X118345018Y-79600546D01*
X118349261Y-79405398D01*
X118373698Y-79358126D01*
X118401507Y-79314231D01*
X118400590Y-79163140D01*
X118396675Y-79125132D01*
X118397047Y-78927329D01*
X118442863Y-78863660D01*
X118507973Y-78930386D01*
X118566224Y-79123770D01*
X118570677Y-79149999D01*
X118638031Y-79613169D01*
X118714062Y-80207189D01*
X118796011Y-80907983D01*
X118881116Y-81691470D01*
X118966618Y-82533573D01*
X119009266Y-82975535D01*
X119076062Y-83821296D01*
X119119076Y-84679296D01*
X119138472Y-85522143D01*
X119134411Y-86322443D01*
X119107056Y-87052805D01*
X119056567Y-87685836D01*
X118983108Y-88194142D01*
X118978260Y-88218654D01*
X118914674Y-88532980D01*
X118832513Y-88936952D01*
X118744507Y-89368051D01*
X118693559Y-89616819D01*
X118571688Y-90375482D01*
X118542614Y-91028965D01*
X118607771Y-91597731D01*
X118768592Y-92102245D01*
X118883818Y-92334115D01*
X119263479Y-92862523D01*
X119738671Y-93274529D01*
X120293033Y-93561498D01*
X120910201Y-93714797D01*
X121528440Y-93729659D01*
X122235279Y-93605802D01*
X122862477Y-93350333D01*
X123410582Y-92962642D01*
X123880141Y-92442116D01*
X124271701Y-91788145D01*
X124585810Y-91000115D01*
X124823016Y-90077417D01*
X124830223Y-90041198D01*
X124968776Y-89176871D01*
X125071482Y-88191155D01*
X125138235Y-87113844D01*
X125168927Y-85974736D01*
X125163451Y-84803624D01*
X125121700Y-83630305D01*
X125043567Y-82484573D01*
X124928944Y-81396225D01*
X124863051Y-80917125D01*
X124435357Y-78543260D01*
X123860648Y-76164127D01*
X123386241Y-74547706D01*
X123258838Y-74132560D01*
X123149646Y-73756676D01*
X123067132Y-73450791D01*
X123019764Y-73245644D01*
X123011807Y-73188379D01*
X122962122Y-72980507D01*
X122868369Y-72794246D01*
X122774168Y-72619890D01*
X122657802Y-72354906D01*
X122544446Y-72056629D01*
X122544340Y-72056326D01*
X122421746Y-71722984D01*
X122248993Y-71277388D01*
X122038315Y-70749556D01*
X121801945Y-70169508D01*
X121552116Y-69567260D01*
X121301062Y-68972831D01*
X121061017Y-68416240D01*
X121058865Y-68411314D01*
X120785861Y-67809329D01*
X120453792Y-67114474D01*
X120075659Y-66351236D01*
X119664466Y-65544106D01*
X119233212Y-64717571D01*
X118794900Y-63896121D01*
X118362530Y-63104243D01*
X117949106Y-62366427D01*
X117567628Y-61707162D01*
X117231098Y-61150935D01*
X117069360Y-60897013D01*
X116935818Y-60668073D01*
X116848566Y-60471744D01*
X116829052Y-60385346D01*
X116872409Y-60251146D01*
X116985692Y-60041165D01*
X117133030Y-59817303D01*
X117555039Y-59138801D01*
X117944179Y-58339466D01*
X118289294Y-57452292D01*
X118579230Y-56510273D01*
X118802833Y-55546402D01*
X118948948Y-54593672D01*
X118970064Y-54383566D01*
X118983321Y-53719272D01*
X118916256Y-52932989D01*
X118770781Y-52034528D01*
X118548807Y-51033703D01*
X118252246Y-49940326D01*
X117883010Y-48764210D01*
X117864977Y-48710276D01*
X117431956Y-47418412D01*
X117750530Y-46987174D01*
X118288758Y-46148197D01*
X118747827Y-45202244D01*
X118866764Y-44904170D01*
X118969926Y-44622092D01*
X119039746Y-44388899D01*
X119082825Y-44160845D01*
X119105760Y-43894185D01*
X119115151Y-43545173D01*
X119117148Y-43244342D01*
X119116276Y-42820391D01*
X119106817Y-42514131D01*
X119083419Y-42287936D01*
X119040734Y-42104178D01*
X118973411Y-41925231D01*
X118909575Y-41784419D01*
X118580343Y-41261227D01*
X118127628Y-40823077D01*
X117560877Y-40474610D01*
X116889536Y-40220468D01*
X116123050Y-40065289D01*
X115305475Y-40013728D01*
X114808042Y-40020542D01*
X114355791Y-40047959D01*
X113920314Y-40102103D01*
X113473201Y-40189095D01*
X112986044Y-40315059D01*
X112430433Y-40486118D01*
X111777958Y-40708395D01*
X111314099Y-40873971D01*
X110954983Y-40996137D01*
X110637560Y-41090228D01*
X110396246Y-41146953D01*
X110265475Y-41157028D01*
X110129223Y-41119477D01*
X109882278Y-41048898D01*
X109562926Y-40956306D01*
X109294495Y-40877737D01*
X108931419Y-40778488D01*
X108463729Y-40661608D01*
X107939427Y-40538510D01*
X107406511Y-40420608D01*
X107119572Y-40360568D01*
X106557325Y-40250074D01*
X106087912Y-40170302D01*
X105656890Y-40114969D01*
X105209818Y-40077792D01*
X104692254Y-40052489D01*
X104352318Y-40041192D01*
X102809499Y-40045193D01*
X101356294Y-40150707D01*
X100000046Y-40356481D01*
X98748099Y-40661265D01*
X97607796Y-41063809D01*
X97150616Y-41268083D01*
X96931838Y-41374300D01*
X96761641Y-41450032D01*
X96612945Y-41492704D01*
X96458672Y-41499739D01*
X96271746Y-41468563D01*
X96025087Y-41396599D01*
X95691618Y-41281272D01*
X95244260Y-41120006D01*
X95118654Y-41074797D01*
X94732183Y-40936013D01*
X94383802Y-40810979D01*
X94107031Y-40711722D01*
X93935393Y-40650266D01*
X93914679Y-40642874D01*
X93076436Y-40399774D01*
X92212414Y-40251795D01*
X91352330Y-40199154D01*
X90525900Y-40242069D01*
X89762841Y-40380758D01*
X89109940Y-40607630D01*
X88873217Y-40701298D01*
X88688845Y-40749266D01*
X88612465Y-40746196D01*
X88566483Y-40744623D01*
X88579488Y-40774260D01*
X88562318Y-40874955D01*
X88455332Y-41014493D01*
X88442416Y-41026932D01*
X88196756Y-41354645D01*
X88018828Y-41797991D01*
X87913447Y-42330565D01*
X87885424Y-42925960D01*
X87939573Y-43557769D01*
X87959216Y-43677863D01*
X88124877Y-44387775D01*
X88367582Y-45114290D01*
X88669802Y-45818396D01*
X89014004Y-46461081D01*
X89382657Y-47003332D01*
X89535947Y-47186615D01*
X89689305Y-47390972D01*
X89782909Y-47580689D01*
X89796563Y-47652670D01*
X89772773Y-47810873D01*
X89705905Y-48099504D01*
X89600769Y-48501201D01*
X89462177Y-48998607D01*
X89294938Y-49574360D01*
X89103864Y-50211101D01*
X88941021Y-50740061D01*
X88628643Y-51794169D01*
X88385638Y-52733721D01*
X88208617Y-53581418D01*
X88094192Y-54359962D01*
X88038974Y-55092054D01*
X88039574Y-55800397D01*
X88087361Y-56458738D01*
X88195098Y-57180368D01*
X88361453Y-57901057D01*
X88573804Y-58578322D01*
X88819527Y-59169679D01*
X88983631Y-59475426D01*
X89203777Y-59812835D01*
X89447736Y-60141392D01*
X89690917Y-60432200D01*
X89908727Y-60656362D01*
X90076576Y-60784983D01*
X90110668Y-60799750D01*
X90224927Y-60874339D01*
X90251577Y-61010750D01*
X90187774Y-61227546D01*
X90030674Y-61543293D01*
X89984017Y-61626635D01*
X89804736Y-61954991D01*
X89572137Y-62400205D01*
X89298013Y-62938092D01*
X88994158Y-63544461D01*
X88672366Y-64195124D01*
X88344430Y-64865894D01*
X88022144Y-65532582D01*
X87717302Y-66170999D01*
X87441698Y-66756957D01*
X87207124Y-67266267D01*
X87025375Y-67674742D01*
X86960008Y-67828746D01*
X86844389Y-68104438D01*
X86694419Y-68457462D01*
X86537787Y-68822723D01*
X86497423Y-68916207D01*
X86317310Y-69346438D01*
X86096965Y-69894826D01*
X85847124Y-70532777D01*
X85578525Y-71231699D01*
X85301905Y-71962997D01*
X85028003Y-72698076D01*
X84767556Y-73408344D01*
X84531301Y-74065205D01*
X84329976Y-74640066D01*
X84178498Y-75091437D01*
X83857248Y-76094763D01*
X83583451Y-76981459D01*
X83349360Y-77780112D01*
X83147232Y-78519308D01*
X82969320Y-79227631D01*
X82807881Y-79933669D01*
X82655167Y-80666006D01*
X82619962Y-80843721D01*
X82526420Y-81317028D01*
X82437283Y-81762400D01*
X82359147Y-82147294D01*
X82298611Y-82439166D01*
X82266528Y-82587155D01*
X82226053Y-82802857D01*
X82175610Y-83128081D01*
X82121772Y-83517881D01*
X82073402Y-83907645D01*
X81929146Y-85235657D01*
X81824065Y-86422795D01*
X81758666Y-87478647D01*
X81733456Y-88412800D01*
X81456685Y-88412800D01*
X81456586Y-88296330D01*
X81517556Y-86442390D01*
X81686254Y-84513167D01*
X81957913Y-82540517D01*
X82327767Y-80556300D01*
X82572472Y-79518960D01*
X82729358Y-79518960D01*
X82768196Y-79557798D01*
X82807034Y-79518960D01*
X82768196Y-79480122D01*
X82729358Y-79518960D01*
X82572472Y-79518960D01*
X82673251Y-79091743D01*
X82807034Y-79091743D01*
X82835454Y-79155679D01*
X82858817Y-79143527D01*
X82868114Y-79051343D01*
X82858817Y-79039959D01*
X82812639Y-79050621D01*
X82807034Y-79091743D01*
X82673251Y-79091743D01*
X82791052Y-78592371D01*
X83048526Y-77654740D01*
X83288855Y-76846079D01*
X83564460Y-75963961D01*
X83867270Y-75031229D01*
X84189212Y-74070726D01*
X84522216Y-73105295D01*
X84858210Y-72157778D01*
X85189121Y-71251018D01*
X85506879Y-70407858D01*
X85803412Y-69651141D01*
X86070648Y-69003709D01*
X86246120Y-68605504D01*
X86337776Y-68403930D01*
X86479970Y-68089620D01*
X86659619Y-67691565D01*
X86863642Y-67238755D01*
X87078957Y-66760184D01*
X87122368Y-66663608D01*
X87485444Y-65867979D01*
X87881026Y-65022573D01*
X88290802Y-64165275D01*
X88696461Y-63333969D01*
X89079693Y-62566539D01*
X89422185Y-61900869D01*
X89450038Y-61847902D01*
X89600741Y-61551063D01*
X89718533Y-61298389D01*
X89787075Y-61126020D01*
X89797859Y-61078595D01*
X89742621Y-60969409D01*
X89601169Y-60808733D01*
X89486103Y-60702485D01*
X89064325Y-60255677D01*
X88679663Y-59676709D01*
X88343287Y-58986591D01*
X88066367Y-58206332D01*
X87968118Y-57847400D01*
X87825429Y-57111247D01*
X87735635Y-56285287D01*
X87700929Y-55426557D01*
X87723504Y-54592094D01*
X87805552Y-53838936D01*
X87812441Y-53797418D01*
X87912310Y-53269145D01*
X88040847Y-52678323D01*
X88186390Y-52072294D01*
X88337280Y-51498400D01*
X88481856Y-51003983D01*
X88555914Y-50778899D01*
X88641460Y-50521695D01*
X88756104Y-50160634D01*
X88888485Y-49733279D01*
X89027242Y-49277195D01*
X89161014Y-48829945D01*
X89278440Y-48429095D01*
X89368159Y-48112207D01*
X89408639Y-47959470D01*
X89433228Y-47796485D01*
X89400504Y-47651492D01*
X89292294Y-47472268D01*
X89192392Y-47338063D01*
X88689126Y-46592971D01*
X88251527Y-45769227D01*
X87903148Y-44917198D01*
X87667547Y-44087250D01*
X87663863Y-44069871D01*
X87591670Y-43599944D01*
X87554364Y-43076749D01*
X87552657Y-42555183D01*
X87587259Y-42090144D01*
X87634765Y-41822316D01*
X87797801Y-41391385D01*
X88055590Y-40974772D01*
X88370672Y-40626205D01*
X88579793Y-40466936D01*
X89018630Y-40241849D01*
X89525828Y-40078565D01*
X90123750Y-39972532D01*
X90834759Y-39919199D01*
X91312538Y-39910611D01*
X91761178Y-39914007D01*
X92156200Y-39929021D01*
X92521822Y-39961055D01*
X92882265Y-40015507D01*
X93261748Y-40097780D01*
X93684491Y-40213273D01*
X94174714Y-40367385D01*
X94756637Y-40565519D01*
X95454478Y-40813073D01*
X95608962Y-40868584D01*
X96487648Y-41184770D01*
X97048430Y-40922220D01*
X97966361Y-40553561D01*
X99005801Y-40245827D01*
X100143613Y-40003270D01*
X101356664Y-39830139D01*
X102621816Y-39730685D01*
X103662997Y-39707040D01*
X104357114Y-39714401D01*
X104955261Y-39736270D01*
X105503908Y-39777481D01*
X106049529Y-39842866D01*
X106638595Y-39937259D01*
X107317579Y-40065494D01*
X107541660Y-40110457D01*
X107978018Y-40203279D01*
X108440617Y-40309206D01*
X108902946Y-40421320D01*
X109338495Y-40532706D01*
X109720752Y-40636450D01*
X110023206Y-40725634D01*
X110219347Y-40793343D01*
X110279640Y-40824696D01*
X110361775Y-40813571D01*
X110562201Y-40758465D01*
X110852959Y-40667795D01*
X111206092Y-40549976D01*
X111299923Y-40517586D01*
X111930813Y-40305483D01*
X112516587Y-40125812D01*
X113121489Y-39960028D01*
X113809767Y-39789583D01*
X113877370Y-39773529D01*
X114328545Y-39702433D01*
X114877241Y-39670532D01*
X115471018Y-39676456D01*
G37*
%TD*%
M02*
