M48
; DRILL file KiCad 10.0.3 date 2026-07-02T20:44:47
; FORMAT={-:-/ absolute / metric / decimal}
; #@! TF.CreationDate,2026-07-02T20:44:47+08:00
; #@! TF.GenerationSoftware,Kicad,Pcbnew,10.0.3
; #@! TF.FileFunction,Plated,1,2,PTH
FMAT,2
METRIC
; #@! TA.AperFunction,Plated,PTH,ViaDrill
T1C0.300
; #@! TA.AperFunction,Plated,PTH,ComponentDrill
T2C0.300
; #@! TA.AperFunction,Plated,PTH,ViaDrill
T3C0.400
; #@! TA.AperFunction,Plated,PTH,ComponentDrill
T4C0.600
%
G90
G05
T1
X83.1Y-89.6
X86.0Y-75.7
X88.705Y-73.705
X89.4Y-43.0
X93.5Y-42.5
X95.5Y-56.5
X95.7Y-78.5
X96.3Y-121.4
X97.9Y-64.9
X101.7Y-50.0
X103.5Y-74.1
X106.2Y-57.0
X110.7Y-60.8
X111.2Y-76.1
X112.5Y-89.6
X112.6Y-83.4
X112.7Y-86.4
X112.8Y-42.5
X112.9Y-49.8
X113.2Y-119.8
X117.2Y-83.4
X117.2Y-86.4
T3
X89.391Y-73.0
X100.1Y-56.8
X107.907Y-81.807
X112.5Y-85.0
X117.05Y-82.4
X117.5Y-89.5
X121.169Y-87.981
X121.5Y-82.0
T2
G00X94.656Y-69.465
M15
G01X94.656Y-69.465
M16
G05
T4
G00X119.12Y-80.88
M15
G01X120.22Y-80.88
M16
G05
G00X119.12Y-89.52
M15
G01X120.22Y-89.52
M16
G05
G00X123.55Y-80.88
M15
G01X124.15Y-80.88
M16
G05
G00X123.55Y-89.52
M15
G01X124.15Y-89.52
M16
G05
M30
